<svg xmlns="http://www.w3.org/2000/svg" width="64" height="64" viewBox="0 0 64 64">
  <path fill="#60BFBF" fill-rule="evenodd" d="M32.2163723,53.2033798 C25.7551208,53.2033798 20.404627,52.5764643 19.4751149,52.4633789 C18.9532244,52.4011819 18.5219998,52.0808032 18.5785722,51.554956 C18.7801351,49.6830153 19.1450463,46.0812445 19.3248794,41.2909458 C19.1641536,40.4107642 18.9247509,40.3010714 18.9225029,40.2973019 C18.8546909,40.2761926 18.3387949,40.2411361 17.0683493,41.2479734 C17.0185206,41.2856685 16.9660693,41.3508811 16.9109954,41.3791524 C15.7357115,42.2992909 14.2696975,42.8202377 12.7591,42.8202377 C9.03206008,42.8202377 6,39.7722085 6,36.0170185 C6,32.2241333 9.02756426,29.1421785 12.7478604,29.1421785 C14.3985779,29.1421785 16.1695587,30.1147132 17.593237,30.8934948 C18.059679,31.1498218 18.6677395,31.4822929 19.006425,31.6108334 C19.0757357,31.4732461 19.2019935,31.1720619 19.3106426,30.581756 C19.0648708,24.6474098 18.5190025,20.2046603 18.4111027,19.3712208 C18.3732629,19.0753139 18.4725457,18.779407 18.6804776,18.5683142 C18.8884096,18.3572214 19.1802636,18.2422513 19.4751149,18.2893702 C20.4252328,18.4043404 25.3121959,18.973537 31.6524347,19.1808603 C31.7487203,19.1435421 31.8184056,19.1096165 31.867485,19.0828529 C31.7460977,18.5607752 31.2294524,17.4035343 30.8735328,16.6040204 C30.0657827,14.7923919 29.5749883,13.6332662 29.5749883,12.7998267 C29.5749883,9.05029089 32.6141668,6 36.3498237,6 C40.0648747,6 43.0871938,9.04652137 43.0871938,12.7904029 C43.0871938,14.1119946 42.324402,15.3676197 41.5867118,16.5832881 C41.0520832,17.4638466 40.3893235,18.5532362 40.5388097,19.0508121 C40.5463027,19.0304567 40.6395911,19.0964232 40.8538922,19.1793525 C47.3859529,18.9452657 52.3658297,18.3119873 52.9165684,18.2384817 C53.2159155,18.1989018 53.511516,18.3025635 53.7220706,18.5174258 C53.9329997,18.7304033 54.0322826,19.0323414 53.9906962,19.3301331 C53.986575,19.8069766 53.9393688,46.5305705 53.9835778,52.0732642 C53.9873243,52.5614163 53.6287822,52.9741781 53.1484781,53.0382599 C52.5838772,53.1117654 47.4414014,53.7676609 40.7336288,53.999486 C40.6178613,54.0032555 40.5035924,53.9862927 40.3953179,53.9485975 C39.5377391,53.6602297 39.0064823,53.2474679 38.7712007,52.6895798 C38.4377603,51.8938353 38.9150672,50.9872672 39.7044593,49.4847388 C40.3563541,48.2441917 41.1686,46.7005756 41.1686,45.6730061 C41.1686,42.9925045 39.0091048,40.8129714 36.3539449,40.8129714 C33.6751818,40.8129714 31.4958301,42.9981588 31.4958301,45.6843146 C31.4958301,46.8283622 31.8892148,47.9350915 32.6036766,48.800572 C32.6550039,48.8608842 32.6969649,48.9268507 32.7306836,48.9984715 C33.8227947,50.4538809 34.1408744,51.6695493 33.70403,52.7065426 C33.4698724,53.2682002 32.6685775,53.2033798 32.2163723,53.2033798 Z M31.6509361,52.0710025 C31.8989558,51.9729951 31.9697651,51.8994896 31.9705144,51.8976049 C32.049566,51.6865121 31.8865923,51.0381556 31.0908311,50.0181251 C31.0514926,49.9691214 31.0177739,49.9144634 30.989675,49.8598055 C30.0773969,48.6780628 29.5768616,47.2038058 29.5768616,45.6843146 C29.5768616,41.9347788 32.617164,38.8826032 36.3539449,38.8826032 C40.0663733,38.8826032 43.0871938,41.9291246 43.0871938,45.6730061 C43.0871938,47.1811887 42.152062,48.9588916 41.4001351,50.3879144 C41.1251404,50.9118769 40.7665982,51.594159 40.6339713,51.9673409 C40.6841747,51.9918427 40.756108,52.0257683 40.8520189,52.0634635 C46.0731717,51.8749878 50.2966257,51.4339546 52.0608628,51.2266313 C52.0421302,46.0838831 52.0458767,25.5339995 52.0762235,20.2857049 C50.1358999,20.5081062 45.8978345,20.9382078 40.73775,21.115375 C40.626853,21.1172597 40.5107108,21.1021817 40.402811,21.0663713 C39.5182572,20.7704644 38.9806313,20.3497866 38.7607105,19.7787052 C38.230203,18.4062251 39.1042665,16.9677785 39.9494818,15.5768278 C40.5489253,14.5888381 41.1686,13.5691845 41.1686,12.7904029 C41.1686,10.1099013 39.0072316,7.93074517 36.3498237,7.93074517 C33.6725592,7.93074517 31.4939568,10.1155556 31.4939568,12.7998267 C31.4939568,13.2804397 32.1739505,14.8055852 32.6242824,15.8143072 C33.5848906,17.9689615 34.0322253,19.0395035 33.7044047,19.8220547 C33.4679991,20.3837123 32.9438607,20.7911968 32.1008933,21.0701408 C31.9959907,21.1040664 31.8869669,21.1210292 31.7723234,21.1172597 C26.6927891,20.9570554 22.5038031,20.5627642 20.4597008,20.3441324 C20.6743765,22.248114 21.0437836,25.9938803 21.2311097,30.6088965 C21.2341069,30.6767477 21.2299857,30.744599 21.2187461,30.8105655 C20.9669799,32.2867073 20.4731883,33.1612345 19.7070246,33.4872975 C18.9225029,33.8227843 18.0278335,33.3327474 16.6760885,32.5901531 C15.4438575,31.9172949 13.9100314,31.0763162 12.7478604,31.0763162 C10.0848327,31.0763162 7.91859381,33.2969371 7.91859381,36.0249345 C7.91859381,38.7167446 10.0900778,40.9053245 12.7591,40.9053245 C13.8961693,40.9053245 14.9953988,40.5095255 15.8544763,39.7895483 C15.914046,39.7386599 15.9781115,39.6971952 16.0462982,39.6632696 C16.7251679,39.1370454 18.2736054,38.0608491 19.7283798,38.6790494 C20.5050337,39.0088819 20.9827153,39.8819014 21.230735,41.4240097 C21.08537,45.7295488 20.7942652,49.2057948 20.5848347,51.3095606 C22.4562223,51.5112297 26.5684046,51.9032591 31.6509361,52.0710025 Z"/>
</svg>
