<svg xmlns="http://www.w3.org/2000/svg" width="64" height="64" viewBox="0 0 64 64">
  <g fill="#60BFBF" fill-rule="evenodd">
    <path d="M28.026764,56.9877544 C27.833964,56.9877544 27.638364,56.9337544 27.464764,56.8197544 C26.991964,56.5077544 26.861164,55.8737544 27.171964,55.4013544 L45.051164,28.2261544 L36.078764,28.2201544 C35.437564,28.2201544 34.839564,27.9297544 34.395164,27.4037544 C33.839164,26.7457544 33.574364,25.7613544 33.721564,24.8953544 L38.095964,7.00175435 C38.229564,6.45375435 38.781964,6.11735435 39.334364,6.25175435 C39.883564,6.38535435 40.219964,6.93975435 40.085164,7.48975435 L35.725964,25.3113544 C35.695164,25.5113544 35.790764,25.8813544 35.959964,26.0813544 L45.963964,26.1717544 C46.712764,26.1717544 47.223164,26.4177544 47.481964,26.8997544 C47.887964,27.6597544 47.395564,28.3981544 46.999164,28.9921544 L28.883564,56.5257544 C28.686764,56.8257544 28.359964,56.9877544 28.026764,56.9877544"/>
    <path d="M28.029564,57.1981544 C27.987564,57.1981544 27.945564,57.1957544 27.902764,57.1897544 C27.341964,57.1217544 26.941964,56.6097544 27.011164,56.0497544 L29.319164,37.2497544 C29.428364,37.1937544 29.319164,37.1357544 28.985964,37.1357544 L17.705164,37.1357544 C16.767964,37.1357544 16.347164,36.7137544 16.159164,36.3597544 C15.707564,35.5073544 16.333164,34.5833544 16.600364,34.1893544 L38.283164,6.39335435 C38.631964,5.95135435 39.275564,5.86735435 39.720764,6.21535435 C40.167164,6.56375435 40.245964,7.20775435 39.898364,7.65375435 L18.498764,35.0813544 L28.985964,35.0873544 C29.868364,35.0873544 30.526764,35.3353544 30.943964,35.8257544 C31.204764,36.1333544 31.486764,36.6797544 31.346764,37.5377544 L29.044764,56.2977544 C28.980364,56.8177544 28.538764,57.1981544 28.029564,57.1981544"/>
  </g>
</svg>
