<svg xmlns="http://www.w3.org/2000/svg" width="356" height="820" viewBox="0 0 356 820">
  <g fill="none" fill-rule="evenodd" transform="translate(0 -279)">
    <g stroke="#404040" stroke-width="1.08" opacity=".2" transform="translate(164.907 429.85)">
      <ellipse cx="82.034" cy="185.816" rx="4.318" ry="4.321"/>
      <ellipse cx="56.128" cy="185.816" rx="4.318" ry="4.321"/>
      <ellipse cx="30.223" cy="185.816" rx="4.318" ry="4.321"/>
      <ellipse cx="4.318" cy="185.816" rx="4.318" ry="4.321"/>
      <ellipse cx="82.034" cy="159.889" rx="4.318" ry="4.321"/>
      <ellipse cx="56.128" cy="159.889" rx="4.318" ry="4.321"/>
      <ellipse cx="30.223" cy="159.889" rx="4.318" ry="4.321"/>
      <ellipse cx="4.318" cy="159.889" rx="4.318" ry="4.321"/>
      <ellipse cx="82.034" cy="133.961" rx="4.318" ry="4.321"/>
      <ellipse cx="56.128" cy="133.961" rx="4.318" ry="4.321"/>
      <ellipse cx="30.223" cy="133.961" rx="4.318" ry="4.321"/>
      <ellipse cx="4.318" cy="133.961" rx="4.318" ry="4.321"/>
      <ellipse cx="82.034" cy="108.033" rx="4.318" ry="4.321"/>
      <ellipse cx="56.128" cy="108.033" rx="4.318" ry="4.321"/>
      <ellipse cx="30.223" cy="108.033" rx="4.318" ry="4.321"/>
      <ellipse cx="4.318" cy="108.033" rx="4.318" ry="4.321"/>
      <ellipse cx="82.034" cy="82.105" rx="4.318" ry="4.321"/>
      <ellipse cx="56.128" cy="82.105" rx="4.318" ry="4.321"/>
      <ellipse cx="30.223" cy="82.105" rx="4.318" ry="4.321"/>
      <ellipse cx="4.318" cy="82.105" rx="4.318" ry="4.321"/>
      <ellipse cx="82.034" cy="56.177" rx="4.318" ry="4.321"/>
      <ellipse cx="56.128" cy="56.177" rx="4.318" ry="4.321"/>
      <ellipse cx="30.223" cy="56.177" rx="4.318" ry="4.321"/>
      <ellipse cx="4.318" cy="56.177" rx="4.318" ry="4.321"/>
      <ellipse cx="82.034" cy="30.249" rx="4.318" ry="4.321"/>
      <ellipse cx="56.128" cy="30.249" rx="4.318" ry="4.321"/>
      <ellipse cx="30.223" cy="30.249" rx="4.318" ry="4.321"/>
      <ellipse cx="4.318" cy="30.249" rx="4.318" ry="4.321"/>
      <ellipse cx="82.034" cy="4.321" rx="4.318" ry="4.321"/>
      <ellipse cx="56.128" cy="4.321" rx="4.318" ry="4.321"/>
      <ellipse cx="30.223" cy="4.321" rx="4.318" ry="4.321"/>
      <ellipse cx="4.318" cy="4.321" rx="4.318" ry="4.321"/>
      <ellipse cx="82.034" cy="393.239" rx="4.318" ry="4.321"/>
      <ellipse cx="56.128" cy="393.239" rx="4.318" ry="4.321"/>
      <ellipse cx="30.223" cy="393.239" rx="4.318" ry="4.321"/>
      <ellipse cx="4.318" cy="393.239" rx="4.318" ry="4.321"/>
      <ellipse cx="82.034" cy="367.311" rx="4.318" ry="4.321"/>
      <ellipse cx="56.128" cy="367.311" rx="4.318" ry="4.321"/>
      <ellipse cx="30.223" cy="367.311" rx="4.318" ry="4.321"/>
      <ellipse cx="4.318" cy="367.311" rx="4.318" ry="4.321"/>
      <ellipse cx="82.034" cy="341.384" rx="4.318" ry="4.321"/>
      <ellipse cx="56.128" cy="341.384" rx="4.318" ry="4.321"/>
      <ellipse cx="30.223" cy="341.384" rx="4.318" ry="4.321"/>
      <ellipse cx="4.318" cy="341.384" rx="4.318" ry="4.321"/>
      <ellipse cx="82.034" cy="315.456" rx="4.318" ry="4.321"/>
      <ellipse cx="56.128" cy="315.456" rx="4.318" ry="4.321"/>
      <ellipse cx="30.223" cy="315.456" rx="4.318" ry="4.321"/>
      <ellipse cx="4.318" cy="315.456" rx="4.318" ry="4.321"/>
      <ellipse cx="82.034" cy="289.528" rx="4.318" ry="4.321"/>
      <ellipse cx="56.128" cy="289.528" rx="4.318" ry="4.321"/>
      <ellipse cx="30.223" cy="289.528" rx="4.318" ry="4.321"/>
      <ellipse cx="4.318" cy="289.528" rx="4.318" ry="4.321"/>
      <ellipse cx="82.034" cy="263.6" rx="4.318" ry="4.321"/>
      <ellipse cx="56.128" cy="263.6" rx="4.318" ry="4.321"/>
      <ellipse cx="30.223" cy="263.6" rx="4.318" ry="4.321"/>
      <ellipse cx="4.318" cy="263.6" rx="4.318" ry="4.321"/>
      <ellipse cx="82.034" cy="237.672" rx="4.318" ry="4.321"/>
      <ellipse cx="56.128" cy="237.672" rx="4.318" ry="4.321"/>
      <ellipse cx="30.223" cy="237.672" rx="4.318" ry="4.321"/>
      <ellipse cx="4.318" cy="237.672" rx="4.318" ry="4.321"/>
      <ellipse cx="82.034" cy="211.744" rx="4.318" ry="4.321"/>
      <ellipse cx="56.128" cy="211.744" rx="4.318" ry="4.321"/>
      <ellipse cx="30.223" cy="211.744" rx="4.318" ry="4.321"/>
      <ellipse cx="4.318" cy="211.744" rx="4.318" ry="4.321"/>
      <ellipse cx="185.655" cy="185.816" rx="4.318" ry="4.321"/>
      <ellipse cx="159.75" cy="185.816" rx="4.318" ry="4.321"/>
      <ellipse cx="133.845" cy="185.816" rx="4.318" ry="4.321"/>
      <ellipse cx="107.939" cy="185.816" rx="4.318" ry="4.321"/>
      <ellipse cx="185.655" cy="159.889" rx="4.318" ry="4.321"/>
      <ellipse cx="159.75" cy="159.889" rx="4.318" ry="4.321"/>
      <ellipse cx="133.845" cy="159.889" rx="4.318" ry="4.321"/>
      <ellipse cx="107.939" cy="159.889" rx="4.318" ry="4.321"/>
      <ellipse cx="185.655" cy="133.961" rx="4.318" ry="4.321"/>
      <ellipse cx="159.75" cy="133.961" rx="4.318" ry="4.321"/>
      <ellipse cx="133.845" cy="133.961" rx="4.318" ry="4.321"/>
      <ellipse cx="107.939" cy="133.961" rx="4.318" ry="4.321"/>
      <ellipse cx="185.655" cy="108.033" rx="4.318" ry="4.321"/>
      <ellipse cx="159.75" cy="108.033" rx="4.318" ry="4.321"/>
      <ellipse cx="133.845" cy="108.033" rx="4.318" ry="4.321"/>
      <ellipse cx="107.939" cy="108.033" rx="4.318" ry="4.321"/>
      <ellipse cx="185.655" cy="82.105" rx="4.318" ry="4.321"/>
      <ellipse cx="159.75" cy="82.105" rx="4.318" ry="4.321"/>
      <ellipse cx="133.845" cy="82.105" rx="4.318" ry="4.321"/>
      <ellipse cx="107.939" cy="82.105" rx="4.318" ry="4.321"/>
      <ellipse cx="185.655" cy="56.177" rx="4.318" ry="4.321"/>
      <ellipse cx="159.75" cy="56.177" rx="4.318" ry="4.321"/>
      <ellipse cx="133.845" cy="56.177" rx="4.318" ry="4.321"/>
      <ellipse cx="107.939" cy="56.177" rx="4.318" ry="4.321"/>
      <ellipse cx="185.655" cy="30.249" rx="4.318" ry="4.321"/>
      <ellipse cx="159.75" cy="30.249" rx="4.318" ry="4.321"/>
      <ellipse cx="133.845" cy="30.249" rx="4.318" ry="4.321"/>
      <ellipse cx="107.939" cy="30.249" rx="4.318" ry="4.321"/>
      <ellipse cx="185.655" cy="4.321" rx="4.318" ry="4.321"/>
      <ellipse cx="159.75" cy="4.321" rx="4.318" ry="4.321"/>
      <ellipse cx="133.845" cy="4.321" rx="4.318" ry="4.321"/>
      <ellipse cx="107.939" cy="4.321" rx="4.318" ry="4.321"/>
      <ellipse cx="185.655" cy="393.239" rx="4.318" ry="4.321"/>
      <ellipse cx="159.75" cy="393.239" rx="4.318" ry="4.321"/>
      <ellipse cx="133.845" cy="393.239" rx="4.318" ry="4.321"/>
      <ellipse cx="107.939" cy="393.239" rx="4.318" ry="4.321"/>
      <ellipse cx="185.655" cy="367.311" rx="4.318" ry="4.321"/>
      <ellipse cx="159.75" cy="367.311" rx="4.318" ry="4.321"/>
      <ellipse cx="133.845" cy="367.311" rx="4.318" ry="4.321"/>
      <ellipse cx="107.939" cy="367.311" rx="4.318" ry="4.321"/>
      <ellipse cx="185.655" cy="341.384" rx="4.318" ry="4.321"/>
      <ellipse cx="159.75" cy="341.384" rx="4.318" ry="4.321"/>
      <ellipse cx="133.845" cy="341.384" rx="4.318" ry="4.321"/>
      <ellipse cx="107.939" cy="341.384" rx="4.318" ry="4.321"/>
      <ellipse cx="185.655" cy="315.456" rx="4.318" ry="4.321"/>
      <ellipse cx="159.75" cy="315.456" rx="4.318" ry="4.321"/>
      <ellipse cx="133.845" cy="315.456" rx="4.318" ry="4.321"/>
      <ellipse cx="107.939" cy="315.456" rx="4.318" ry="4.321"/>
      <ellipse cx="185.655" cy="289.528" rx="4.318" ry="4.321"/>
      <ellipse cx="159.75" cy="289.528" rx="4.318" ry="4.321"/>
      <ellipse cx="133.845" cy="289.528" rx="4.318" ry="4.321"/>
      <ellipse cx="107.939" cy="289.528" rx="4.318" ry="4.321"/>
      <ellipse cx="185.655" cy="263.6" rx="4.318" ry="4.321"/>
      <ellipse cx="159.75" cy="263.6" rx="4.318" ry="4.321"/>
      <ellipse cx="133.845" cy="263.6" rx="4.318" ry="4.321"/>
      <ellipse cx="107.939" cy="263.6" rx="4.318" ry="4.321"/>
      <ellipse cx="185.655" cy="237.672" rx="4.318" ry="4.321"/>
      <ellipse cx="159.75" cy="237.672" rx="4.318" ry="4.321"/>
      <ellipse cx="133.845" cy="237.672" rx="4.318" ry="4.321"/>
      <ellipse cx="107.939" cy="237.672" rx="4.318" ry="4.321"/>
      <ellipse cx="185.655" cy="211.744" rx="4.318" ry="4.321"/>
      <ellipse cx="159.75" cy="211.744" rx="4.318" ry="4.321"/>
      <ellipse cx="133.845" cy="211.744" rx="4.318" ry="4.321"/>
      <ellipse cx="107.939" cy="211.744" rx="4.318" ry="4.321"/>
    </g>
    <polyline stroke="#404040" stroke-width="1.08" points="60.206 229.27 60.206 352.615 146.678 439.163 146.678 1037.278 114.925 1069.058 114.925 1317.738" opacity=".2"/>
    <polyline stroke="#404040" stroke-width="1.2" points="72.079 .24 72.079 123.586 158.552 210.133 158.552 808.248 126.799 840.028 126.799 1315.097" opacity=".5" transform="matrix(-1 0 0 1 230.631 0)"/>
    <polyline stroke="#404040" stroke-width="1.08" points="146.557 224.948 146.557 659.429 233.03 745.976 233.03 1316.002" opacity=".5" transform="matrix(-1 0 0 1 379.587 0)"/>
    <polyline stroke="#404040" stroke-width="1.2" points="17.03 229.27 17.03 525.468 103.503 612.015 103.503 942.209 71.75 973.989 71.75 1315.937"/>
    <rect width="31.302" height="31.33" x=".84" y="296.25" fill="#099" rx="1.08"/>
    <rect width="31.302" height="31.33" x="90.429" y="695.971" fill="#099" rx="1.08"/>
    <rect width="31.302" height="31.33" x="33.221" y="536.083" fill="#099" rx="1.08"/>
    <rect width="31.302" height="31.33" x="60.206" y="403.202" fill="#099" rx="1.08"/>
    <rect width="31.302" height="31.33" x="131.446" y="506.914" fill="#099" rx="1.08"/>
    <rect width="31.302" height="31.33" x="215.639" y="356.748" fill="#099" rx="1.08"/>
  </g>
</svg>
