<svg xmlns="http://www.w3.org/2000/svg" width="175" height="31" viewBox="0 0 175 31">
  <defs>
    <linearGradient id="client-logo-4-a" x1="50.007%" x2="50.007%" y1=".137%" y2="99.985%">
      <stop offset="0%" stop-color="#69C6B8"/>
      <stop offset="100%" stop-color="#1A93A5"/>
    </linearGradient>
    <linearGradient id="client-logo-4-b" x1="49.997%" x2="49.997%" y1="-.052%" y2="163.387%">
      <stop offset="10%" stop-color="#F8DF31"/>
      <stop offset="100%" stop-color="#F3A234"/>
    </linearGradient>
  </defs>
  <g fill="none" fill-rule="evenodd">
    <path fill="#003740" fill-rule="nonzero" d="M61.3848039 16.1593651L59.7254902 16.1593651 59.7254902 13.6055556 61.4583333 13.6055556 61.4583333 10.0996032 64.5759804 10.0996032 64.5759804 13.6080159 67.4926471 13.6080159 67.4926471 16.1593651 64.5759804 16.1593651 64.5759804 21.3580159C64.5759804 23.4788095 66.2352941 23.7814286 67.1151961 23.7814286 67.3092368 23.7835159 67.5030026 23.7662083 67.6936275 23.7297619L67.6936275 26.5296032C67.3695455 26.5826332 67.0415871 26.6081468 66.7132353 26.605873 64.9289216 26.605873 61.3848039 26.0744444 61.3848039 21.7615079L61.3848039 16.1593651zM70.372549 16.8974603C70.3940839 16.7443779 70.342694 16.5900363 70.2337894 16.4807168 70.1248847 16.3713973 69.9711289 16.3198117 69.8186275 16.3414286L68.8137255 16.3414286 68.8137255 13.6055556 71.7303922 13.6055556C72.8627451 13.6055556 73.4460784 14.097619 73.4460784 15.1703175L73.4460784 15.9280952C73.4475538 16.1979617 73.4303556 16.4676052 73.3946078 16.7350794L73.4460784 16.7350794C74.0245098 14.8923016 75.5563725 13.4284127 77.5171569 13.4284127 77.7108821 13.4311017 77.904175 13.4475448 78.0955882 13.477619L78.0955882 16.631746C77.8372869 16.5964547 77.576858 16.5791911 77.3161765 16.5800794 75.6740643 16.5792049 74.2385195 17.6915663 73.8235294 19.2864286 73.6366691 19.9684244 73.5434875 20.6728455 73.5465686 21.3801587L73.5465686 26.4779365 70.372549 26.4779365 70.372549 16.8974603zM86.0931373 18.4007143L86.495098 18.4007143 86.495098 18.2998413C86.495098 16.4595238 85.7598039 15.7755556 84.1323529 15.7755556 83.5539216 15.7755556 82.4166667 15.9256349 82.4166667 16.6342063L82.4166667 17.3157143 79.4509804 17.3157143 79.4509804 15.9526984C79.4509804 13.5563492 82.8186275 13.3029365 84.1519608 13.3029365 88.4240196 13.3029365 89.6813725 15.5492063 89.6813725 18.4253175L89.6813725 23.2204762C89.6650111 23.3719458 89.7177364 23.5227224 89.8248223 23.630694 89.9319082 23.7386656 90.0818772 23.7922599 90.2328431 23.7765079L91.2377451 23.7765079 91.2377451 26.4828571 88.3823529 26.4828571C87.2009804 26.4828571 86.747549 25.8259524 86.747549 25.0706349 86.747549 24.7434127 86.7720588 24.5170635 86.7720588 24.5170635L86.7230392 24.5170635C86.7230392 24.5170635 85.7426471 26.7879365 82.8529412 26.7879365 80.5661765 26.7879365 78.4803922 25.3486508 78.4803922 22.7751587 78.4779412 18.7279365 84.0073529 18.4007143 86.0931373 18.4007143zM83.629902 24.2784127C85.3455882 24.2784127 86.5465686 22.4626984 86.5465686 20.8979365L86.5465686 20.5879365 85.9926471 20.5879365C84.3333333 20.5879365 81.6936275 20.8142857 81.6936275 22.6053968 81.6936275 23.4714286 82.3235294 24.2784127 83.629902 24.2784127zM92.502451 16.786746C92.4054472 16.4865611 92.1114354 16.2963193 91.7990196 16.3315873L91.5245098 16.3315873 91.5245098 13.6055556 93.3578431 13.6055556C94.4142157 13.6055556 94.9166667 13.9327778 95.2426471 14.8160317L97.6568627 21.5720635C97.8577163 22.1747044 98.0174004 22.7903916 98.1348039 23.4148413L98.1862745 23.4148413C98.3029067 22.79254 98.4542892 22.1773106 98.6397059 21.5720635L101.053922 14.8086508C101.379902 13.9253968 101.909314 13.5981746 102.938725 13.5981746L104.654412 13.5981746 104.654412 16.3315873 104.343137 16.3315873C104.030721 16.2963193 103.73671 16.4865611 103.639706 16.786746L99.9632353 26.4754762 96.1740196 26.4754762 92.502451 16.786746zM111.735294 13.3029365C115.411765 13.3029365 117.416667 16.0092857 117.416667 19.4094444 117.416667 19.7883333 117.340686 20.5953175 117.340686 20.5953175L108.492647 20.5953175C108.737745 22.8661905 110.401961 24.0520635 112.338235 24.0520635 114.39951 24.0520635 115.931373 22.6127778 115.931373 22.6127778L117.264706 24.8270635C115.841026 26.0807805 114.011522 26.7716447 112.117647 26.7707143 107.870098 26.7707143 105.230392 23.6928571 105.230392 20.0319048 105.223039 16.0781746 107.887255 13.3029365 111.735294 13.3029365zM114.147059 18.3736508C114.098039 16.8334921 113.041667 15.7755556 111.735294 15.7755556 110.10049 15.7755556 108.943627 16.7596825 108.593137 18.3736508L114.147059 18.3736508zM120.181373 11.8390476C120.202728 11.6864522 120.151638 11.5326263 120.043332 11.4234242 119.935026 11.3142221 119.782011 11.2622557 119.629902 11.2830159L118.622549 11.2830159 118.622549 8.55944444 121.664216 8.55944444C122.845588 8.55944444 123.379902 9.09087302 123.379902 10.2816667L123.379902 23.2204762C123.361525 23.3723896 123.41251 23.5245048 123.518629 23.6343719 123.624748 23.744239 123.774638 23.8000938 123.926471 23.7863492L124.906863 23.7863492 124.906863 26.4926984 121.889706 26.4926984C120.683824 26.4926984 120.17402 25.9883333 120.17402 24.7704762L120.181373 11.8390476zM131.870098 13.3029365C134.659314 13.3029365 135.566176 14.8676984 135.566176 14.8676984L135.617647 14.8676984C135.617647 14.8676984 135.593137 14.5404762 135.593137 14.1099206L135.593137 11.8390476C135.614672 11.6859652 135.563282 11.5316236 135.454378 11.4223041 135.345473 11.3129846 135.191717 11.261399 135.039216 11.2830159L134.034314 11.2830159 134.034314 8.55944444 137.07598 8.55944444C138.257353 8.55944444 138.791667 9.09087302 138.791667 10.2816667L138.791667 23.2204762C138.775173 23.3724197 138.828209 23.5236744 138.935875 23.6317507 139.043541 23.7398269 139.194221 23.7930644 139.345588 23.7765079L140.32598 23.7765079 140.32598 26.4828571 137.384804 26.4828571C136.227941 26.4828571 135.801471 25.9268254 135.801471 25.1715079L135.801471 24.691746 135.752451 24.691746C135.752451 24.691746 134.696078 26.7854762 131.754902 26.7854762 128.286765 26.7854762 126.04902 24.0348413 126.04902 20.0466667 126.036765 15.9526984 128.47549 13.3029365 131.870098 13.3029365zM135.666667 20.0146825C135.666667 18.0218254 134.634804 16.0535714 132.5 16.0535714 130.740196 16.0535714 129.281863 17.4903968 129.281863 20.0392857 129.281863 22.4873016 130.563725 24.0766667 132.448529 24.0766667 134.098039 24.0766667 135.664216 22.8686508 135.664216 20.0146825L135.666667 20.0146825zM147.931373 13.3029365C151.607843 13.3029365 153.612745 16.0092857 153.612745 19.4094444 153.612745 19.7883333 153.536765 20.5953175 153.536765 20.5953175L144.688725 20.5953175C144.933824 22.8661905 146.60049 24.0520635 148.536765 24.0520635 150.598039 24.0520635 152.132353 22.6127778 152.132353 22.6127778L153.465686 24.8270635C152.042124 26.0809768 150.212543 26.7718699 148.318627 26.7707143 144.071078 26.7707143 141.431373 23.6928571 141.431373 20.0319048 141.421569 16.0781746 144.085784 13.3029365 147.931373 13.3029365zM150.343137 18.3736508C150.294118 16.8334921 149.237745 15.7755556 147.931373 15.7755556 146.296569 15.7755556 145.142157 16.7596825 144.789216 18.3736508L150.343137 18.3736508zM162.813725 18.4007143L163.215686 18.4007143 163.215686 18.2998413C163.215686 16.4595238 162.480392 15.7755556 160.852941 15.7755556 160.27451 15.7755556 159.137255 15.9256349 159.137255 16.6342063L159.137255 17.3157143 156.171569 17.3157143 156.171569 15.9526984C156.171569 13.5563492 159.539216 13.3029365 160.872549 13.3029365 165.144608 13.3029365 166.401961 15.5492063 166.401961 18.4253175L166.401961 23.2204762C166.385467 23.3724197 166.438503 23.5236744 166.546169 23.6317507 166.653835 23.7398269 166.804515 23.7930644 166.955882 23.7765079L167.960784 23.7765079 167.960784 26.4828571 165.10049 26.4828571C163.919118 26.4828571 163.468137 25.8259524 163.468137 25.0706349 163.468137 24.7434127 163.492647 24.5170635 163.492647 24.5170635L163.441176 24.5170635C163.441176 24.5170635 162.460784 26.7879365 159.571078 26.7879365 157.284314 26.7879365 155.196078 25.3486508 155.196078 22.7751587 155.196078 18.7279365 160.72549 18.4007143 162.813725 18.4007143zM160.35049 24.2784127C162.066176 24.2784127 163.264706 22.4626984 163.264706 20.8979365L163.264706 20.5879365 162.713235 20.5879365C161.053922 20.5879365 158.414216 20.8142857 158.414216 22.6053968 158.414216 23.4714286 159.041667 24.2784127 160.35049 24.2784127zM170.203431 11.8390476C170.224966 11.6859652 170.173576 11.5316236 170.064672 11.4223041 169.955767 11.3129846 169.802011 11.261399 169.64951 11.2830159L168.644608 11.2830159 168.644608 8.55944444 171.686275 8.55944444C172.867647 8.55944444 173.401961 9.09087302 173.401961 10.2816667L173.401961 23.2204762C173.385599 23.3719458 173.438325 23.5227224 173.54541 23.630694 173.652496 23.7386656 173.802465 23.7922599 173.953431 23.7765079L174.933824 23.7765079 174.933824 26.4828571 171.911765 26.4828571C170.705882 26.4828571 170.196078 25.9784921 170.196078 24.7606349L170.203431 11.8390476z"/>
    <path fill="url(#client-logo-4-a)" fill-rule="nonzero" d="M13.6960784,23.8749206 C13.6960784,24.0126984 13.7181373,24.1480159 13.7279412,24.288254 C13.9338235,26.7485714 15.7034314,30.0109524 18.4044118,30.3627778 C27.0710784,30.9311111 36.9926471,31.0098413 45.3651961,30.3627778 C47.9705882,29.8977778 49.8308824,26.7534921 50.0294118,24.2784127 C50.0465686,24.0520635 50.0637255,23.8380159 50.0784314,23.6165873 C44.8823529,26.2737302 38.5269608,27.8360317 31.6470588,27.8360317 C24.9779412,27.8360317 18.7965686,26.3696825 13.6960784,23.8749206 Z"/>
    <path fill="#003740" fill-rule="nonzero" d="M41.6421569,22.8194444 C41.6421569,22.8194444 40.9607843,23.0088889 39.752451,23.242619 C39.1470588,23.3656349 38.4093137,23.4886508 37.5612745,23.606746 C36.7132353,23.7248413 35.747549,23.8527778 34.6936275,23.9265873 C33.6397059,24.0003968 32.4877451,24.0840476 31.2769608,24.1160317 C30.0661765,24.1480159 28.7769608,24.1160317 27.4460784,24.0545238 C26.7818627,24.025 26.1078431,23.9634921 25.4215686,23.9118254 C24.7352941,23.8601587 24.0465686,23.7765079 23.3529412,23.6657937 C22.6593137,23.5550794 21.9583333,23.4640476 21.2598039,23.3262698 C20.5612745,23.1884921 19.8602941,23.0531746 19.1617647,22.8957143 C18.4632353,22.738254 17.7745098,22.5438889 17.0759804,22.3839683 C16.377451,22.2240476 15.7034314,21.9903175 15.0196078,21.7959524 C14.3357843,21.6015873 13.6740196,21.3580159 13.0245098,21.1070635 C12.375,20.8561111 11.7377451,20.5879365 11.125,20.297619 C10.5122549,20.0073016 9.91666667,19.7071429 9.35784314,19.3651587 C8.79901961,19.0231746 8.24754902,18.7033333 7.73284314,18.3564286 C7.21813725,18.0095238 6.73284314,17.6429365 6.2622549,17.3009524 C5.79166667,16.9589683 5.37009804,16.5751587 4.95833333,16.2257937 C4.54656863,15.8764286 4.17156863,15.5147619 3.81617647,15.1727778 C3.46078431,14.8307937 3.12254902,14.5134127 2.83578431,14.1886508 C2.25735294,13.5243651 1.74754902,12.9584921 1.36519608,12.4664286 C0.629901961,11.4503175 0.235294118,10.85 0.235294118,10.85 L0.428921569,10.6654762 C0.428921569,10.6654762 1.03676471,11.0542063 2.0245098,11.772619 C2.26960784,11.9596032 2.55882353,12.1342857 2.8627451,12.3409524 L3.84313725,13.0101587 C4.19117647,13.2561905 4.57843137,13.4751587 4.97058824,13.7310317 C5.3627451,13.9869048 5.76960784,14.2624603 6.21813725,14.5134127 L7.58578431,15.3302381 C8.07598039,15.5984127 8.56617647,15.864127 9.07107843,16.1569048 L10.6568627,16.9835714 L12.3284314,17.8126984 C12.8897059,18.1054762 13.4852941,18.3515079 14.0661765,18.6516667 L15.875,19.4709524 C16.495098,19.7169841 17.120098,19.9802381 17.7573529,20.2090476 L18.7230392,20.5411905 C19.0498366,20.6543651 19.376634,20.7568783 19.7034314,20.8487302 C20.3602941,21.0406349 21.0147059,21.235 21.6789216,21.39 C22.3431373,21.545 23.004902,21.7049206 23.6666667,21.8451587 C24.3284314,21.9853968 24.9901961,22.0911905 25.6421569,22.219127 C26.2941176,22.3470635 26.9460784,22.4331746 27.5857843,22.5094444 C28.8676471,22.6816667 30.1151961,22.7874603 31.3014706,22.8711111 C32.4877451,22.9547619 33.6127451,22.9916667 34.6544118,22.994127 C36.7377451,23.0138095 38.4730392,22.8907937 39.6862745,22.7899206 C40.8995098,22.6890476 41.5882353,22.5734127 41.5882353,22.5734127 L41.6421569,22.8194444 Z"/>
    <path fill="url(#client-logo-4-b)" fill-rule="nonzero" d="M50.0294118,10.6433333 C49.8259804,8.18301587 48.3602941,5.06333333 45.3504902,4.95015873 C43.5490196,4.82960317 41.6740196,4.72873016 39.754902,4.64753968 L39.754902,4.10380952 C39.7535499,1.84333571 37.9283657,0.0111985046 35.6764706,0.00984126984 L28.0784314,0.00984126984 C25.8284508,0.0139103343 24.0062497,1.84525432 24.004902,4.10380952 L24.004902,4.59587302 C22.0955882,4.67460317 20.2181373,4.78777778 18.4068627,4.94031746 C15.75,5.23309524 13.9362745,8.48071429 13.7303922,10.958254 C13.6421569,12.0604762 13.5735294,13.0593651 13.5220588,14.004127 C18.497549,17.0549206 24.7843137,18.8657143 31.6470588,18.8657143 C38.7181373,18.8657143 45.1985294,16.9294444 50.245098,13.7138095 C50.1911765,12.7592063 50.122549,11.7455556 50.0294118,10.6433333 Z M29.7843137,13.3152381 L24.6862745,13.3152381 L24.6862745,11.4404762 L29.7843137,11.4404762 L29.7843137,13.3152381 Z M26.4264706,4.52452381 L26.4264706,4.10380952 C26.4278204,3.18718418 27.1677357,2.44445019 28.0808824,2.44309524 L35.6789216,2.44309524 C36.5920683,2.44445019 37.3319835,3.18718418 37.3333333,4.10380952 L37.3333333,4.57373016 C33.7401961,4.4531746 30.0441176,4.43349206 26.4264706,4.52452381 Z M36.7205882,14.7520635 C35.4149656,14.7507047 34.3573933,13.6876349 34.3578445,12.3770379 C34.3582958,11.0664408 35.4165998,10.0041052 36.7222231,10.0036522 C38.0278463,10.0031993 39.0868816,11.0648004 39.0882353,12.3753968 C39.0909469,13.6856777 38.035697,14.7504532 36.7303922,14.7545238 L36.7205882,14.7520635 Z"/>
    <polygon fill="#003740" fill-rule="nonzero" points="45.473 23.932 46.091 23.932 46.902 20.622 45.336 21.614"/>
    <polygon fill="#003740" fill-rule="nonzero" points="42.838 18.182 42.529 18.718 44.461 19.995 44.551 19.948 45.973 19.095"/>
    <polygon fill="#003740" fill-rule="nonzero" points="48.358 18.029 43.358 21.036 42.451 20.955 43.934 22.027 49.733 18.526"/>
  </g>
</svg>
