<svg xmlns="http://www.w3.org/2000/svg" width="180" height="28" viewBox="0 0 180 28">
  <g fill="none" fill-rule="evenodd">
    <path fill="#F33" d="M61.1270241,2.41591304 C59.3484345,0.85826087 56.8796505,0 54.1758475,0 C51.4720444,0 49.0032605,0.85826087 47.2246708,2.41591304 C45.0872049,4.28826087 43.9576271,7.13421739 43.9576271,10.6466957 C43.9576271,18.2973913 52.9152906,27.2622609 53.2964612,27.6399565 C53.5290031,27.8706522 53.845768,28 54.1758475,28 C54.5059269,28 54.8226918,27.8706522 55.0552337,27.6399565 C55.4364043,27.2622609 64.3940678,18.2973913 64.3940678,10.6466957 C64.3940678,7.13421739 63.26449,4.28826087 61.1270241,2.41591304"/>
    <path fill="#FFF" d="M58.9764833,16.4279452 C59.2026991,16.6529691 59.3158053,16.9342449 59.3158053,17.2717808 C59.3158053,17.5952527 59.2026991,17.8659806 58.9764833,18.0839726 C58.7502675,18.3019646 58.4675019,18.4109589 58.1281782,18.4109589 L50.9175848,18.4109589 C50.5499841,18.4109589 50.2601494,18.2984486 50.0480721,18.0734247 C49.8359947,17.8484007 49.7299577,17.5600931 49.7299577,17.2084931 C49.7299577,16.8568932 49.8572021,16.5474899 50.1116949,16.2802739 L54.7349578,11.3649314 C55.2580819,10.8023715 55.6716265,10.236304 55.975604,9.66671214 C56.2795815,9.09712024 56.431568,8.57324419 56.431568,8.09506827 C56.431568,7.46218838 56.2053555,6.9137007 55.7529239,6.44958878 C55.3004922,5.98547686 54.777376,5.75342438 54.1835594,5.75342438 C53.7735433,5.75342438 53.3599987,5.8905463 52.9429132,6.16479426 C52.5258278,6.43904221 52.1476289,6.80118471 51.8083052,7.25123263 C51.5538124,7.58876858 51.228632,7.75753402 50.8327543,7.75753402 C50.5217075,7.75753402 50.2354074,7.63799183 49.9738454,7.39890387 C49.7122833,7.15981591 49.5815043,6.89260397 49.5815043,6.59726002 C49.5815043,6.38630005 49.6521956,6.17182731 49.7935805,5.95383535 C49.9349654,5.73584338 50.1470396,5.48621117 50.4298094,5.20493122 C50.9670719,4.67049931 51.5891561,4.24155382 52.2960806,3.91808188 C53.003005,3.59460993 53.6816423,3.43287639 54.3320128,3.43287639 C55.2651531,3.43287639 56.0851732,3.6297694 56.7920976,4.02356133 C57.4990221,4.41735326 58.0433458,4.95880905 58.425085,5.64794493 C58.8068242,6.33708081 58.9976909,7.11762097 58.9976909,7.98958882 C58.9976909,8.84749267 58.7679439,9.72999528 58.308443,10.6371231 C57.8489421,11.544251 57.2303925,12.4126898 56.4527756,13.2424656 L53.7594069,16.0904109 L58.1281782,16.0904109 C58.4675019,16.0904109 58.7502675,16.2029212 58.9764833,16.4279452 Z"/>
    <path fill="#333" d="M-1.27120536e-14 5.88843836L11.1235932 5.88843836 11.1235932 8.66849315 7.23681356 8.66849315 7.23681356 18.7945205 3.84976271 18.7945205 3.84976271 8.66849315-1.27120536e-14 8.66849315-1.27120536e-14 5.88843836zM20.0585593 18.7945205L19.1701525 16.5115616 13.5620847 16.5115616 12.6551695 18.7945205 9.17557627 18.7945205 14.7466271 5.88843836 18.2262203 5.88843836 23.6677119 18.7945205 20.0585593 18.7945205zM14.5800508 13.9340274L18.1706949 13.9340274 16.3938814 9.33128767 14.5800508 13.9340274zM23.3669492 5.88843836L27.3092542 5.88843836 29.7338644 9.55221918 32.1769831 5.88843836 36.1748136 5.88843836 31.8993559 12.0561096 36.5449831 18.7945205 32.4916271 18.7945205 29.7338644 14.7993425 27.0316271 18.7945205 23.0708136 18.7945205 27.6794237 12.2218082 23.3669492 5.88843836zM37.3362203 5.88843836L40.7232712 5.88843836 40.7232712 18.7945205 37.3362203 18.7945205 37.3362203 5.88843836zM76.3412881 18.7945205L75.4528814 16.5115616 69.8448136 16.5115616 68.9378983 18.7945205 65.4583051 18.7945205 71.0293559 5.88843836 74.5089492 5.88843836 79.9504407 18.7945205 76.3412881 18.7945205zM70.8627797 13.9340274L74.4534237 13.9340274 72.6766102 9.33128767 70.8627797 13.9340274zM80.5380847 5.88843836L83.9251356 5.88843836 83.9251356 18.7945205 80.5380847 18.7945205 80.5380847 5.88843836zM93.6559661 18.7945205L91.7681017 15.2227945 89.2509492 15.2227945 89.2509492 18.7945205 85.8638983 18.7945205 85.8638983 5.88843836 91.6940678 5.88843836C93.409195 5.88843836 94.7387071 6.28427001 95.6826441 7.07594521 96.626581 7.8676204 97.0985424 8.98147227 97.0985424 10.4175342 97.0985424 11.3871829 96.9011206 12.2248732 96.5062712 12.9306301 96.1114218 13.6363871 95.5376648 14.1856419 94.7849831 14.578411L97.4872203 18.7945205 93.6559661 18.7945205zM89.2509492 12.5347945L91.7125763 12.5347945C92.4035628 12.5347945 92.9372185 12.3629606 93.3135593 12.0192877 93.6899002 11.6756147 93.8780678 11.1785238 93.8780678 10.528 93.8780678 9.90202427 93.6899002 9.42027566 93.3135593 9.08273973 92.9372185 8.74520379 92.4035628 8.57643836 91.7125763 8.57643836L89.2509492 8.57643836 89.2509492 12.5347945zM108.236017 7.07594521C109.149106 7.8676204 109.605644 8.98147227 109.605644 10.4175342 109.605644 11.9395145 109.149106 13.1208725 108.236017 13.9616438 107.322928 14.8024152 106.039686 15.2227945 104.386254 15.2227945L102.072695 15.2227945 102.072695 18.7945205 98.6856441 18.7945205 98.6856441 5.88843836 104.386254 5.88843836C106.039686 5.88843836 107.322928 6.28427001 108.236017 7.07594521zM105.820661 12.0192877C106.197002 11.6756147 106.385169 11.1785238 106.385169 10.528 106.385169 9.90202427 106.197002 9.42027566 105.820661 9.08273973 105.44432 8.74520379 104.910664 8.57643836 104.219678 8.57643836L102.072695 8.57643836 102.072695 12.5347945 104.219678 12.5347945C104.910664 12.5347945 105.44432 12.3629606 105.820661 12.0192877zM120.456237 6.55123288C121.523565 7.12811247 122.362607 7.91977579 122.97339 8.92624658 123.584173 9.93271736 123.889559 11.0619115 123.889559 12.313863 123.889559 13.5780885 123.584173 14.7195566 122.97339 15.7383014 122.362607 16.7570462 121.523565 17.5609834 120.456237 18.150137 119.38891 18.7392906 118.195125 19.033863 116.874847 19.033863 115.55457 19.033863 114.360785 18.7423591 113.293458 18.1593425 112.22613 17.5763259 111.387088 16.7723887 110.776305 15.7475068 110.165522 14.722625 109.860136 13.5780885 109.860136 12.313863 109.860136 11.0619115 110.165522 9.93271736 110.776305 8.92624658 111.387088 7.91977579 112.22613 7.12811247 113.293458 6.55123288 114.360785 5.97435328 115.55457 5.68591781 116.874847 5.68591781 118.195125 5.68591781 119.38891 5.97435328 120.456237 6.55123288zM115.125797 9.03671233C114.576709 9.36811125 114.141764 9.82531215 113.820949 10.4083288 113.500134 10.9913454 113.339729 11.632654 113.339729 12.332274 113.339729 13.0441679 113.503219 13.6916135 113.830203 14.2746301 114.157188 14.8576468 114.592133 15.3179161 115.135051 15.6554521 115.677969 15.992988 116.270234 16.1617534 116.911864 16.1617534 117.553495 16.1617534 118.142675 15.992988 118.679424 15.6554521 119.216172 15.3179161 119.638778 14.8576468 119.947254 14.2746301 120.25573 13.6916135 120.409966 13.0441679 120.409966 12.332274 120.409966 11.632654 120.25573 10.9913454 119.947254 10.4083288 119.638778 9.82531215 119.216172 9.36811125 118.679424 9.03671233 118.142675 8.70531341 117.553495 8.53961644 116.911864 8.53961644 116.270234 8.53961644 115.674884 8.70531341 115.125797 9.03671233zM132.787508 18.7945205L130.899644 15.2227945 128.382492 15.2227945 128.382492 18.7945205 124.995441 18.7945205 124.995441 5.88843836 130.82561 5.88843836C132.540737 5.88843836 133.87025 6.28427001 134.814186 7.07594521 135.758123 7.8676204 136.230085 8.98147227 136.230085 10.4175342 136.230085 11.3871829 136.032663 12.2248732 135.637814 12.9306301 135.242964 13.6363871 134.669207 14.1856419 133.916525 14.578411L136.618763 18.7945205 132.787508 18.7945205zM128.382492 12.5347945L130.844119 12.5347945C131.535105 12.5347945 132.068761 12.3629606 132.445102 12.0192877 132.821443 11.6756147 133.00961 11.1785238 133.00961 10.528 133.00961 9.90202427 132.821443 9.42027566 132.445102 9.08273973 132.068761 8.74520379 131.535105 8.57643836 130.844119 8.57643836L128.382492 8.57643836 128.382492 12.5347945zM136.688169 5.88843836L147.811763 5.88843836 147.811763 8.66849315 143.924983 8.66849315 143.924983 18.7945205 140.537932 18.7945205 140.537932 8.66849315 136.688169 8.66849315 136.688169 5.88843836z"/>
    <path fill="#F33" d="M149.465186,17.2311233 C149.687289,17.4520559 149.798339,17.7374229 149.798339,18.0872329 C149.798339,18.4370428 149.687289,18.7247112 149.465186,18.9502466 C149.243084,19.1757819 148.956205,19.2885479 148.604542,19.2885479 C148.262134,19.2885479 147.979882,19.1757819 147.75778,18.9502466 C147.535677,18.7247112 147.424627,18.4370428 147.424627,18.0872329 C147.424627,17.7374229 147.533363,17.4520559 147.750839,17.2311233 C147.968315,17.0101907 148.25288,16.899726 148.604542,16.899726 C148.956205,16.899726 149.243084,17.0101907 149.465186,17.2311233 Z M154.220776,13.6547945 C153.77657,13.6547945 153.415658,13.8227928 153.13803,14.1587945 C152.860401,14.4947962 152.721589,14.9297508 152.721589,15.4636712 C152.721589,16.0067972 152.860401,16.4440531 153.13803,16.7754521 C153.415658,17.106851 153.77657,17.2725479 154.220776,17.2725479 C154.905593,17.2725479 155.396062,16.9917836 155.692199,16.4302466 L157.510657,17.465863 C157.21452,18.0366056 156.770321,18.4784642 156.178047,18.7914521 C155.585773,19.1044399 154.891712,19.2609315 154.095843,19.2609315 C153.327738,19.2609315 152.652185,19.1044399 152.069165,18.7914521 C151.486146,18.4784642 151.035006,18.0366056 150.715733,17.465863 C150.39646,16.8951204 150.236826,16.2323325 150.236826,15.4774795 C150.236826,14.7134208 150.398774,14.0391262 150.722674,13.4545753 C151.046574,12.8700245 151.502341,12.4189605 152.089988,12.1013699 C152.677635,11.7837792 153.355501,11.6249863 154.123606,11.6249863 C154.873203,11.6249863 155.539502,11.7791765 156.122521,12.0875616 C156.705541,12.3959467 157.158994,12.8309013 157.482894,13.3924384 L155.692199,14.4280548 C155.340537,13.9125454 154.850067,13.6547945 154.220776,13.6547945 Z M163.668263,12.1013699 C164.2883,12.4189605 164.769516,12.8654218 165.111924,13.4407671 C165.454333,14.0161125 165.625534,14.6812017 165.625534,15.4360548 C165.625534,16.2001134 165.454333,16.8698053 165.111924,17.4451507 C164.769516,18.020496 164.2883,18.4669573 163.668263,18.7845479 C163.048226,19.1021386 162.33103,19.2609315 161.516653,19.2609315 C160.702276,19.2609315 159.98508,19.1021386 159.365043,18.7845479 C158.745006,18.4669573 158.266104,18.020496 157.928322,17.4451507 C157.590541,16.8698053 157.421653,16.2001134 157.421653,15.4360548 C157.421653,14.6812017 157.590541,14.0161125 157.928322,13.4407671 C158.266104,12.8654218 158.745006,12.4189605 159.365043,12.1013699 C159.98508,11.7837792 160.702276,11.6249863 161.516653,11.6249863 C162.33103,11.6249863 163.048226,11.7837792 163.668263,12.1013699 Z M160.350619,14.124274 C160.054482,14.4648784 159.906416,14.9113397 159.906416,15.4636712 C159.906416,16.0252083 160.054482,16.4762723 160.350619,16.8168767 C160.646756,17.1574812 161.03543,17.3277808 161.516653,17.3277808 C162.00713,17.3277808 162.400431,17.1574812 162.696568,16.8168767 C162.992705,16.4762723 163.140772,16.0252083 163.140772,15.4636712 C163.140772,14.9113397 162.990392,14.4648784 162.689628,14.124274 C162.388863,13.7836695 161.997876,13.6133699 161.516653,13.6133699 C161.03543,13.6133699 160.646756,13.7836695 160.350619,14.124274 Z M178.460073,12.3844384 C178.95055,12.8999478 179.195785,13.5949545 179.195785,14.4694795 L179.195785,19.1780822 L176.724903,19.1780822 L176.724903,15.1736986 C176.724903,14.7502445 176.613853,14.4165492 176.391751,14.1726027 C176.169648,13.9286563 175.868888,13.8066849 175.489463,13.8066849 C175.054511,13.8158905 174.709794,13.9746834 174.455302,14.2830685 C174.200809,14.5914536 174.073564,14.9941893 174.073564,15.4912877 L174.073564,19.1780822 L171.602683,19.1780822 L171.602683,15.1736986 C171.602683,14.7502445 171.491633,14.4165492 171.26953,14.1726027 C171.047428,13.9286563 170.746668,13.8066849 170.367242,13.8066849 C169.932291,13.8158905 169.58526,13.9746834 169.326141,14.2830685 C169.067021,14.5914536 168.937463,14.9941893 168.937463,15.4912877 L168.937463,19.1780822 L166.480463,19.1780822 L166.480463,11.7078356 L168.937463,11.7078356 L168.937463,12.9367671 C169.196582,12.5041074 169.532045,12.1750148 169.943861,11.9494795 C170.355676,11.7239441 170.834578,11.6111781 171.380581,11.6111781 C171.991364,11.6111781 172.514223,11.7584643 172.949174,12.0530411 C173.384126,12.3476179 173.69414,12.7572577 173.879225,13.2819726 C174.119837,12.7296411 174.464554,12.3130973 174.913386,12.0323288 C175.362219,11.7515602 175.892019,11.6111781 176.502802,11.6111781 C177.317178,11.6111781 177.969596,11.8689289 178.460073,12.3844384 Z"/>
  </g>
</svg>
