<svg xmlns="http://www.w3.org/2000/svg" width="174" height="38" viewBox="0 0 174 38">
  <defs>
    <linearGradient id="client-logo-3-a" x1=".198%" x2="99.986%" y1="50.598%" y2="50.598%">
      <stop offset="3%" stop-color="#F29629"/>
      <stop offset="45%" stop-color="#E63D7E"/>
      <stop offset="99%" stop-color="#BF9AC7"/>
    </linearGradient>
  </defs>
  <path fill="url(#client-logo-3-a)" d="M173.607887,15.1107981 C173.444507,15.1107981 172.990673,15.9441815 172.246385,17.6109484 C171.622639,19.0476076 170.860147,20.4187791 169.969953,21.7046009 C169.207512,22.7705991 168.611174,23.3200826 168.180939,23.3530516 C167.899562,23.3530516 167.759781,22.5654585 167.761596,20.9902723 C167.763412,19.4150861 167.801534,17.5633265 167.875962,15.4349934 C169.881909,11.3102035 170.880344,7.58287324 170.871268,4.25300282 C170.86452,3.75665761 170.760886,3.26652027 170.566291,2.81060845 C170.437152,2.366594 170.033742,2.06132399 169.575117,2.06056338 C167.62,2.06056338 166.375587,4.0973158 165.841878,8.17082066 C165.344795,11.7641745 165.03033,15.3808447 164.899718,19.0066366 C164.437595,19.9461403 163.904109,20.8481543 163.304038,21.7046009 C162.544319,22.7678516 161.942535,23.3118404 161.515023,23.3365671 C161.362535,23.3365671 161.286291,22.9903925 161.286291,22.2980432 C161.286291,18.7117471 161.400657,16.6237096 161.62939,16.0339305 C161.861391,15.5211759 162.021762,14.9784235 162.105915,14.4211962 C162.212758,13.9271367 162.282844,13.4257093 162.315587,12.9211061 C162.315587,11.9485202 162.130423,11.4594798 161.770986,11.4594798 C161.411549,11.4594798 160.954085,11.6600413 160.436714,12.0556695 C160.029206,12.3436408 159.66273,12.6865948 159.347512,13.0749615 C158.332739,11.9979737 157.417809,11.4594798 156.602723,11.4594798 C154.72385,11.4594798 153.207136,12.2543994 152.052582,13.8442385 C151.079345,15.1688699 150.49353,16.7421937 150.361596,18.3857202 C149.821499,19.5449943 149.183792,20.655362 148.455493,21.7046009 C147.694867,22.7705991 147.096714,23.3200826 146.661033,23.3530516 C146.508545,23.3530516 146.4323,23.006877 146.4323,22.3145277 C146.4323,18.7282316 146.597496,16.5119812 146.927887,15.6657765 C147.158755,15.1528078 147.318199,14.6100883 147.40169,14.0530423 C147.509924,13.5592355 147.580025,13.0577006 147.611362,12.5529521 C147.611362,11.5803662 147.42892,11.0913258 147.066761,11.0913258 C146.704601,11.0913258 146.181784,11.3660676 145.522817,11.9375305 C145.087358,12.2763657 144.69095,12.6634251 144.341033,13.091446 C144.213052,13.2975023 144.068732,14.6849484 143.902629,17.2620263 C143.878122,17.6246854 143.856338,17.9708601 143.837277,18.3032977 C143.298034,19.3313836 142.676965,20.3136058 141.980188,21.2402873 C141.525173,21.8572286 140.955447,22.3788712 140.302817,22.7760939 C139.673184,23.1452909 138.956064,23.3351988 138.227887,23.3255775 C137.454554,23.3255775 136.79831,22.921707 136.267324,22.1139662 C135.736338,21.3062254 135.466761,20.2512169 135.466761,18.943446 C135.491983,17.5136282 135.841281,16.1086112 136.487887,14.8360563 C137.174085,13.4128939 137.990986,12.7013127 138.938592,12.7013127 C139.209397,12.6977406 139.465138,12.8267574 139.624789,13.0474873 C139.80009,13.264941 139.8962,13.5364623 139.897089,13.8167643 L139.594836,15.7756732 C139.594836,16.2647136 139.809953,16.5064864 140.242911,16.5064864 C140.768278,16.4972925 141.254047,16.2228234 141.536338,15.7756732 C141.899405,15.2884645 142.080939,14.5457458 142.080939,13.5475174 C142.067652,12.9739366 141.797255,12.4373875 141.345728,12.0886385 C140.803762,11.6431643 140.115605,11.4195677 139.41784,11.4622272 C137.557112,11.4293606 135.788137,12.2760389 134.636244,13.7508263 C133.728576,14.8497934 133.151299,16.3068407 132.904413,18.1219681 C132.352127,19.21122 131.707072,20.2499881 130.976526,21.2265502 C130.522466,21.8433643 129.953655,22.3650169 129.301878,22.7623568 C128.677491,23.1298213 127.966086,23.3197112 127.243286,23.3118404 C126.480845,23.3118404 125.816432,22.9464338 125.244601,22.2128732 C124.665417,21.4656575 124.314386,20.5644613 124.234366,19.6193108 C125.941494,19.6168166 127.598404,19.0363426 128.939718,17.9708601 C130.221346,16.9341678 130.86216,15.6520394 130.86216,14.1244751 C130.895134,13.3816049 130.58669,12.6649098 130.026197,12.1820507 C129.4225,11.6936426 128.664615,11.4410253 127.891362,11.4704695 C126.127712,11.4241243 124.445588,12.2192755 123.352113,13.6162028 C122.183036,15.0503549 121.599405,17.164035 121.601221,19.9572432 C121.587679,21.3023833 122.031718,22.6115316 122.859249,23.6662573 C123.657253,24.7363122 124.92298,25.3456152 126.24939,25.2982235 C128.710986,25.2982235 130.780469,23.9245146 132.45784,21.1770967 C132.566761,20.9939355 132.670235,20.8181008 132.768263,20.6495925 C132.825393,21.7668818 133.2144,22.8409769 133.884695,23.7321953 C134.634429,24.7707192 135.732707,25.2890654 137.179531,25.2872338 C139.005626,25.3229448 140.752136,24.5340499 141.942066,23.1360056 C142.495299,22.5187278 142.997981,21.857177 143.445164,21.1578648 C143.529577,21.0232413 143.619437,20.883123 143.717465,20.7182779 C143.682066,21.5425033 143.663005,22.2376 143.663005,22.7513671 C143.663005,23.8503343 143.752864,24.4959775 143.935305,24.6745596 C144.443599,25.0848407 145.193333,25.2890654 146.184507,25.2872338 C147.355399,25.2872338 148.756839,23.7175424 150.388826,20.5781596 C150.5159,22.0068169 150.878967,23.096626 151.478028,23.8475869 C152.240469,24.8091831 153.129077,25.2890654 154.14385,25.2872338 C155.119222,25.3072433 156.046016,24.8585573 156.640845,24.07837 C157.28529,23.2706291 157.938811,22.0342911 158.601408,20.3693559 C158.549671,21.6001991 158.525164,22.5672901 158.525164,23.309093 C158.525164,24.0508958 158.6123,24.4959775 158.797465,24.6828019 C159.303944,25.0930829 160.05277,25.2973077 161.043944,25.2954761 C162.133146,25.2954761 163.431111,23.9217671 164.93784,21.1743493 C164.974147,23.2532288 165.098498,24.4217972 165.310892,24.6800545 C165.558538,24.8832068 165.852359,25.0210489 166.165915,25.0811775 C166.66756,25.2274033 167.187733,25.2986775 167.709859,25.2927286 C169.082254,25.2927286 170.771424,23.1405847 172.777371,18.8362967 C173.512582,17.2757634 173.880188,16.1328376 173.880188,15.4157615 C173.855681,15.2179474 173.773991,15.1107981 173.607887,15.1107981 Z M169.626854,3.35184977 C169.83108,3.35184977 169.931831,3.76121502 169.931831,4.57994554 C169.931831,6.63318246 169.271956,9.41356932 167.952207,12.9211061 C168.306197,6.5434335 168.864413,3.35459718 169.626854,3.35459718 L169.626854,3.35184977 Z M125.214648,14.5613146 C125.824601,13.3158185 126.573427,12.6939862 127.461127,12.6958178 C128.199969,12.6958178 128.568482,13.2727756 128.566667,14.4266911 C128.607613,15.4663051 128.229396,16.4783102 127.51831,17.2318047 C126.821221,17.9497965 125.722942,18.4360895 124.223474,18.6906836 C124.255723,17.2583286 124.593802,15.8498439 125.214648,14.5613146 Z M158.979906,15.866338 C158.941784,16.3663681 158.909108,16.7180376 158.884601,16.9240939 C157.250798,21.1532857 156.019092,23.2669659 155.189484,23.2651343 C154.503286,23.2651343 153.950516,22.8072313 153.531174,21.8914254 C153.111831,20.9756194 152.90216,19.797893 152.90216,18.358246 C152.874218,17.0085033 153.297192,15.6885298 154.103005,14.6107681 C154.903568,13.5466016 155.658748,13.0145183 156.368545,13.0145183 C156.911649,13.0514593 157.433485,13.2418804 157.874366,13.5640019 C158.362243,13.8520369 158.77415,14.254443 159.075211,14.7371493 C159.050704,14.9871643 159.023474,15.3635606 158.982629,15.8635906 L158.979906,15.866338 Z M145.781502,8.72305164 C146.461958,8.75102739 147.108894,8.42414055 147.494272,7.85761502 C147.908824,7.25537441 148.122469,6.53555613 148.104225,5.80254648 C148.104225,5.00762693 147.761127,4.61108293 147.07493,4.61291455 C146.604336,4.64506415 146.153967,4.81821728 145.781502,5.11019718 C145.348303,5.35841971 145.074784,5.81663628 145.059906,6.31906103 C145.059906,7.92904789 145.302254,8.73404131 145.784225,8.73404131 L145.781502,8.72305164 Z M93.2955869,15.3058648 C93.2955869,15.0750817 93.1921127,14.9596901 92.9906103,14.9596901 C92.8811428,14.9724713 92.7764387,15.0120875 92.6856338,15.0750817 L92.228169,15.3498235 L91.3323005,15.899307 C90.6595655,16.2594454 89.9513681,16.5476582 89.2192488,16.7592488 C89.1920188,15.0668394 88.7599686,13.6931305 87.9230986,12.6381221 C87.0862286,11.5831136 86.1785602,11.0583568 85.2000939,11.0638516 C84.2958682,11.0416199 83.4080567,11.3100626 82.6649765,11.8303812 C81.0910798,11.8303812 79.8030986,12.5868369 78.8010329,14.0997484 C77.8269997,15.5161781 77.3019227,17.1975014 77.2952113,18.9214667 C77.2952113,18.9406986 77.2952113,18.9599305 77.2952113,18.9791624 C76.8338057,19.927819 76.300319,20.8390198 75.6995305,21.7046009 C74.9389046,22.7687674 74.3425666,23.3127562 73.9105164,23.3365671 C73.6291394,23.3365671 73.4893583,22.548974 73.4911737,20.9737878 C73.4929891,19.3986016 73.5311112,17.5477577 73.6055399,15.4212563 C75.6114868,11.2946347 76.6099217,7.56638873 76.6008451,4.23651831 C76.5940972,3.7401731 76.4904637,3.25003576 76.2958685,2.79412394 C76.1675143,2.34956116 75.7636219,2.04392614 75.3046948,2.04407887 C73.3495775,2.04407887 72.1060719,4.08083129 71.5741784,8.15433615 C71.0756779,11.7438451 70.761206,15.3569306 70.6320188,18.9791624 C70.1671038,19.9270325 69.6318717,20.8381052 69.030892,21.7046009 C68.2684507,22.7687674 67.6712051,23.3127562 67.2391549,23.3365671 C66.9577779,23.3365671 66.8179968,22.548974 66.8198122,20.9737878 C66.8216276,19.3986016 66.8597497,17.5477577 66.9341784,15.4212563 C68.9401253,11.2946347 69.9385602,7.56638873 69.9294836,4.23651831 C69.9224038,3.74049169 69.8197457,3.25059261 69.62723,2.79412394 C69.4980913,2.35010949 69.0946814,2.04483948 68.6360563,2.04407887 C66.680939,2.04407887 65.4365258,4.08083129 64.9028169,8.15433615 C64.374554,12.2754629 64.0695775,15.649292 63.9797183,18.3197822 C63.4519417,19.3313033 62.84362,20.2979082 62.1607512,21.2100657 C61.7057363,21.827007 61.1360107,22.3486496 60.4833803,22.7458723 C59.859947,23.1132399 59.1494402,23.3031411 58.4275117,23.2953559 C57.6650704,23.2953559 56.9979343,22.9290335 56.4261033,22.1963887 C55.8487814,21.4472987 55.4988461,20.5455327 55.4185915,19.6000789 C57.1228524,19.6016731 58.7785068,19.0271069 60.1212207,17.9681127 C61.4046634,16.9295887 62.046385,15.6419656 62.046385,14.1052432 C62.0795196,13.3617588 61.7698835,12.6446312 61.2076995,12.1628188 C60.6073818,11.6810209 59.8557084,11.4324409 59.0892019,11.4622272 C57.3261247,11.4200373 55.6463123,12.2181036 54.5553991,13.6162028 C53.5460719,14.8580357 52.9733333,16.6081408 52.8371831,18.8665183 C52.3540025,19.8550464 51.7949923,20.803963 51.1652582,21.7046009 C50.4028169,22.7687674 49.8064789,23.3127562 49.3762441,23.3365671 C49.2210329,23.3365671 49.1475117,23.0618254 49.1475117,22.4711305 C49.1475117,21.8804357 49.2673239,20.5122216 49.5096714,18.3225296 C49.7131016,16.6702713 49.8339744,15.0087287 49.871831,13.3442085 C49.8790568,12.8216219 49.6469634,12.3248889 49.2428169,11.9979737 C48.8487167,11.644931 48.3402574,11.4494956 47.8132394,11.4484901 C47.2686385,11.4484901 46.6777465,11.822139 46.0051643,12.5639418 C45.0873189,13.6543128 44.2671998,14.8247256 43.5544601,16.0614047 C42.5905164,17.6494122 42.0568075,18.5340808 41.9560563,18.6741991 C41.9560563,17.3169746 41.9560563,16.3169146 41.9941784,15.6767662 C42.7566197,14.6528951 43.505446,13.1793634 44.2406573,11.2561709 C44.983668,9.28508838 45.3558208,7.19147917 45.3380282,5.082723 C45.3658268,4.33116312 45.2359158,3.58215838 44.9568075,2.88478873 C44.7035681,2.33530516 44.4476056,2.03858404 44.1943662,2.03858404 C43.596945,2.05395226 43.0218039,2.27059666 42.5605634,2.65400563 C40.24964,4.44715369 39.0941784,8.6232288 39.0941784,15.182231 L39.0941784,17.4131343 C39.0941784,18.2831499 39.0242879,19.5835944 38.884507,21.3144676 C38.7429108,23.0425934 38.6748357,24.0618854 38.6748357,24.3366272 C38.6748357,24.611369 38.9471362,24.861384 39.5107981,25.0289765 C40.0805545,25.196144 40.6710574,25.2803328 41.2644131,25.2789915 C41.6701408,25.2789915 41.8743662,24.9190798 41.8743662,24.2020038 L41.8362441,23.0096244 C41.8413138,22.159332 41.9178319,21.3110043 42.0649765,20.4737577 C42.1412207,19.986549 42.8010954,18.8656025 44.0446009,17.1109183 C45.2881065,15.3562341 46.0559938,14.478892 46.3482629,14.478892 C46.6423474,14.478892 46.7866667,14.9019944 46.7866667,15.7454516 C46.7866667,16.5889089 46.7185915,17.8664582 46.5769953,19.5698573 C46.4353991,21.2732563 46.3673239,22.5040995 46.3673239,23.2596394 C46.3673239,24.0151793 46.4571831,24.4849878 46.6396244,24.66357 C47.1479187,25.073851 47.8976526,25.2789915 48.8888263,25.2789915 C50.0079812,25.2789915 51.3395305,23.8146178 52.8889202,20.9408188 C53.0481215,21.928345 53.4538857,22.8587184 54.0679812,23.6442779 C54.8648865,24.7175745 56.1295564,25.3325181 57.4581221,25.2927286 C59.9197183,25.2927286 61.9892019,23.9190197 63.6665728,21.1716019 C63.778216,20.9875249 63.8735211,20.817185 63.9769953,20.6413502 C63.9987793,23.039846 64.1213146,24.3888282 64.35277,24.6690648 C64.6014642,24.8727346 64.8960611,25.0114458 65.2105164,25.0729352 C65.7114771,25.217979 66.2305799,25.2892321 66.7517371,25.2844864 C67.840939,25.2844864 69.1479812,23.8860507 70.6483568,21.1441277 C70.6810329,23.2266704 70.8035681,24.4108075 71.0186854,24.6690648 C71.2673796,24.8727346 71.5619766,25.0114458 71.8764319,25.0729352 C72.3773926,25.217979 72.8964954,25.2892321 73.4176526,25.2844864 C74.5613146,25.2844864 75.9255399,23.7679117 77.5021596,20.7814685 C77.6829042,21.7081701 78.0398373,22.5907766 78.5532394,23.3805258 C79.3882943,24.6498329 80.5945854,25.2844864 82.1721127,25.2844864 C84.3287324,25.2844864 85.9915807,24.6177796 87.1606573,23.2843662 C88.3297339,21.9509527 89.0032239,20.2109214 89.1811268,18.0642723 C90.219986,17.6721017 91.2053959,17.1486693 92.1138028,16.5064864 C92.8998436,15.9423499 93.2937714,15.5421427 93.2955869,15.3058648 Z M75.3537089,3.35459718 C75.5552113,3.35459718 75.6586854,3.76396244 75.6586854,4.58269296 C75.6586854,6.63592988 74.9979029,9.41631674 73.676338,12.9238535 C74.0321441,6.5443493 74.5912676,3.35459718 75.3537089,3.35459718 Z M68.6877934,3.35459718 C68.8892958,3.35459718 68.99277,3.76396244 68.99277,4.58269296 C68.99277,6.63592988 68.3319874,9.41631674 67.0104225,12.9238535 C67.3662286,6.5443493 67.9253521,3.35459718 68.6877934,3.35459718 Z M56.4206573,14.5613146 C57.0306103,13.3158185 57.7803442,12.6939862 58.6698592,12.6958178 C59.4050704,12.6958178 59.7753991,13.2727756 59.7753991,14.4266911 C59.8163452,15.4663051 59.438128,16.4783102 58.7270423,17.2318047 C58.0263225,17.9497965 56.9280437,18.4360895 55.4322066,18.6906836 C55.4635203,17.2585212 55.8006727,15.8500283 56.4206573,14.5613146 Z M42.5578404,8.58018592 C42.9880751,5.73569265 43.4319249,4.31436181 43.8893897,4.31619343 C44.1616901,4.31619343 44.3087324,4.865677 44.3087324,5.9289277 C44.3087324,8.05542911 43.5599061,10.6947819 42.0622535,13.8469859 C42.1584663,11.8468657 42.323662,10.0912657 42.5578404,8.58018592 Z M85.6766197,22.1661671 C85.1378896,23.0626611 84.1638719,23.5986114 83.1251643,23.5700977 C82.0359624,23.5700977 81.2353991,23.0132876 80.7234742,21.8996676 C80.2174348,20.7968466 79.9571785,19.5954978 79.9610329,18.3802254 C79.9610329,15.8159687 80.5056338,14.0997484 81.5948357,13.2315643 C81.2991906,13.9249989 81.1561212,14.6748796 81.175493,15.4294986 C81.175493,16.2720401 81.5821282,17.0468119 82.3953991,17.7538141 C83.2228802,18.4630106 84.2808829,18.8387351 85.3661972,18.8088225 L86.7276995,18.7346423 C86.674281,19.9504114 86.3123656,21.1319782 85.6766197,22.1661671 Z M86.3192488,17.3087324 C85.4794505,17.3185608 84.6681462,17.0017553 84.0537089,16.4240638 C83.4080211,15.838372 83.0521483,14.9945225 83.0815962,14.1189803 C83.0827394,13.6922119 83.2025554,13.2743313 83.4274178,12.9128638 C83.6207158,12.5667421 83.9867862,12.3556836 84.3804695,12.3633803 C85.1919249,12.3633803 85.7828169,12.8762316 86.1531455,13.9019343 C86.5323602,14.9989053 86.7444444,16.1475729 86.7821596,17.3087324 L86.3192488,17.3087324 Z M106.224413,15.1932207 C105.553288,14.3279495 104.720721,13.6036552 103.773709,13.0612244 C102.824288,12.5117408 101.872144,11.9998053 100.917277,11.5254178 C100.037401,11.0985356 99.2178258,10.5552608 98.4801878,9.90993615 C97.8466775,9.39280387 97.4760057,8.61658766 97.4699531,7.79442441 C97.4699531,6.98851519 97.8448201,6.22015399 98.594554,5.48934085 C99.29379,4.77782902 100.248266,4.38151908 101.241315,4.39037371 C102.99493,4.39037371 103.921659,5.082723 104.021502,6.4674216 L103.830892,7.46473427 C103.855399,7.85212019 104.130423,8.04443944 104.647793,8.04443944 C105.144239,8.06299769 105.616407,7.82738087 105.903099,7.41802817 C106.219909,6.97027527 106.380777,6.42924065 106.360563,5.87947418 C106.333333,4.82996056 105.812332,4.0487781 104.797559,3.53592676 C103.743337,3.0136706 102.581743,2.7500866 101.407418,2.76664977 C99.6314671,2.7431994 97.8927823,3.28120209 96.4352113,4.30520376 C94.9829422,5.33090641 94.2568075,6.70461533 94.2568075,8.42633052 C94.2557523,9.3989097 94.6241033,10.3349255 95.2861033,11.0418723 C95.9944055,11.830236 96.8293597,12.4924848 97.7558685,13.0007812 C98.7325197,13.5392751 99.7037245,14.0713584 100.669484,14.597031 C101.592804,15.0887376 102.429161,15.7311448 103.144695,16.4982441 C103.799011,17.1623788 104.168643,18.059225 104.173991,18.9956469 C104.195437,20.3329824 103.654197,21.6168503 102.684507,22.5288263 C101.721829,23.4867998 100.417559,24.0135813 99.0656338,23.9904526 C97.6551174,23.9904526 96.5659155,23.6442779 95.7980282,22.9519286 C95.0301408,22.2595793 94.6298592,21.4912181 94.5971831,20.6468451 C94.5971831,19.9032106 95.0292333,19.5313934 95.8933333,19.5313934 C96.3480751,19.5313934 96.5795305,19.3390742 96.5795305,18.9544357 C96.5079683,18.5770274 96.2879114,18.2449741 95.9695775,18.0340507 C95.6455405,17.8058191 95.2592071,17.6848477 94.8640376,17.6878761 C93.8238498,17.6878761 93.024194,18.0203136 92.4650704,18.6851887 C91.9244295,19.300262 91.6260402,20.0939776 91.626385,20.916092 C91.626385,22.4528144 92.3116746,23.5994035 93.6822535,24.3558592 C95.0528325,25.1123149 96.7674178,25.4896269 98.8260094,25.4877953 C100.897933,25.479677 102.911269,24.7932286 104.56338,23.5316338 C106.34241,22.2275261 107.231017,20.4343781 107.229202,18.1521897 C107.240246,17.0784515 106.886616,16.0332606 106.227136,15.1904732 L106.224413,15.1932207 Z M34.9715493,29.8809164 C34.2962441,30.5705183 33.2015962,30.5952451 32.3220657,29.9221277 C31.2328638,29.0979023 30.170892,28.273677 29.0953052,27.4494516 L27.7338028,26.4054329 L19.6791549,20.1770366 L19.2843192,19.8830629 C19.0719249,20.1907737 18.8540845,20.5012319 18.6389671,20.8061953 L17.375493,22.6112488 L16.4061033,21.9243944 L9.77830986,17.2235624 L14.7668545,10.0610441 C14.88571,10.3043681 15.0648657,10.5125755 15.2869484,10.6654761 C17.6069484,12.3139268 19.9314867,13.9623775 22.2605634,15.6108282 L20.8337089,17.6658967 C20.9131142,17.7378047 20.9967736,17.8047818 21.0842254,17.8664582 L29.7270423,23.4849277 C33.6355618,16.1829977 31.2988232,7.07534917 24.3696754,2.60410937 C17.4405275,-1.86713043 8.2660794,-0.187419221 3.33570779,6.45513023 C-1.59466384,13.0976797 -0.610895075,22.4530378 5.59116338,27.9038644 C11.7932219,33.3546911 21.1127478,33.0546288 26.9577465,27.2159211 L27.1211268,27.3395549 L28.6296714,28.5017127 C29.8277934,29.4275925 31.0204695,30.3562197 32.2240376,31.2738573 C33.2043192,32.0239023 34.4242254,31.9964282 35.1784977,31.2298986 C35.973615,30.4056732 36.0934272,29.4220977 35.6196244,28.5676507 C35.5639164,29.0688382 35.3343619,29.5340096 34.9715493,29.8809164 Z M15.4040376,6.90975587 C15.6215488,6.33290321 16.1787144,5.95960188 16.7900469,5.98112864 C17.0394797,6.08818496 17.2814691,6.21210018 17.5143662,6.35203005 C19.9777778,8.08839812 22.4384663,9.82842941 24.8964319,11.5721239 C25.4573709,11.9704995 25.6806573,12.5199831 25.525446,13.0804563 C25.4118249,13.5565049 25.0421314,13.9273875 24.5696714,14.0393052 C24.4908726,14.0559746 24.4105587,14.0642622 24.3300469,14.0640319 C24.0158982,14.059944 23.7095797,13.9645536 23.4477934,13.7892901 C20.9299217,12.0309427 18.4220344,10.2588582 15.9241315,8.47303662 C15.8163281,8.39470356 15.7192728,8.30232106 15.635493,8.19829484 C15.3254582,7.84631382 15.2361509,7.34913035 15.4040376,6.90975587 Z M17.0786854,25.2762441 C16.857655,25.8351238 16.3132478,26.1943582 15.7171831,26.1746498 C15.4747086,26.083636 15.2405528,25.9714838 15.0173709,25.8394648 C12.5303599,24.0884438 10.0469797,22.3300964 7.56723005,20.5644225 C6.87558685,20.0726347 6.72309859,19.278631 7.16694836,18.64123 C7.4696057,18.1997526 8.01436043,17.9974855 8.5284507,18.1357052 C8.73925415,18.1824819 8.93902263,18.2701976 9.11661972,18.3939624 C11.2950235,19.9343481 13.4734272,21.4783969 15.651831,23.0261089 L16.5368075,23.6525202 C17.1222535,24.0756225 17.3128638,24.6745596 17.0786854,25.2762441 Z M116.24507,11.4622272 C115.188545,11.4622272 114.295399,11.9759944 113.557465,13.0007812 C112.819531,14.0255681 112.087042,15.550385 111.349108,17.5752319 C111.376858,16.9037853 111.453306,16.2352907 111.57784,15.5751117 C112.094091,14.6683587 112.369826,13.6425882 112.378404,12.5969108 C112.378404,11.585861 112.198685,11.0775887 111.833803,11.0775887 C111.46892,11.0775887 110.995117,11.3523305 110.385164,11.8660977 C109.909913,12.2613081 109.464807,12.6920368 109.053615,13.1546366 C109.00097,13.2059218 108.943787,14.6666322 108.882066,17.5367681 C108.820344,20.4069039 108.699624,23.0453408 108.519906,25.4520789 C107.452488,29.6025115 106.918779,32.99832 106.918779,35.6395042 C106.925117,36.0306656 106.989363,36.4186747 107.10939,36.7906723 C107.237371,37.2000376 107.447042,37.4060939 107.738404,37.4060939 C108.029765,37.4060939 108.48723,37.1313521 109.099906,36.5818685 C109.712582,36.032385 110.055681,35.6422516 110.110141,35.4114685 C110.665634,32.847212 110.944288,29.118966 110.946103,24.2267305 C111.786083,24.8894229 112.813074,25.2656101 113.878779,25.3009709 C115.757653,25.3009709 117.275274,24.5069671 118.431643,22.9189596 C119.585624,21.3333195 120.193831,19.4103264 120.163474,17.4433559 C120.163474,15.3791293 119.770454,13.8671336 118.984413,12.907369 C118.198372,11.9476044 117.285258,11.4658904 116.24507,11.4622272 Z M116.413897,22.3584864 C115.629671,23.3970103 114.868138,23.9162723 114.129296,23.9162723 C112.784131,23.9162723 111.755743,23.5572764 111.044131,22.8392845 C111.044131,22.4290035 111.069546,21.8657828 111.120376,21.1496225 C112.668858,16.050415 114.053052,13.5008113 115.272958,13.5008113 C115.982754,13.5008113 116.548232,13.9587143 116.96939,14.8745202 C117.390548,15.7903261 117.599311,17.0083481 117.595681,18.5285859 C117.639696,19.9029656 117.223364,21.2522074 116.413897,22.3584864 Z"/>
</svg>
