<svg xmlns="http://www.w3.org/2000/svg" width="157" height="36" viewBox="0 0 157 36">
  <g fill="none" fill-rule="evenodd">
    <path fill="#58585B" fill-rule="nonzero" d="M55.9695428,7.59071052 C58.7480044,7.59071052 60.9647324,8.96502684 62.0585473,11.2060644 L60.6102887,11.6839657 C59.6938342,9.98105726 57.8908548,8.93505295 55.8808626,8.93505295 C52.511292,8.93505295 49.8805384,11.8035811 49.8805384,15.5682442 C49.8805384,19.3029333 52.6293475,22.3504643 55.910515,22.3504643 C58.0385628,22.3504643 60.2849431,21.0058417 60.7579966,19.4822163 L62.2062552,19.90045 C61.4377858,22.0815398 58.8366847,23.6950868 55.9989181,23.6950868 C51.6835177,23.6950868 48.3729749,19.9900914 48.3729749,15.5682442 C48.3729749,11.1461167 51.5654622,7.59071052 55.9695428,7.59071052 Z M63.5556631,15.6578576 C63.5556631,11.2956779 66.8368306,7.5906825 71.0635508,7.5906825 C75.3196463,7.5906825 78.6008139,11.2956779 78.6008139,15.6578576 C78.6008139,19.9900635 75.3492987,23.6950589 71.0635508,23.6950589 C66.7481504,23.6950589 63.5556631,19.9900635 63.5556631,15.6578576 Z M71.0635508,22.3504363 C74.3444411,22.3504363 77.0932504,19.3328791 77.0932504,15.6278837 C77.0932504,11.9828361 74.3444411,8.93502495 71.0635508,8.93502495 C67.8120357,8.93502495 65.0632265,12.0125298 65.0632265,15.7175252 C65.0632265,19.3925468 67.7530079,22.3504363 71.0635508,22.3504363 Z M93.1827214,23.3962725 L91.7048104,23.3962725 L91.7048104,14.7315807 C91.7048104,10.727687 90.6112726,8.96511088 88.1578793,8.96511088 C85.556501,8.96511088 82.8966491,11.0265853 82.0985274,13.7754981 L82.0985274,23.3962725 L80.6206163,23.3962725 L80.6206163,7.85943894 L81.9801946,7.85943894 L81.9801946,11.5644344 C83.2217175,9.20406151 85.8524712,7.59079456 88.6012804,7.59079456 C91.9414756,7.59079456 93.1827214,10.0705027 93.1827214,14.4626563 L93.1827214,23.3962725 Z M103.46181,22.6494468 C103.166394,22.8287297 101.865566,23.5755556 100.239947,23.5755556 C98.6143284,23.5755556 97.1957222,22.589499 97.1957222,20.796949 L97.1957222,9.08444613 L95.0380221,9.08444613 L95.0380221,7.85943894 L97.1957222,7.85943894 L97.1957222,2.54117657 L98.6736333,2.54117657 L98.6736333,7.85943894 L102.279315,7.85943894 L102.279315,9.08444613 L98.6736333,9.08444613 L98.6736333,20.4381029 C98.6736333,21.6037225 99.6194631,22.1712653 100.624321,22.1712653 C101.836191,22.1712653 102.841049,21.5737487 103.018409,21.4541334 L103.46181,22.6494468 Z M103.352456,15.567992 C103.352456,11.1761186 106.603694,7.59073854 110.889719,7.59073854 C115.234772,7.59073854 118.397607,11.2357862 118.427259,15.567992 C118.427259,15.777249 118.397607,16.135815 118.397607,16.2254565 L104.889672,16.2254565 C105.155713,19.8108364 107.815842,22.4998015 111.008052,22.4998015 C113.165752,22.4998015 115.264147,21.2747943 116.032894,19.5122182 L117.333445,19.8705042 C116.417267,22.0815678 113.816166,23.6951149 110.948747,23.6951149 C106.633347,23.6951149 103.352456,19.9901195 103.352456,15.567992 Z M116.978724,15.0304231 C116.712683,11.3850953 114.141234,8.81546559 110.889719,8.81546559 C107.667857,8.81546559 105.067033,11.4150692 104.86002,15.0304231 L116.978724,15.0304231 Z M120.110992,7.85946696 L125.047153,14.2834013 L125.283542,14.7016349 L125.549582,14.2834013 L130.485744,7.85946696 L132.111363,7.85946696 L126.140691,15.6577176 L132.111363,23.3963005 L130.456092,23.3963005 L125.549582,17.0023402 L125.283542,16.6138002 L125.047153,17.0023402 L120.140367,23.3963005 L118.485096,23.3963005 L124.456044,15.6577176 L118.455443,7.85946696 L120.110992,7.85946696 Z M141.908946,22.6494468 C141.613529,22.8287297 140.312702,23.5755556 138.687084,23.5755556 C137.061465,23.5755556 135.642858,22.589499 135.642858,20.796949 L135.642858,9.08444613 L133.485158,9.08444613 L133.485158,7.85943894 L135.642858,7.85943894 L135.642858,2.54117657 L137.120769,2.54117657 L137.120769,7.85943894 L140.726451,7.85943894 L140.726451,9.08444613 L137.120769,9.08444613 L137.120769,20.4381029 C137.120769,21.6037225 138.066598,22.1712653 139.071456,22.1712653 C140.283327,22.1712653 141.288185,21.5737487 141.465545,21.4541334 L141.908946,22.6494468 Z M142.765292,18.8846716 C142.765292,16.1957067 145.425421,14.2835413 149.179365,14.2835413 C150.834637,14.2835413 152.637615,14.6121335 153.967541,15.1200086 L153.967541,13.596103 C153.967541,10.6681874 152.164839,8.78571582 149.356725,8.78571582 C147.819786,8.78571582 146.105209,9.44318021 144.420564,10.6382135 L143.829454,9.62218309 C145.809794,8.27784066 147.672078,7.5906825 149.445405,7.5906825 C153.140045,7.5906825 155.445729,9.92108149 155.445729,13.7157185 L155.445729,21.3049922 C155.445729,21.8125873 155.652742,22.0518181 156.066491,22.0518181 L156.066491,23.3961605 C155.859478,23.4261344 155.682117,23.4261344 155.53441,23.4261344 C154.824968,23.4261344 154.115526,22.8882854 154.115526,22.0815117 L154.115526,20.796837 C152.696921,22.6493347 150.391235,23.6950589 147.849162,23.6950589 C144.982297,23.6950589 142.765292,21.6036106 142.765292,18.8846716 Z M153.465389,20.1096788 C153.790458,19.721139 153.967541,19.2732115 153.967541,18.9143654 L153.967541,16.1657327 C152.51956,15.6278837 150.952969,15.3292655 149.356725,15.3292655 C146.282571,15.3292655 144.21355,16.7332756 144.21355,18.7950302 C144.21355,20.8864785 145.928127,22.4997455 148.144855,22.4997455 C150.420888,22.4997455 152.51956,21.5739168 153.465389,20.1096788 Z"/>
    <path fill="#00ADEE" fill-rule="nonzero" d="M31.9210704,35.2112669 L25.2672967,28.5001996 L31.9210704,28.5001996 L31.9210704,35.2112669 Z M36.4839074,0 C38.6155537,0 40.3434287,1.74688882 40.3434287,3.90164647 L40.3434287,24.5987493 C40.3434287,26.7535069 38.6155537,28.5001157 36.4839074,28.5001157 L33.6896551,28.5001157 L33.6896551,0 L36.4839074,0 Z M0,24.2394269 L6.65377366,24.2394269 L6.65377366,28.5001996 L3.8597984,28.5001996 C1.72815213,28.5001996 0,26.7535909 0,24.5985532 L0,24.2394269 Z M8.42244148,28.5002557 L8.42244148,22.3189137 L15.0762152,22.3189137 L15.0762152,28.5002557 L8.42244148,28.5002557 Z M16.8448275,28.5002557 L16.8448275,18.0508576 L23.4986013,18.0508576 L23.4986013,28.5002557 L16.8448275,28.5002557 Z M25.2672136,28.5002557 L25.2672136,11.4882591 L31.9209873,11.4882591 L31.9209873,28.5002557 L25.2672136,28.5002557 Z"/>
    <path fill="#A9DDF0" fill-rule="nonzero" d="M6.65380138,-1.77635684e-15 L6.65380138,24.2393428 L2.77125101e-05,24.2393428 L2.77125101e-05,3.90164647 C2.77125101e-05,1.74688882 1.72817984,-1.77635684e-15 3.859549,-1.77635684e-15 L6.65380138,-1.77635684e-15 Z M8.42238605,22.3187737 L8.42238605,-3.55271368e-15 L15.0761598,-3.55271368e-15 L15.0761598,22.3187737 L8.42238605,22.3187737 Z M16.8447721,18.0509976 L16.8447721,-3.55271368e-15 L23.4985458,-3.55271368e-15 L23.4985458,18.0509976 L16.8447721,18.0509976 Z M25.2671582,11.488119 L25.2671582,-3.55271368e-15 L31.9209319,-3.55271368e-15 L31.9209319,11.488119 L25.2671582,11.488119 Z"/>
  </g>
</svg>
