<svg xmlns="http://www.w3.org/2000/svg" width="419" height="420" viewBox="0 0 419 420">
  <g fill="none" fill-rule="evenodd" transform="translate(0 1)">
    <polygon fill="#E6E6E6" points="84 42 335 42 335 0 84 0"/>
    <polygon fill="#E6E6E6" points="84 418 335 418 335 357 84 357"/>
    <polygon fill="#099" points="0 189 126 189 126 63 0 63"/>
    <polygon fill="#FCF765" points="314 210 419 210 419 105 314 105"/>
    <polygon stroke="#404040" stroke-width="2" points="84 418 335 418 335 0 84 0"/>
    <path stroke="#404040" stroke-width="2" d="M189 21L231 21M168 388L252 388"/>
    <g transform="translate(0 62)">
      <path stroke="#404040" stroke-width="2" d="M288.0625,325.004059 C288.0625,327.894095 290.407591,330.237261 293.3,330.237261 C296.192409,330.237261 298.5375,327.894095 298.5375,325.004059 C298.5375,322.114024 296.192409,319.770858 293.3,319.770858 C290.407591,319.770858 288.0625,322.114024 288.0625,325.004059 Z"/>
      <polygon stroke="#404040" stroke-width="2" points="104.75 272.672 142.067 272.672 142.067 235.385 104.75 235.385"/>
      <polygon stroke="#404040" stroke-width="2" points="160.726 272.672 198.043 272.672 198.043 235.385 160.726 235.385"/>
      <polygon fill="#099" points="220.957 272.672 258.274 272.672 258.274 235.385 220.957 235.385"/>
      <polygon stroke="#404040" stroke-width="2" points="276.933 272.672 314.25 272.672 314.25 235.385 276.933 235.385"/>
      <polyline stroke="#404040" stroke-width="2" points="0 167.681 239.616 167.681 239.616 209.874"/>
      <polyline stroke="#404040" stroke-width="2" points="226.522 196.791 239.616 209.874 252.709 196.791"/>
      <polyline stroke="#404040" stroke-width="2" points="419 21.478 293.3 21.478 293.3 209.874"/>
      <polyline stroke="#404040" stroke-width="2" points="306.394 196.791 293.3 209.874 280.206 196.791"/>
      <path stroke="#404040" stroke-width="2" d="M146.65.545692095L210.154688.545692095M146.65 21.4784984L210.154688 21.4784984M146.65 42.4111739L210.154688 42.4111739M146.65 84.2767866L167.6 84.2767866M146.65 102.592992L157.125 102.592992M198.042969 102.592992L208.517969 102.592992M173.164844 102.592992L183.639844 102.592992M20.95 188.940818L104.75 188.940818M20.95 209.873625L104.75 209.873625"/>
    </g>
  </g>
</svg>
