<svg xmlns="http://www.w3.org/2000/svg" width="233" height="24" viewBox="0 0 233 24">
  <g fill="none" fill-rule="evenodd">
    <path fill="#60BFBF" d="M9.24113407,12.218 L13.9818275,0.3592 L18.4826679,0.3592 L10.9988564,18.9864 L7.48341176,18.9864 L0,0.3592 L4.50084044,0.3592 L9.24113407,12.218 Z M34.1150833,0.3592 L34.1150833,4.0636 L24.8471657,4.0636 L24.8471657,7.9012 L33.1832547,7.9012 L33.1832547,11.4452 L24.8471657,11.4452 L24.8471657,15.3092 L34.4081037,15.3092 L34.4081037,18.9864 L20.6929127,18.9864 L20.6929127,0.3592 L34.1150833,0.3592 Z M51.1330493,0.3592 L55.2873022,0.3592 L55.2873022,18.9864 L51.1330493,18.9864 L42.2644868,7.3148 L42.2644868,18.9864 L38.1098341,18.9864 L38.1098341,0.3592 L41.99825,0.3592 L51.1330493,12.3512 L51.1330493,0.3592 Z M67.7508605,3.9568 L67.7508605,18.9864 L63.5962078,18.9864 L63.5962078,3.9568 L58.3230409,3.9568 L58.3230409,0.3592 L73.0240275,0.3592 L73.0240275,3.9568 L67.7508605,3.9568 Z M80.9867453,14.1764 C81.6791208,15.0384 82.6113493,15.4688 83.7830309,15.4688 C84.9551123,15.4688 85.8825436,15.0384 86.5661245,14.1764 C87.2493056,13.3152 87.5914958,12.138 87.5914958,10.6456 L87.5914958,0.3592 L91.7461485,0.3592 L91.7461485,10.7788 C91.7461485,13.4796 91.0002059,15.5532 89.5091201,17.0016 C88.0176346,18.4496 86.1088049,19.1732 83.7830309,19.1732 C81.4568571,19.1732 79.5440299,18.4448 78.0437498,16.988 C76.5434696,15.5316 75.7935294,13.4616 75.7935294,10.7788 L75.7935294,0.3592 L79.9481821,0.3592 L79.9481821,10.6456 C79.9481821,12.138 80.2943699,13.3152 80.9867453,14.1764 Z M111.160645,6.5416 C111.160645,9.5264 109.979769,11.454 107.618417,12.3244 L112.332327,18.9864 L107.219062,18.9864 L103.091193,13.044 L100.214556,13.044 L100.214556,18.9864 L96.0603034,18.9864 L96.0603034,0.3592 L103.117576,0.3592 C106.011402,0.3592 108.075337,0.8484 109.30978,1.8248 C110.543424,2.802 111.160645,4.3744 111.160645,6.5416 Z M128.843803,0.3592 L128.843803,4.0636 L119.575886,4.0636 L119.575886,7.9012 L127.911975,7.9012 L127.911975,11.4452 L119.575886,11.4452 L119.575886,15.3092 L129.136824,15.3092 L129.136824,18.9864 L115.421233,18.9864 L115.421233,0.3592 L128.843803,0.3592 Z M106.153715,8.7536 C106.668599,8.2916 106.926041,7.5588 106.926041,6.5548 C106.926041,5.552 106.659805,4.8632 106.126931,4.4896 C105.594458,4.1168 104.662229,3.9304 103.330646,3.9304 L100.214556,3.9304 L100.214556,9.4464 L103.251095,9.4464 C104.671024,9.4464 105.638431,9.216 106.153715,8.7536 Z"/>
    <path fill="#404040" d="M139.211047,19.484 C137.962206,19.484 136.860026,19.3562013 135.904474,19.1006 C134.948922,18.8449987 134.026497,18.4900023 133.137171,18.0356 L132.853345,13.236 L133.364232,13.236 L135.379396,16.7292 C136.45794,17.6001377 137.621615,18.0356 138.870456,18.0356 C139.892234,18.0356 140.724782,17.7942024 141.368124,17.3114 C142.011466,16.8285976 142.333133,16.1138714 142.333133,15.1672 C142.333133,14.2015952 141.992545,13.4726691 141.311359,12.9804 C140.630173,12.4881309 139.400273,11.844404 137.621621,11.0492 C136.278172,10.4622637 135.246948,9.76647069 134.527918,8.9618 C133.808889,8.15712931 133.449379,7.13947282 133.449379,5.9088 C133.449379,4.88639489 133.780506,3.93973769 134.44277,3.0688 C135.105034,2.19786231 135.956504,1.49733598 136.997204,0.9672 C138.037905,0.437064016 139.125893,0.172 140.261203,0.172 C142.172307,0.172 143.92255,0.607462312 145.511984,1.4784 L145.79581,6.0224 L145.313305,6.0224 L143.326524,2.8132 C142.834556,2.43453144 142.356787,2.14580099 141.893202,1.947 C141.429618,1.74819901 140.904545,1.6488 140.317968,1.6488 C139.542173,1.6488 138.898841,1.89493087 138.387951,2.3872 C137.877062,2.87946913 137.621621,3.5326626 137.621621,4.3468 C137.621621,5.12307055 137.900714,5.76206416 138.458908,6.2638 C139.017102,6.76553584 139.986831,7.32879688 141.368124,7.9536 C143.09001,8.74880398 144.357754,9.56292917 145.171392,10.396 C145.985031,11.2290708 146.391844,12.3271932 146.391844,13.6904 C146.391844,15.5269425 145.644443,16.9516616 144.149619,17.9646 C142.654795,18.9775384 141.00862,19.484 139.211047,19.484 Z M166.365998,23.602 C165.04147,23.602 163.622354,23.3180028 162.108608,22.75 C160.594862,22.1819972 158.768933,21.0649417 156.630766,19.3988 C154.189851,19.0769317 152.188898,18.0356088 150.627847,16.2748 C149.066796,14.5139912 148.286283,12.3650794 148.286283,9.828 C148.286283,7.04478608 149.218169,4.7396758 151.081969,2.9126 C152.945768,1.0855242 155.277849,0.172 158.078279,0.172 C160.897631,0.172 163.239172,1.0855242 165.102972,2.9126 C166.966772,4.7396758 167.898658,7.04478608 167.898658,9.828 C167.898658,12.0432111 167.297899,13.9696585 166.096363,15.6074 C164.894827,17.2451415 163.310148,18.3763969 161.342278,19.0012 C162.912789,20.32654 164.218376,21.2305976 165.259076,21.7134 C166.299777,22.1962024 167.236393,22.4376 168.068953,22.4376 C168.485234,22.4376 168.849473,22.4092003 169.161683,22.3524 C169.473894,22.2955997 169.734065,22.2388003 169.942205,22.182 L169.942205,22.8352 C169.525925,23.0434677 169.024504,23.2233326 168.437927,23.3748 C167.851351,23.5262674 167.160714,23.602 166.365998,23.602 Z M158.5324,18.0072 C159.970459,18.0072 161.134134,17.34454 162.02346,16.0192 C162.912786,14.69386 163.357442,12.9141445 163.357442,10.68 C163.357442,7.93465294 162.813448,5.73840824 161.725443,4.0912 C160.637438,2.44399176 159.298739,1.6204 157.709305,1.6204 C156.290168,1.6204 155.117032,2.27832675 154.189863,3.5942 C153.262693,4.91007325 152.799116,6.6850555 152.799116,8.9192 C152.799116,11.6645471 153.357301,13.865525 154.473689,15.5222 C155.590077,17.1788749 156.942967,18.0072 158.5324,18.0072 Z M179.982449,19.484 C177.50369,19.484 175.498006,18.8592062 173.965338,17.6096 C172.43267,16.3599938 171.666348,14.2016153 171.666348,11.1344 L171.666348,2.0748 L169.225444,0.9104 L169.225444,0.456 L178.393024,0.456 L178.393024,0.9104 L175.95212,2.0748 L175.95212,11.1628 C175.95212,13.5105451 176.477193,15.1293289 177.527354,16.0192 C178.577516,16.9090711 179.85945,17.354 181.373196,17.354 C182.622037,17.354 183.719486,16.9611373 184.665578,16.1754 C185.611669,15.3896627 186.084708,14.0501428 186.084708,12.1568 L186.084708,2.018 L183.416743,0.9104 L183.416743,0.456 L190.512393,0.456 L190.512393,0.9104 L188.071489,2.0464 L188.071489,11.1344 C188.071489,14.2016153 187.324089,16.3599938 185.829264,17.6096 C184.33444,18.8592062 182.385521,19.484 179.982449,19.484 Z M191.101232,19.2 L191.101232,18.7456 L192.83257,17.78 L200.240428,0.314 L202.738097,0.314 L210.060807,17.7232 L211.990824,18.7456 L211.990824,19.2 L203.021923,19.2 L203.021923,18.7456 L205.491209,17.7232 L203.561192,13.0088 L196.834517,13.0088 L194.9045,17.7232 L197.260256,18.7456 L197.260256,19.2 L191.101232,19.2 Z M197.487316,11.4468 L202.908393,11.4468 L200.212046,4.8296 L197.487316,11.4468 Z M212.579663,19.2 L212.579663,18.7456 L214.992184,17.5812 L214.992184,2.0748 L212.579663,0.9104 L212.579663,0.456 L222.258129,0.456 C225.626214,0.456 228.227926,1.26539191 230.063343,2.8842 C231.898761,4.50300809 232.816455,6.53358779 232.816455,8.976 C232.816455,10.9450765 232.348147,12.7011256 231.411517,14.2442 C230.474886,15.7872744 229.197682,16.9989956 227.579866,17.8794 C225.96205,18.7598044 224.12193,19.2 222.059451,19.2 L212.579663,19.2 Z M221.094442,2.018 L219.277956,2.018 L219.277956,17.638 L221.491799,17.638 C223.686731,17.638 225.380209,16.9327404 226.572284,15.5222 C227.764359,14.1116596 228.360388,12.2230785 228.360388,9.8564 C228.360388,7.47078807 227.750168,5.5680071 226.52971,4.148 C225.309252,2.7279929 223.497514,2.018 221.094442,2.018 Z"/>
  </g>
</svg>
