<svg xmlns="http://www.w3.org/2000/svg" width="364" height="32" viewBox="0 0 364 32">
  <g fill="none" fill-rule="evenodd" transform="translate(0 .32)">
    <path fill="#404040" d="M216.378489,29.89888 C214.099799,29.0513024 212.084065,27.8091815 210.331227,26.17248 L214.055989,21.74464 C217.094242,24.3750532 220.395372,25.69024 223.959476,25.69024 C225.537031,25.69024 226.749392,25.3760565 227.596598,24.74768 C228.443803,24.1193035 228.867399,23.3082716 228.867399,22.31456 C228.867399,21.6131165 228.662904,21.0432022 228.253909,20.6048 C227.844913,20.1663978 227.209519,19.7937615 226.347707,19.48688 C225.485894,19.1799985 224.207802,18.8365886 222.513392,18.45664 C220.117846,17.9013306 218.153236,17.2948833 216.619503,16.63728 C215.085769,15.9796767 213.873408,15.0663525 212.982381,13.89728 C212.091355,12.7282075 211.645849,11.2230492 211.645849,9.38176 C211.645849,7.54047079 212.113265,5.91110042 213.048112,4.4936 C213.98296,3.07609958 215.297569,1.97280395 216.991979,1.18368 C218.686389,0.394556054 220.614482,0 222.776316,0 C227.392124,0 231.321344,1.38825278 234.564095,4.1648 L231.189898,8.81184 C229.846055,7.73044793 228.436502,6.90480285 226.961197,6.33488 C225.485891,5.76495715 224.032518,5.48 222.601033,5.48 C221.257191,5.48 220.183593,5.78687693 219.380209,6.40064 C218.576825,7.01440307 218.175139,7.78890199 218.175139,8.72416 C218.175139,9.45483032 218.386937,10.0393578 218.81054,10.47776 C219.234142,10.9161622 219.884143,11.2961051 220.760562,11.6176 C221.636982,11.9390949 222.922377,12.2898114 224.616787,12.66976 C227.012333,13.1958426 228.976943,13.8022899 230.510677,14.48912 C232.04441,15.1759501 233.242165,16.0892743 234.103977,17.22912 C234.965789,18.3689657 235.396689,19.8302844 235.396689,21.61312 C235.396689,23.5128628 234.929272,25.1860728 233.994425,26.6328 C233.059578,28.0795272 231.715756,29.1974361 229.962917,29.98656 C228.210079,30.7756839 226.121311,31.17024 223.696552,31.17024 C221.096508,31.17024 218.657178,30.7464576 216.378489,29.89888 Z M266.975768,24.37504 L269.780295,26.83008 L266.49374,30.64416 L263.426288,27.96992 C262.082446,28.9928584 260.592555,29.7819706 258.956573,30.33728 C257.320591,30.8925894 255.611599,31.17024 253.829547,31.17024 C250.995791,31.17024 248.351967,30.4615004 245.897993,29.044 C243.444019,27.6264996 241.486713,25.7194786 240.026014,23.32288 C238.565315,20.9262814 237.834977,18.3397472 237.834977,15.5632 C237.834977,12.7866528 238.565315,10.2074252 240.026014,7.82544 C241.486713,5.44345476 243.444019,3.54374042 245.897993,2.12624 C248.351967,0.708739579 250.995791,0 253.829547,0 C256.692516,0 259.350947,0.708739579 261.804921,2.12624 C264.258895,3.54374042 266.208898,5.44345476 267.654989,7.82544 C269.101081,10.2074252 269.824116,12.7866528 269.824116,15.5632 C269.824116,18.7489226 268.874676,21.6861732 266.975768,24.37504 Z M258.649828,23.84896 L255.144169,20.78016 L258.430724,16.96608 L262.067845,20.12256 C262.827409,18.7488998 263.207185,17.2291283 263.207185,15.5632 C263.207185,13.8680449 262.776285,12.2752075 261.914473,10.78464 C261.052661,9.29407255 259.906029,8.10309779 258.474545,7.21168 C257.04306,6.32026221 255.494743,5.87456 253.829547,5.87456 C252.193564,5.87456 250.65255,6.32026221 249.206459,7.21168 C247.760367,8.10309779 246.613736,9.29407255 245.766531,10.78464 C244.919326,12.2752075 244.495729,13.8680449 244.495729,15.5632 C244.495729,17.287582 244.919326,18.8950325 245.766531,20.3856 C246.613736,21.8761675 247.760367,23.0671422 249.206459,23.95856 C250.65255,24.8499778 252.193564,25.29568 253.829547,25.29568 C255.582385,25.29568 257.189129,24.8134448 258.649828,23.84896 Z M280.106316,29.43856 C278.032124,28.2841009 276.418077,26.6766503 275.264125,24.61616 C274.110173,22.5556697 273.533206,20.2248663 273.533206,17.62368 L273.533206,0.52608 L279.974854,0.52608 L279.974854,17.36064 C279.974854,18.8804343 280.281596,20.2467673 280.89509,21.45968 C281.508583,22.6725927 282.363079,23.6151433 283.458603,24.28736 C284.554127,24.9595767 285.788399,25.29568 287.161455,25.29568 C288.534512,25.29568 289.76148,24.9595767 290.842397,24.28736 C291.923314,23.6151433 292.770507,22.6725927 293.384,21.45968 C293.997493,20.2467673 294.304236,18.8804343 294.304236,17.36064 L294.304236,0.52608 L300.789705,0.52608 L300.789705,17.62368 C300.789705,20.2248663 300.212737,22.5556697 299.058786,24.61616 C297.904834,26.6766503 296.290786,28.2841009 294.216594,29.43856 C292.142402,30.5930191 289.790713,31.17024 287.161455,31.17024 C284.532198,31.17024 282.180508,30.5930191 280.106316,29.43856 Z M323.620629,25.90944 L310.211483,25.90944 L308.283371,30.64416 L301.052949,30.64416 L313.322756,0.52608 L320.553178,0.52608 L332.822984,30.64416 L325.548742,30.64416 L323.620629,25.90944 Z M321.385772,20.42944 L316.916056,9.4256 L312.446341,20.42944 L321.385772,20.42944 Z M335.547866,0.52608 L346.327768,0.52608 C349.658161,0.52608 352.637941,1.16906024 355.267199,2.45504 C357.896456,3.74101976 359.948707,5.5238286 361.424012,7.80352 C362.899318,10.0832114 363.63696,12.6697455 363.63696,15.5632 C363.63696,18.4566545 362.899318,21.0504952 361.424012,23.3448 C359.948707,25.6391048 357.896456,27.4292202 355.267199,28.7152 C352.637941,30.0011798 349.658161,30.64416 346.327768,30.64416 L335.547866,30.64416 L335.547866,0.52608 Z M347.160362,24.7696 C349.05927,24.7696 350.753655,24.3750439 352.243568,23.58592 C353.73348,22.7967961 354.894718,21.7081136 355.727316,20.31984 C356.559915,18.9315664 356.976207,17.3460356 356.976207,15.5632 C356.976207,13.8095912 356.559915,12.2386736 355.727316,10.8504 C354.894718,9.46212639 353.73348,8.37344395 352.243568,7.58432 C350.753655,6.79519605 349.05927,6.40064 347.160362,6.40064 L341.989515,6.40064 L341.989515,24.7696 L347.160362,24.7696 Z"/>
    <path fill="#60BFBF" d="M32.3397047,0 L20.0698981,30.11808 L12.8394763,30.11808 L0.569669596,0 L7.84391213,0 L16.4765975,21.21856 L25.109283,0 L32.3397047,0 Z M41.734935,5.83072 L41.734935,11.8368 L56.8530896,11.8368 L56.8530896,17.66752 L41.734935,17.66752 L41.734935,24.28736 L58.4306362,24.28736 L58.4306362,30.11808 L35.2494657,30.11808 L35.2494657,0 L58.4306362,0 L58.4306362,5.83072 L41.734935,5.83072 Z M62.9617645,0 L69.403413,0 L83.9080773,19.46496 L83.9080773,0 L90.3935466,0 L90.3935466,30.11808 L83.9080773,30.11808 L69.403413,10.65312 L69.403413,30.11808 L62.9617645,30.11808 L62.9617645,0 Z M103.776464,5.83072 L94.398826,5.83072 L94.398826,0 L119.639571,0 L119.639571,5.83072 L110.261933,5.83072 L110.261933,30.11808 L103.776464,30.11808 L103.776464,5.83072 Z M129.867395,28.91248 C127.793203,27.7580209 126.179156,26.1505703 125.025204,24.09008 C123.871252,22.0295897 123.294285,19.6987863 123.294285,17.0976 L123.294285,0 L129.735933,0 L129.735933,16.83456 C129.735933,18.3543543 130.042675,19.7206873 130.656169,20.9336 C131.269662,22.1465127 132.124158,23.0890633 133.219682,23.76128 C134.315206,24.4334967 135.549478,24.7696 136.922534,24.7696 C138.295591,24.7696 139.522559,24.4334967 140.603476,23.76128 C141.684393,23.0890633 142.531586,22.1465127 143.145079,20.9336 C143.758572,19.7206873 144.065315,18.3543543 144.065315,16.83456 L144.065315,0 L150.550784,0 L150.550784,17.0976 C150.550784,19.6987863 149.973817,22.0295897 148.819865,24.09008 C147.665913,26.1505703 146.051865,27.7580209 143.977673,28.91248 C141.903481,30.0669391 139.551792,30.64416 136.922534,30.64416 C134.293277,30.64416 131.941587,30.0669391 129.867395,28.91248 Z M173.881009,30.11808 L167.001153,20.34176 L162.224692,20.34176 L162.224692,30.11808 L155.783044,30.11808 L155.783044,0 L169.323652,0 C171.485486,0 173.428186,0.431089022 175.15181,1.29328 C176.875435,2.15547098 178.22656,3.36105892 179.205228,4.91008 C180.183897,6.45910108 180.673223,8.21268354 180.673223,10.17088 C180.673223,12.3921178 180.052436,14.3356717 178.810842,16.0016 C177.569248,17.6675283 175.91138,18.8658097 173.837188,19.59648 L181.242893,30.11808 L173.881009,30.11808 Z M162.224692,14.42336 L168.62252,14.42336 C170.229289,14.42336 171.529291,14.0361105 172.522566,13.2616 C173.515841,12.4870895 174.012471,11.4568598 174.012471,10.17088 C174.012471,8.88490024 173.515841,7.85467054 172.522566,7.08016 C171.529291,6.30564946 170.229289,5.9184 168.62252,5.9184 L162.224692,5.9184 L162.224692,14.42336 Z M191.339255,5.83072 L191.339255,11.8368 L206.457409,11.8368 L206.457409,17.66752 L191.339255,17.66752 L191.339255,24.28736 L208.034956,24.28736 L208.034956,30.11808 L184.853786,30.11808 L184.853786,0 L208.034956,0 L208.034956,5.83072 L191.339255,5.83072 Z"/>
  </g>
</svg>
