<?xml version="1.0" encoding="UTF-8"?>
<svg width="234px" height="18px" viewBox="0 0 234 18" version="1.1" xmlns="http://www.w3.org/2000/svg" xmlns:xlink="http://www.w3.org/1999/xlink">
    <!-- Generator: Sketch 46.2 (44496) - http://www.bohemiancoding.com/sketch -->
    <title>logo-white</title>
    <desc>Created with Sketch.</desc>
    <defs></defs>
    <g id="v2" stroke="none" stroke-width="1" fill="none" fill-rule="evenodd">
        <g id="Home--Desktop-2" transform="translate(-60.000000, -3936.000000)" fill="#FFFFFF">
            <g id="Footer" transform="translate(0.000000, 3875.000000)">
                <g id="logo-white" transform="translate(60.000000, 61.000000)">
                    <polyline id="Fill-25" points="8.13440301 11.0938989 12.3073444 0.667497864 16.2691579 0.667497864 9.68161805 17.0447584 6.58718797 17.0447584 0 0.667497864 3.96181353 0.667497864 8.13440301 11.0938989"></polyline>
                    <polyline id="Fill-26" points="30.0294135 0.667497864 30.0294135 3.92445135 21.8714346 3.92445135 21.8714346 7.2985159 29.209182 7.2985159 29.209182 10.4144438 21.8714346 10.4144438 21.8714346 13.8117195 30.2873414 13.8117195 30.2873414 17.0447584 18.2147008 17.0447584 18.2147008 0.667497864 30.0294135 0.667497864"></polyline>
                    <polyline id="Fill-27" points="45.0092842 0.667497864 48.666018 0.667497864 48.666018 17.0447584 45.0092842 17.0447584 37.2028331 6.78294589 37.2028331 17.0447584 33.5457474 17.0447584 33.5457474 0.667497864 36.9684812 0.667497864 45.0092842 11.21101 45.0092842 0.667497864"></polyline>
                    <polyline id="Fill-28" points="59.6369233 3.8305515 59.6369233 17.0447584 55.9798376 17.0447584 55.9798376 3.8305515 51.3381925 3.8305515 51.3381925 0.667497864 64.2785684 0.667497864 64.2785684 3.8305515 59.6369233 3.8305515"></polyline>
                    <path d="M73.7490586,13.9520418 C74.7807699,13.9520418 75.5971308,13.5736289 76.1988451,12.815748 C76.8002075,12.0585705 77.1014165,11.0235619 77.1014165,9.71142572 L77.1014165,0.667497864 L80.7585023,0.667497864 L80.7585023,9.82853678 C80.7585023,12.203113 80.1018947,14.0262473 78.7893835,15.2996981 C77.4765203,16.5727973 75.7962947,17.2089953 73.7490586,17.2089953 C71.7014707,17.2089953 70.0177263,16.5685771 68.6971218,15.2877409 C67.3765173,14.0072563 66.716391,12.1872871 66.716391,9.82853678 L66.716391,0.667497864 L70.3734767,0.667497864 L70.3734767,9.71142572 C70.3734767,11.0235619 70.6782045,12.0585705 71.2876602,12.815748 C71.8971158,13.5736289 72.7176992,13.9520418 73.7490586,13.9520418 Z" id="Fill-29"></path>
                    <path d="M93.4405985,8.04795634 C93.8938195,7.64176032 94.1204301,6.99747366 94.1204301,6.11474466 C94.1204301,5.23307072 93.8860782,4.62746939 93.4170226,4.29899573 C92.9483188,3.97122544 92.1277353,3.80734029 90.9556241,3.80734029 L88.2127218,3.80734029 L88.2127218,8.65707451 L90.8856,8.65707451 C92.1354767,8.65707451 92.9870256,8.45450403 93.4405985,8.04795634 Z M97.8478917,6.10313906 C97.8478917,8.72741149 96.8084391,10.4221808 94.7298857,11.1874471 L98.8792511,17.0447584 L94.3783579,17.0447584 L90.7448481,11.8201281 L88.2127218,11.8201281 L88.2127218,17.0447584 L84.555988,17.0447584 L84.555988,0.667497864 L90.7680722,0.667497864 C93.3153293,0.667497864 95.1320842,1.09760845 96.2186887,1.95607119 C97.3045895,2.8152373 97.8478917,4.19771049 97.8478917,6.10313906 L97.8478917,6.10313906 Z" id="Fill-30"></path>
                    <polyline id="Fill-31" points="113.41329 0.667497864 113.41329 3.92445135 105.255311 3.92445135 105.255311 7.2985159 112.593059 7.2985159 112.593059 10.4144438 105.255311 10.4144438 105.255311 13.8117195 113.671218 13.8117195 113.671218 17.0447584 101.598226 17.0447584 101.598226 0.667497864 113.41329 0.667497864"></polyline>
                    <path d="M120.586358,13.9520418 L123.094908,13.9520418 C124.141398,13.9520418 124.927146,13.8233251 125.450743,13.5655401 C125.973988,13.3077551 126.236138,12.8006255 126.236138,12.0427447 C126.236138,11.2852155 125.958153,10.785823 125.403943,10.5431604 C124.849029,10.3012012 123.962292,10.1802216 122.74338,10.1802216 L120.586358,10.1802216 L120.586358,13.9520418 Z M120.586358,7.2985159 L122.321477,7.2985159 C123.337002,7.2985159 124.09108,7.18914191 124.583359,6.97004224 C125.075991,6.75164594 125.321955,6.27898149 125.321955,5.55275225 C125.321955,4.82617133 125.094992,4.3461215 124.641771,4.11189938 C124.18855,3.87732558 123.42286,3.76021452 122.344701,3.76021452 L120.586358,3.76021452 L120.586358,7.2985159 Z M124.102692,17.0447584 L116.929624,17.0447584 L116.929624,0.667497864 L123.305684,0.667497864 C124.415513,0.667497864 125.372274,0.800434741 126.177726,1.06595681 C126.982475,1.33183056 127.587708,1.69090081 127.994481,2.14351922 C128.728854,2.9872112 129.095865,3.94027717 129.095865,5.00201376 C129.095865,6.28320171 128.682054,7.23591599 127.853729,7.86050831 C127.572226,8.07925629 127.376932,8.2160617 127.267498,8.27057285 C127.158063,8.32543569 126.96277,8.41511533 126.681618,8.53996346 C127.697143,8.75906312 128.506114,9.21590176 129.107829,9.91047935 C129.709543,10.6057603 130.0104,11.468795 130.0104,12.4995833 C130.0104,13.6400973 129.619462,14.6473227 128.838289,15.521963 C127.931847,16.5376289 126.353666,17.0447584 124.102692,17.0447584 L124.102692,17.0447584 Z" id="Fill-32"></path>
                    <path d="M137.418171,12.815748 C138.027627,13.5736289 138.848211,13.9520418 139.87957,13.9520418 C140.911281,13.9520418 141.727642,13.5736289 142.329356,12.815748 C142.931071,12.0585705 143.231928,11.0235619 143.231928,9.71142572 L143.231928,0.667497864 L146.889014,0.667497864 L146.889014,9.82853678 C146.889014,12.203113 146.232758,14.0262473 144.919895,15.2996981 C143.607032,16.5727973 141.926806,17.2089953 139.87957,17.2089953 C137.832334,17.2089953 136.148238,16.5685771 134.827985,15.2877409 C133.507029,14.0072563 132.846902,12.1872871 132.846902,9.82853678 L132.846902,0.667497864 L136.503988,0.667497864 L136.503988,9.71142572 C136.503988,11.0235619 136.808716,12.0585705 137.418171,12.815748" id="Fill-33"></path>
                    <polygon id="Fill-34" points="150.686499 17.0447584 154.343233 17.0447584 154.343233 0.667497864 150.686499 0.667497864"></polygon>
                    <polyline id="Fill-35" points="158.375071 17.0447584 158.375071 0.667497864 162.032156 0.667497864 162.032156 13.7881566 169.018376 13.7881566 169.018376 17.0447584 158.375071 17.0447584"></polyline>
                    <path d="M181.524884,12.5463574 C182.423233,11.7030171 182.872935,10.4770437 182.872935,8.86773374 C182.872935,7.25947888 182.423233,6.02154817 181.524884,5.15429331 C180.625832,4.28739013 179.246815,3.85411438 177.387131,3.85411438 L175.347636,3.85411438 L175.347636,13.8117195 L177.668635,13.8117195 C179.340767,13.8117195 180.625832,13.3900494 181.524884,12.5463574 Z M184.209023,2.81136877 C185.771368,4.24061604 186.553245,6.22869056 186.553245,8.77418557 C186.553245,11.320384 185.791426,13.3355382 184.267786,14.8189449 C182.743444,16.3030551 180.418926,17.0447584 177.293179,17.0447584 L171.69055,17.0447584 L171.69055,0.667497864 L177.480731,0.667497864 C180.403092,0.667497864 182.645973,1.3821215 184.209023,2.81136877 L184.209023,2.81136877 Z" id="Fill-36"></path>
                    <polyline id="Fill-37" points="201.533116 0.667497864 201.533116 3.92445135 193.374433 3.92445135 193.374433 7.2985159 200.712532 7.2985159 200.712532 10.4144438 193.374433 10.4144438 193.374433 13.8117195 201.790692 13.8117195 201.790692 17.0447584 189.717699 17.0447584 189.717699 0.667497864 201.533116 0.667497864"></polyline>
                    <path d="M213.933708,8.04795634 C214.386929,7.64176032 214.613892,6.99747366 214.613892,6.11474466 C214.613892,5.23307072 214.379188,4.62746939 213.910484,4.29899573 C213.44178,3.97122544 212.621197,3.80734029 211.449086,3.80734029 L208.706183,3.80734029 L208.706183,8.65707451 L211.378358,8.65707451 C212.628586,8.65707451 213.480487,8.45450403 213.933708,8.04795634 Z M218.341353,6.10313906 C218.341353,8.72741149 217.301197,10.4221808 215.222995,11.1874471 L219.372361,17.0447584 L214.871468,17.0447584 L211.237958,11.8201281 L208.706183,11.8201281 L208.706183,17.0447584 L205.049098,17.0447584 L205.049098,0.667497864 L211.261182,0.667497864 C213.808791,0.667497864 215.625546,1.09760845 216.711798,1.95607119 C217.798051,2.8152373 218.341353,4.19771049 218.341353,6.10313906 L218.341353,6.10313906 Z" id="Fill-38"></path>
                    <path d="M225.924361,3.93605695 C225.572833,4.22514191 225.396893,4.60777504 225.396893,5.08430802 C225.396893,5.56084101 225.611892,5.93925392 226.041537,6.22025012 C226.471182,6.50159801 227.463483,6.83358851 229.018791,7.21622164 C230.573747,7.59920645 231.781047,8.17315615 232.640689,8.9384224 C233.499979,9.70368866 233.929976,10.8206398 233.929976,12.2885724 C233.929976,13.7572084 233.379284,14.9480133 232.277197,15.8616906 C231.175462,16.7753678 229.725717,17.2325581 227.92902,17.2325581 C225.334611,17.2325581 222.997777,16.2717551 220.919576,14.3505007 L223.099471,11.6798059 C224.865555,13.2258125 226.498629,13.9988159 227.999044,13.9988159 C228.670782,13.9988159 229.19825,13.8546251 229.581447,13.5655401 C229.964292,13.2768068 230.156066,12.886085 230.156066,12.3940778 C230.156066,11.9020707 229.95268,11.5117005 229.546259,11.2226156 C229.139838,10.9335306 228.335089,10.6409288 227.13166,10.3441068 C225.224824,9.89148837 223.829973,9.30136118 222.947107,8.57513194 C222.064241,7.84890271 221.622983,6.70874039 221.622983,5.15429331 C221.622983,3.6005496 222.181417,2.40165591 223.298635,1.55796393 C224.415853,0.714623636 225.810704,0.292953488 227.483188,0.292953488 C228.57683,0.292953488 229.671176,0.480401519 230.76517,0.854945895 C231.859164,1.23019364 232.812406,1.76088609 233.625248,2.44843 L231.773305,5.11912482 C230.351008,4.04156241 228.88191,3.50278121 227.366012,3.50278121 C226.756908,3.50278121 226.275889,3.64732368 225.924361,3.93605695" id="Fill-40"></path>
                </g>
            </g>
        </g>
    </g>
</svg>