<svg xmlns="http://www.w3.org/2000/svg" width="469" height="469" viewBox="0 0 469 469">
  <g fill="none" fill-rule="evenodd" transform="translate(1 1)">
    <polygon fill="#E6E6E6" points="116.75 303.55 350.25 303.55 350.25 163.45 116.75 163.45"/>
    <path stroke="#404040" stroke-width="2" d="M70.05 233.5C70.05 252.842556 54.3690156 268.525 35.025 268.525 15.6809844 268.525 0 252.842556 0 233.5 0 214.154525 15.6809844 198.475 35.025 198.475 54.3690156 198.475 70.05 214.154525 70.05 233.5zM467 233.5C467 252.842556 451.319016 268.525 431.975 268.525 412.630984 268.525 396.95 252.842556 396.95 233.5 396.95 214.154525 412.630984 198.475 431.975 198.475 451.319016 198.475 467 214.154525 467 233.5zM268.525 431.975C268.525 451.317556 252.844016 467 233.5 467 214.155984 467 198.475 451.317556 198.475 431.975 198.475 412.629525 214.155984 396.95 233.5 396.95 252.844016 396.95 268.525 412.629525 268.525 431.975z"/>
    <path fill="#FCF765" d="M128.425,431.975 C128.425,451.317556 112.744016,467 93.4,467 C74.0559844,467 58.375,451.317556 58.375,431.975 C58.375,412.629525 74.0559844,396.95 93.4,396.95 C112.744016,396.95 128.425,412.629525 128.425,431.975"/>
    <path fill="#099" d="M408.625,431.975 C408.625,451.317556 392.944016,467 373.6,467 C354.255984,467 338.575,451.317556 338.575,431.975 C338.575,412.629525 354.255984,396.95 373.6,396.95 C392.944016,396.95 408.625,412.629525 408.625,431.975"/>
    <path stroke="#404040" stroke-width="2" d="M198.475,35.025 C198.475,15.679525 214.155984,0 233.5,0 C252.844016,0 268.525,15.679525 268.525,35.025 C268.525,54.3675563 252.844016,70.05 233.5,70.05 C214.155984,70.05 198.475,54.3675563 198.475,35.025 Z"/>
    <path fill="#E6E6E6" d="M338.575,35.025 C338.575,15.679525 354.255984,0 373.6,0 C392.944016,0 408.625,15.679525 408.625,35.025 C408.625,54.3675563 392.944016,70.05 373.6,70.05 C354.255984,70.05 338.575,54.3675563 338.575,35.025"/>
    <path fill="#60BFBF" d="M58.375,35.025 C58.375,15.679525 74.0559844,0 93.4,0 C112.744016,0 128.425,15.679525 128.425,35.025 C128.425,54.3675563 112.744016,70.05 93.4,70.05 C74.0559844,70.05 58.375,54.3675563 58.375,35.025"/>
    <path stroke="#404040" stroke-width="2" d="M233.5,163.45 L233.5,93.4"/>
    <polyline stroke="#404040" stroke-width="2" points="217.931 108.969 233.5 93.4 249.069 108.969"/>
    <path stroke="#404040" stroke-width="2" d="M233.5,303.547227 L233.5,373.597227"/>
    <polyline stroke="#404040" stroke-width="2" points="249.069 358.032 233.5 373.597 217.931 358.032"/>
    <polyline stroke="#404040" stroke-width="2" points="93.4 373.597 93.4 280.2 116.75 280.2"/>
    <polyline stroke="#404040" stroke-width="2" points="108.969 358.032 93.4 373.597 77.831 358.032"/>
    <polyline stroke="#404040" stroke-width="2" points="93.403 93.4 93.403 186.797 116.753 186.797"/>
    <polyline stroke="#404040" stroke-width="2" points="108.97 108.966 93.403 93.4 77.834 108.966"/>
    <polyline stroke="#404040" stroke-width="2" points="373.601 93.4 373.601 186.797 350.251 186.797"/>
    <polyline stroke="#404040" stroke-width="2" points="358.033 108.966 373.601 93.4 389.17 108.966"/>
    <polyline stroke="#404040" stroke-width="2" points="373.6 373.597 373.6 280.2 350.25 280.2"/>
    <polyline stroke="#404040" stroke-width="2" points="358.033 358.032 373.6 373.597 389.169 358.032"/>
    <path stroke="#404040" stroke-width="2" d="M350.054736,233.5 L440.050014,233.5"/>
    <polyline stroke="#404040" stroke-width="2" points="424.483 217.932 440.05 233.5 424.483 249.069"/>
    <path stroke="#404040" stroke-width="2" d="M116.551963,233.5 L26.5566847,233.5"/>
    <polyline stroke="#404040" stroke-width="2" points="42.124 249.069 26.557 233.5 42.124 217.931"/>
  </g>
</svg>
