<svg xmlns="http://www.w3.org/2000/svg" xmlns:xlink="http://www.w3.org/1999/xlink" width="438" height="479" viewBox="0 0 438 479">
  <defs>
    <polygon id="tech-a" points="0 .247 32.826 .247 32.826 33.064 0 33.064"/>
  </defs>
  <g fill="none" fill-rule="evenodd">
    <polygon stroke="#404040" stroke-width="2" points="218 12 16 124.25 16 348.75 218 461 420 348.75 420 124.25"/>
    <polygon stroke="#404040" stroke-width="2" points="218 461 16 124 420 348.667 16 348.667 420 124"/>
    <polygon stroke="#404040" stroke-width="2" points="218 12 218 461 16 348.75"/>
    <path stroke="#404040" stroke-width="2" d="M421 349L219 12M16 124L420 124"/>
    <g transform="translate(0 107.07)">
      <mask id="tech-b" fill="#fff">
        <use xlink:href="#tech-a"/>
      </mask>
      <path fill="#099" d="M32.8258538,16.6557193 C32.8258538,25.7181754 25.4781231,33.0641404 16.4134885,33.0641404 C7.34885385,33.0641404 -0.000280769231,25.7181754 -0.000280769231,16.6557193 C-0.000280769231,7.59326316 7.34885385,0.247298246 16.4134885,0.247298246 C25.4781231,0.247298246 32.8258538,7.59326316 32.8258538,16.6557193" mask="url(#tech-b)"/>
    </g>
    <path fill="#E6E6E6" d="M437.133546,123.725895 C437.133546,132.788351 429.785815,140.134316 420.721181,140.134316 C411.656546,140.134316 404.307412,132.788351 404.307412,123.725895 C404.307412,114.663439 411.656546,107.317474 420.721181,107.317474 C429.785815,107.317474 437.133546,114.663439 437.133546,123.725895"/>
    <path fill="#099" d="M234.9797 462.591018C234.9797 471.653474 227.631969 478.999439 218.567335 478.999439 209.5027 478.999439 202.153565 471.653474 202.153565 462.591018 202.153565 453.528561 209.5027 446.182596 218.567335 446.182596 227.631969 446.182596 234.9797 453.528561 234.9797 462.591018M235.681623 236.006596C235.681623 245.069053 228.333892 252.415018 219.269258 252.415018 210.204623 252.415018 202.855488 245.069053 202.855488 236.006596 202.855488 226.94414 210.204623 219.598175 219.269258 219.598175 228.333892 219.598175 235.681623 226.94414 235.681623 236.006596"/>
    <path fill="#60BFBF" d="M228.903713 10.7434386C228.903713 16.5567719 224.191002 21.2697544 218.374867 21.2697544 212.558733 21.2697544 207.846021 16.5567719 207.846021 10.7434386 207.846021 4.93010526 212.558733.217122807 218.374867.217122807 224.191002.217122807 228.903713 4.93010526 228.903713 10.7434386M431.249465 348.287298C431.249465 354.102035 426.536754 358.813614 420.720619 358.813614 414.904485 358.813614 410.191773 354.102035 410.191773 348.287298 410.191773 342.472561 414.904485 337.760982 420.720619 337.760982 426.536754 337.760982 431.249465 342.472561 431.249465 348.287298M26.9417731 348.287298C26.9417731 354.102035 22.2290615 358.813614 16.4129269 358.813614 10.5967923 358.813614 5.88408077 354.102035 5.88408077 348.287298 5.88408077 342.472561 10.5967923 337.760982 16.4129269 337.760982 22.2290615 337.760982 26.9417731 342.472561 26.9417731 348.287298"/>
    <path fill="#FCF765" d="M93.6244654 236.006596C93.6244654 241.821333 88.9117538 246.532912 83.0956192 246.532912 77.2794846 246.532912 72.5667731 241.821333 72.5667731 236.006596 72.5667731 230.19186 77.2794846 225.480281 83.0956192 225.480281 88.9117538 225.480281 93.6244654 230.19186 93.6244654 236.006596M295.778312 348.287298C295.778312 354.102035 291.0656 358.813614 285.249465 358.813614 279.433331 358.813614 274.720619 354.102035 274.720619 348.287298 274.720619 342.472561 279.433331 337.760982 285.249465 337.760982 291.0656 337.760982 295.778312 342.472561 295.778312 348.287298"/>
    <path fill="#9D9E9D" d="M162.412927,348.287298 C162.412927,354.102035 157.700215,358.813614 151.884081,358.813614 C146.067946,358.813614 141.355235,354.102035 141.355235,348.287298 C141.355235,342.472561 146.067946,337.760982 151.884081,337.760982 C157.700215,337.760982 162.412927,342.472561 162.412927,348.287298"/>
    <path fill="#E6E6E6" d="M229.797542,123.725895 C229.797542,129.540632 225.084831,134.252211 219.268696,134.252211 C213.452562,134.252211 208.73985,129.540632 208.73985,123.725895 C208.73985,117.911158 213.452562,113.199579 219.268696,113.199579 C225.084831,113.199579 229.797542,117.911158 229.797542,123.725895"/>
    <path fill="#099" d="M330.172542,179.866246 C330.172542,185.680982 325.459831,190.392561 319.643696,190.392561 C313.827562,190.392561 309.11485,185.680982 309.11485,179.866246 C309.11485,174.051509 313.827562,169.33993 319.643696,169.33993 C325.459831,169.33993 330.172542,174.051509 330.172542,179.866246"/>
    <path fill="#E6E6E6" d="M330.172542,292.146947 C330.172542,297.961684 325.459831,302.673263 319.643696,302.673263 C313.827562,302.673263 309.11485,297.961684 309.11485,292.146947 C309.11485,286.332211 313.827562,281.620632 319.643696,281.620632 C325.459831,281.620632 330.172542,286.332211 330.172542,292.146947"/>
  </g>
</svg>
