<svg xmlns="http://www.w3.org/2000/svg" width="241" height="40" viewBox="0 0 241 40">
  <g fill="none" fill-rule="evenodd" transform="translate(-2 -2)">
    <g transform="translate(47.308 15.253)">
      <polyline fill="#60BFBF" points="6.793 9.253 10.277 .557 13.586 .557 8.085 14.217 5.501 14.217 0 .557 3.308 .557 6.793 9.253"/>
      <polyline fill="#60BFBF" points="25.076 .557 25.076 3.273 18.264 3.273 18.264 6.088 24.391 6.088 24.391 8.686 18.264 8.686 18.264 11.52 25.292 11.52 25.292 14.217 15.21 14.217 15.21 .557 25.076 .557"/>
      <polyline fill="#60BFBF" points="37.585 .557 40.639 .557 40.639 14.217 37.585 14.217 31.066 5.658 31.066 14.217 28.013 14.217 28.013 .557 30.871 .557 37.585 9.351 37.585 .557"/>
      <polyline fill="#60BFBF" points="49.8 3.195 49.8 14.217 46.746 14.217 46.746 3.195 42.87 3.195 42.87 .557 53.676 .557 53.676 3.195 49.8 3.195"/>
      <path fill="#60BFBF" d="M59.529109 10.68936C60.0380379 11.3214933 60.7232701 11.63712 61.5845118 11.63712 62.4460474 11.63712 63.1277536 11.3214933 63.630218 10.68936 64.1323886 10.0578133 64.3839147 9.19453333 64.3839147 8.10010667L64.3839147.556746667 67.437782.556746667 67.437782 8.19778667C67.437782 10.1783733 66.8894787 11.6990133 65.7934597 12.7611733 64.6971469 13.82304 63.2940664 14.35368 61.5845118 14.35368 59.8746635 14.35368 58.4686445 13.81952 57.3658673 12.7512 56.26309 11.6831733 55.7118483 10.1651733 55.7118483 8.19778667L55.7118483.556746667 58.7657156.556746667 58.7657156 8.10010667C58.7657156 9.19453333 59.0201801 10.0578133 59.529109 10.68936M78.0280284 6.71264C78.4064929 6.37384 78.5957251 5.83645333 78.5957251 5.10018667 78.5957251 4.3648 78.4000284 3.85968 78.0083412 3.58570667 77.6169479 3.31232 76.9317156 3.17562667 75.9529384 3.17562667L73.6624645 3.17562667 73.6624645 7.22069333 75.8944645 7.22069333C76.9381801 7.22069333 77.6492701 7.05173333 78.0280284 6.71264zM81.7083602 5.09050667C81.7083602 7.27936 80.8403602 8.69293333 79.104654 9.33122667L82.5696019 14.2166933 78.811109 14.2166933 75.7769289 9.85893333 73.6624645 9.85893333 73.6624645 14.2166933 70.608891 14.2166933 70.608891.556746667 75.7963223.556746667C77.9234218.556746667 79.4405118.915493333 80.3478863 1.63152 81.254673 2.34813333 81.7083602 3.50122667 81.7083602 5.09050667z"/>
      <polyline fill="#60BFBF" points="94.706 .557 94.706 3.273 87.894 3.273 87.894 6.088 94.021 6.088 94.021 8.686 87.894 8.686 87.894 11.52 94.922 11.52 94.922 14.217 84.84 14.217 84.84 .557 94.706 .557"/>
      <path fill="#9E9F9E" d="M100.696227 11.63712L102.791005 11.63712C103.664882 11.63712 104.321024 11.52976 104.758256 11.3147467 105.195194 11.0997333 105.414104 10.6767467 105.414104 10.0446133 105.414104 9.41277333 105.181972 8.99624 104.719175 8.79384 104.255791 8.59202667 103.515318 8.49112 102.49746 8.49112L100.696227 8.49112 100.696227 11.63712zM100.696227 6.08754667L102.145147 6.08754667C102.993166 6.08754667 103.622863 5.99632 104.033943 5.81357333 104.445318 5.63141333 104.650711 5.23717333 104.650711 4.63144 104.650711 4.02541333 104.461185 3.62501333 104.08272 3.42965333 103.704256 3.234 103.064863 3.13632 102.16454 3.13632L100.696227 3.13632 100.696227 6.08754667zM103.632559 14.2166933L97.642654 14.2166933 97.642654.556746667 102.967014.556746667C103.893782.556746667 104.69273.667626667 105.365327.889093333 106.037336 1.11085333 106.542739 1.41034667 106.882417 1.78786667 107.495659 2.49157333 107.802133 3.28650667 107.802133 4.17208 107.802133 5.24069333 107.456578 6.03533333 106.764882 6.55629333 106.52981 6.73874667 106.36673 6.85285333 106.275346 6.89832 106.183962 6.94408 106.020882 7.01888 105.786104 7.12301333 106.634123 7.30576 107.309659 7.6868 107.812123 8.26613333 108.314588 8.84605333 108.56582 9.56589333 108.56582 10.4256533 108.56582 11.3769333 108.239365 12.21704 107.587043 12.94656 106.830114 13.7937067 105.512246 14.2166933 103.632559 14.2166933zM114.751716 10.68936C115.260645 11.3214933 115.945877 11.63712 116.807118 11.63712 117.668654 11.63712 118.35036 11.3214933 118.852825 10.68936 119.355289 10.0578133 119.606521 9.19453333 119.606521 8.10010667L119.606521.556746667 122.660389.556746667 122.660389 8.19778667C122.660389 10.1783733 122.112379 11.6990133 121.016066 12.7611733 119.919754 13.82304 118.516673 14.35368 116.807118 14.35368 115.097564 14.35368 113.691251 13.81952 112.588768 12.7512 111.485697 11.6831733 110.934455 10.1651733 110.934455 8.19778667L110.934455.556746667 113.988322.556746667 113.988322 8.10010667C113.988322 9.19453333 114.242787 10.0578133 114.751716 10.68936"/>
      <polygon fill="#9E9F9E" points="125.831 14.217 128.885 14.217 128.885 .557 125.831 .557"/>
      <polyline fill="#9E9F9E" points="132.252 14.217 132.252 .557 135.306 .557 135.306 11.5 141.14 11.5 141.14 14.217 132.252 14.217"/>
      <path fill="#9E9F9E" d="M151.583242,10.4646667 C152.333412,9.76125333 152.708938,8.73869333 152.708938,7.3964 C152.708938,6.05498667 152.333412,5.02245333 151.583242,4.29909333 C150.832483,3.57602667 149.680929,3.21464 148.127991,3.21464 L146.4249,3.21464 L146.4249,11.52008 L148.363062,11.52008 C149.759384,11.52008 150.832483,11.1683733 151.583242,10.4646667 Z M153.824645,2.34490667 C155.129289,3.53701333 155.782199,5.19522667 155.782199,7.31837333 C155.782199,9.44210667 155.146038,11.1229067 153.873716,12.3601867 C152.600806,13.5980533 150.659706,14.2166933 148.049536,14.2166933 L143.371033,14.2166933 L143.371033,0.556746667 L148.206152,0.556746667 C150.646483,0.556746667 152.519412,1.1528 153.824645,2.34490667 Z"/>
      <polyline fill="#9E9F9E" points="168.291 .557 168.291 3.273 161.478 3.273 161.478 6.088 167.606 6.088 167.606 8.686 161.478 8.686 161.478 11.52 168.506 11.52 168.506 14.217 158.425 14.217 158.425 .557 168.291 .557"/>
      <path fill="#9E9F9E" d="M178.646389 6.71264C179.024853 6.37384 179.214379 5.83645333 179.214379 5.10018667 179.214379 4.3648 179.018389 3.85968 178.626995 3.58570667 178.235602 3.31232 177.55037 3.17562667 176.571592 3.17562667L174.281118 3.17562667 174.281118 7.22069333 176.512531 7.22069333C177.55654 7.22069333 178.267924 7.05173333 178.646389 6.71264zM182.327014 5.09050667C182.327014 7.27936 181.458427 8.69293333 179.723014 9.33122667L183.187962 14.2166933 179.429469 14.2166933 176.395289 9.85893333 174.281118 9.85893333 174.281118 14.2166933 171.227251 14.2166933 171.227251.556746667 176.414682.556746667C178.542076.556746667 180.059166.915493333 180.966246 1.63152 181.873327 2.34813333 182.327014 3.50122667 182.327014 5.09050667zM188.659242 3.28298667C188.365697 3.52410667 188.218777 3.84325333 188.218777 4.24072 188.218777 4.63818667 188.398313 4.95381333 188.75709 5.18818667 189.115867 5.42285333 189.944493 5.69976 191.243261 6.01890667 192.541735 6.33834667 193.549896 6.81706667 194.267744 7.45536 194.985299 8.09365333 195.34437 9.02528 195.34437 10.2496533 195.34437 11.4746133 194.884512 12.46784 193.964209 13.22992 193.044199 13.992 191.833583 14.3733333 190.333242 14.3733333 188.166768 14.3733333 186.215384 13.5719467 184.479972 11.9694667L186.300303 9.74189333C187.775081 11.0313867 189.138787 11.6761333 190.391716 11.6761333 190.952654 11.6761333 191.393118 11.5558667 191.713109 11.3147467 192.032806 11.07392 192.192948 10.7480267 192.192948 10.3376533 192.192948 9.92728 192.023109 9.60168 191.683725 9.36056 191.344341 9.11944 190.672332 8.87538667 189.667403 8.62781333 188.07509 8.25029333 186.910313 7.75808 186.173071 7.15234667 185.435829 6.54661333 185.067355 5.59562667 185.067355 4.29909333 185.067355 3.00314667 185.533678 2.00317333 186.466616 1.29946667 187.399555.596053333 188.564332.244346667 189.960948.244346667 190.874199.244346667 191.788038.400693333 192.701583.713093333 193.615128 1.02608 194.411137 1.46872 195.089905 2.04218667L193.543431 4.26976C192.355735 3.37098667 191.128957 2.9216 189.8631 2.9216 189.354464 2.9216 188.952787 3.04216 188.659242 3.28298667"/>
    </g>
    <g transform="translate(2.938 2.347)">
      <path fill="#9E9F9E" fill-rule="nonzero" d="M8.09591821,22.3848987 L9.79313213,20.6962056 L10.4867671,21.3863582 L14.2310451,25.0227246 L14.2310451,33.8452334 L11.488857,35.96729 C11.2444734,36.1564076 11.2004449,36.5068351 11.3905167,36.7499918 C11.5805885,36.9931485 11.9327843,37.0369559 12.1771679,36.8478383 L15.1357766,34.5583036 C15.2723282,34.4526324 15.3521971,34.2901515 15.3521971,34.1180294 L15.3521971,24.7877274 C15.3521971,24.6374575 15.2912569,24.4935447 15.1831783,24.3885826 L11.2747114,20.5928164 L10.1895192,19.5130146 C9.97060067,19.2951952 9.61566359,19.2951952 9.39674505,19.5130146 L7.13895514,21.7594692 C7.03382675,21.8640698 6.97476623,22.0059387 6.97476623,22.1538662 L6.97476623,24.928536 L4.63196767,27.2595725 C4.41304913,27.4773919 4.41304913,27.830547 4.63196767,28.0483665 C4.85088621,28.266186 5.2058233,28.266186 5.42474184,28.0483665 L7.9317293,25.5539654 C8.03685769,25.4493648 8.09591821,25.307496 8.09591821,25.1595684 L8.09591821,22.3848987 Z M14.0286215,13.9256323 L17.2045015,10.7656968 C17.4234165,10.5478809 17.4234206,10.1947328 17.2045107,9.97691191 L13.7710519,6.56053367 C13.6659227,6.45592752 13.5233341,6.39716 13.3746557,6.39716 L9.79329015,6.39716 C9.48369258,6.39716 9.23271417,6.64687837 9.23271417,6.9549216 C9.23271417,7.26296483 9.48369258,7.5126832 9.79329015,7.5126832 L13.1424499,7.5126832 L16.0153494,10.3712908 L13.0716584,13.3002029 C12.96653,13.4048035 12.9074695,13.5466723 12.9074695,13.6945999 L12.9074695,19.1327558 C12.9074695,19.2780267 12.9644332,19.4175655 13.0662437,19.5216907 L16.2552815,22.7832319 L16.2552815,34.7236088 L13.4610091,37.5040009 C13.2420964,37.7218262 13.2421059,38.0749813 13.4610303,38.292795 C13.6799547,38.5106086 14.0348918,38.5105992 14.2538045,38.2927739 L17.2122551,35.349019 C17.317377,35.2444193 17.3764334,35.1025549 17.3764334,34.9546325 L17.3764334,22.556681 C17.3764334,22.4114101 17.3194697,22.2718713 17.2176592,22.1677461 L14.0286215,18.9062049 L14.0286215,13.9256323 Z M21.1760246,25.2939206 L24.8532999,21.5497228 L27.3280719,21.5497228 L29.5611984,23.7716379 L29.5611984,27.3286675 C29.5611984,27.6367107 29.8121768,27.8864291 30.1217744,27.8864291 C30.431372,27.8864291 30.6823504,27.6367107 30.6823504,27.3286675 L30.6823504,23.5406054 C30.6823504,23.3926779 30.6232899,23.250809 30.5181615,23.1462084 L27.9566571,20.5975642 C27.8515287,20.4929636 27.708944,20.4341996 27.56027,20.4341996 L24.6173054,20.4341996 C24.4663897,20.4341996 24.3218488,20.4947438 24.2163731,20.602139 L20.2145164,24.6768253 C20.1121723,24.7810319 20.0548726,24.9209477 20.0548726,25.0666475 L20.0548726,34.1180294 C20.0548726,34.2901464 20.1347368,34.4526231 20.2712817,34.5582947 L23.2297323,36.8478295 C23.474111,37.0369533 23.8263079,36.993155 24.016386,36.7500032 C24.2064642,36.5068514 24.1624449,36.1564227 23.9180661,35.9672989 L21.1760246,33.8452424 L21.1760246,25.2939206 Z M3.95381868,22.6806542 L7.53534222,22.6806542 C7.84493979,22.6806542 8.09591821,22.4309358 8.09591821,22.1228926 C8.09591821,21.8148494 7.84493979,21.565131 7.53534222,21.565131 L3.95381868,21.565131 C3.64422111,21.565131 3.3932427,21.8148494 3.3932427,22.1228926 C3.3932427,22.4309358 3.64422111,22.6806542 3.95381868,22.6806542 Z M2.20920727,15.8023226 C1.99029681,15.5844951 1.63535973,15.5844821 1.41643311,15.8022935 C1.19750649,16.0201049 1.19749339,16.37326 1.41640385,16.5910875 L3.55741697,18.7215089 C3.66254655,18.8261183 3.80513752,18.884888 3.95381868,18.884888 L7.97267483,18.884888 L9.39674505,20.3018086 C9.61566359,20.5196281 9.97060067,20.5196281 10.1895192,20.3018086 C10.4084378,20.0839892 10.4084378,19.7308341 10.1895192,19.5130146 L8.60126009,17.9327294 C8.4961317,17.8281288 8.353547,17.7693648 8.20487301,17.7693648 L4.18602898,17.7693648 L2.20920727,15.8023226 Z M22.7768463,7.64098016 C22.9255203,7.64098016 23.068105,7.58221616 23.1732334,7.47761557 L26.273902,4.39251392 C26.4928206,4.17469446 26.4928206,3.82153935 26.273902,3.6037199 C26.0549835,3.38590044 25.7000464,3.38590044 25.4811279,3.6037199 L22.5446481,6.52545696 L20.1015675,6.52545696 C19.9528982,6.52545696 19.8103176,6.58421729 19.7051899,6.68881209 L16.4117369,9.96557305 C16.1928131,10.1833873 16.1928046,10.5365424 16.4117179,10.7543671 C16.6306312,10.9721917 16.9855682,10.9722002 17.204492,10.754386 L20.3337578,7.64098016 L22.7768463,7.64098016 Z M33.3839395,22.9905479 L30.1217744,22.9905479 C29.8121768,22.9905479 29.5611984,23.2402663 29.5611984,23.5483095 C29.5611984,23.8563528 29.8121768,24.1060711 30.1217744,24.1060711 L33.3839395,24.1060711 C33.6935371,24.1060711 33.9445155,23.8563528 33.9445155,23.5483095 C33.9445155,23.2402663 33.6935371,22.9905479 33.3839395,22.9905479 Z M23.0452494,22.588985 L24.8300854,24.3648602 C25.049004,24.5826796 25.403941,24.5826796 25.6228596,24.3648602 C25.8417781,24.1470407 25.8417781,23.7938856 25.6228596,23.5760661 L23.8380236,21.8001909 C23.619105,21.5823715 23.2641679,21.5823715 23.0452494,21.8001909 C22.8263309,22.0180104 22.8263309,22.3711655 23.0452494,22.588985 Z M33.3839395,18.9235658 C33.6935371,18.9235658 33.9445155,18.6738474 33.9445155,18.3658042 C33.9445155,18.0577609 33.6935371,17.8080426 33.3839395,17.8080426 L30.1996783,17.8080426 C30.0510043,17.8080426 29.9084196,17.8668066 29.8032912,17.9714072 L27.163883,20.5975642 C26.9449644,20.8153836 26.9449644,21.1685387 27.163883,21.3863582 C27.3828015,21.6041776 27.7377386,21.6041776 27.9566571,21.3863582 L30.4318764,18.9235658 L33.3839395,18.9235658 Z M32.8990714,14.9018608 L29.8138887,17.971397 C29.5949645,18.1892109 29.5949554,18.542366 29.8138684,18.7601911 C30.0327813,18.9780161 30.3877184,18.9780251 30.6066425,18.7602113 L33.6918252,15.6906751 C33.9107494,15.4728612 33.9107585,15.1197061 33.6918455,14.901881 C33.4729326,14.684056 33.1179955,14.684047 32.8990714,14.9018608 Z M18.1238681,22.556681 C18.1238681,22.8647242 18.3748465,23.1144426 18.6844441,23.1144426 C18.9940416,23.1144426 19.2450201,22.8647242 19.2450201,22.556681 L19.2450201,16.7545453 C19.2450201,16.6066258 19.185966,16.4647641 19.0808478,16.3601648 L17.2007257,14.4893247 C16.9818164,14.2714961 16.6268793,14.2714813 16.4079516,14.4892916 C16.1890238,14.7071019 16.1890089,15.060257 16.4079182,15.2780856 L18.1238681,16.985564 L18.1238681,22.556681 Z M26.705157,13.0149876 L28.7510359,15.0505952 C28.9699545,15.2684147 29.3248916,15.2684147 29.5438101,15.0505952 C29.7627286,14.8327757 29.7627286,14.4796206 29.5438101,14.2618012 L27.3337422,12.062829 C27.2286138,11.9582284 27.0860292,11.8994644 26.9373552,11.8994644 L23.0179848,11.8994644 C22.8693108,11.8994644 22.7267261,11.9582284 22.6215978,12.062829 L18.8654621,15.8001069 C18.6465436,16.0179263 18.6465436,16.3710814 18.8654621,16.5889009 C19.0843806,16.8067204 19.4393177,16.8067204 19.6582363,16.5889009 L23.250183,13.0149876 L26.705157,13.0149876 Z M19.2450201,22.7803942 L21.1140451,20.8351084 L23.5246699,18.4367859 C23.7435884,18.2189665 23.7435884,17.8658114 23.5246699,17.6479919 C23.3057513,17.4301724 22.9508143,17.4301724 22.7318957,17.6479919 L20.3124513,20.0552894 L18.2792374,22.171259 C18.1795189,22.2750463 18.1238681,22.4130983 18.1238681,22.556681 L18.1238681,34.9546325 C18.1238681,35.1025601 18.1829286,35.244429 18.288057,35.3490295 L21.2466656,38.2927844 C21.4655842,38.5106039 21.8205213,38.5106039 22.0394398,38.2927844 C22.2583583,38.074965 22.2583583,37.7218099 22.0394398,37.5039904 L19.2450201,34.7236001 L19.2450201,22.7803942 Z M26.0991348,14.3226572 L22.744528,17.6605793 C22.5256146,17.8784039 22.525623,18.231559 22.7445467,18.4493733 C22.9634704,18.6671877 23.3184074,18.6671793 23.5373208,18.4493548 L26.8919276,15.1114326 C27.110841,14.893608 27.1108326,14.5404529 26.891909,14.3226386 C26.6729853,14.1048243 26.3180482,14.1048326 26.0991348,14.3226572 Z M26.9373552,11.8994644 C26.6277576,11.8994644 26.3767792,12.1491828 26.3767792,12.457226 C26.3767792,12.7652693 26.6277576,13.0149876 26.9373552,13.0149876 L30.2102656,13.0149876 C30.3589396,13.0149876 30.5015243,12.9562236 30.6066527,12.851623 L32.6093983,10.8589323 C32.8283168,10.6411128 32.8283168,10.2879577 32.6093983,10.0701382 C32.3904798,9.85231879 32.0355427,9.85231879 31.8166241,10.0701382 L29.9780674,11.8994644 L26.9373552,11.8994644 Z M22.6216051,12.0628217 C22.4026825,12.2806371 22.4026759,12.6337922 22.6215904,12.8516157 C22.8405049,13.0694392 23.195442,13.0694458 23.4143646,12.8516303 L27.6797987,8.60776816 C27.7849316,8.50316697 27.843995,8.36129499 27.843995,8.21336384 L27.843995,5.08030805 C27.843995,4.77226483 27.5930165,4.52254645 27.283419,4.52254645 C26.9738214,4.52254645 26.722843,4.77226483 26.722843,5.08030805 L26.722843,7.98232537 L22.6216051,12.0628217 Z M3.94836088,9.51276971 C3.72944234,9.29495026 3.37450526,9.29495026 3.15558671,9.51276971 C2.93666817,9.73058916 2.93666817,10.0837443 3.15558671,10.3015637 L4.36728416,11.5071778 C4.47241255,11.6117784 4.61499724,11.6705424 4.76367124,11.6705424 L7.93601419,11.6705424 L13.0716584,16.780403 C13.290577,16.9982224 13.645514,16.9982224 13.8644326,16.780403 C14.0833511,16.5625835 14.0833511,16.2094284 13.8644326,15.991609 L8.56459945,10.7183838 C8.45947106,10.6137832 8.31688636,10.5550192 8.16821236,10.5550192 L4.99586941,10.5550192 L3.94836088,9.51276971 Z M10.1697789,13.1042985 L8.41575683,14.8495145 C8.19683828,15.0673339 8.19683828,15.420489 8.41575683,15.6383085 C8.63467537,15.8561279 8.98961245,15.8561279 9.20853099,15.6383085 L10.9625531,13.8930925 C11.1814716,13.675273 11.1814716,13.3221179 10.9625531,13.1042985 C10.7436346,12.886479 10.3886975,12.886479 10.1697789,13.1042985 Z M7.98483626,5.15915114 L10.177996,7.34130005 C10.3969145,7.5591195 10.7518516,7.5591195 10.9707701,7.34130005 C11.1896887,7.1234806 11.1896887,6.77032548 10.9707701,6.55250603 L8.77761042,4.37035712 C8.55869188,4.15253767 8.2037548,4.15253767 7.98483626,4.37035712 C7.76591772,4.58817658 7.76591772,4.94133169 7.98483626,5.15915114 Z M16.1619706,10.2240571 C16.4715682,10.2240571 16.7225466,9.97433869 16.7225466,9.66629547 C16.7225466,9.35825224 16.4715682,9.10853387 16.1619706,9.10853387 L12.7985147,9.10853387 C12.6498407,9.10853387 12.507256,9.16729787 12.4021276,9.27189846 L10.5970651,11.0678987 C10.3781465,11.2857181 10.3781465,11.6388732 10.5970651,11.8566927 C10.8159836,12.0745121 11.1709207,12.0745121 11.3898392,11.8566927 L13.0307129,10.2240571 L16.1619706,10.2240571 Z M23.6441391,3.18541227 L23.6441391,5.6625184 C23.6441391,5.97056163 23.8951175,6.22028 24.2047151,6.22028 C24.5143127,6.22028 24.7652911,5.97056163 24.7652911,5.6625184 L24.7652911,3.18541227 C24.7652911,2.87736904 24.5143127,2.62765067 24.2047151,2.62765067 C23.8951175,2.62765067 23.6441391,2.87736904 23.6441391,3.18541227 Z M22.4809477,9.50945578 C22.6998663,9.29163633 22.6998663,8.93848122 22.4809477,8.72066176 C22.2620292,8.50284231 21.9070921,8.50284231 21.6881735,8.72066176 L19.4286454,10.9688459 C19.2097269,11.1866653 19.2097269,11.5398204 19.4286454,11.7576399 L21.5748732,13.8930925 C21.7937917,14.1109119 22.1487288,14.1109119 22.3676474,13.8930925 C22.5865659,13.675273 22.5865659,13.3221179 22.3676474,13.1042985 L20.6178067,11.3632429 L22.4809477,9.50945578 Z M27.283419,8.77112544 L28.8059418,8.77112544 C29.1155393,8.77112544 29.3665178,8.52140707 29.3665178,8.21336384 C29.3665178,7.90532061 29.1155393,7.65560224 28.8059418,7.65560224 L27.283419,7.65560224 C26.9738214,7.65560224 26.722843,7.90532061 26.722843,8.21336384 C26.722843,8.52140707 26.9738214,8.77112544 27.283419,8.77112544 Z M19.5409915,7.08321856 C19.5409915,7.39126179 19.79197,7.64098016 20.1015675,7.64098016 C20.4111651,7.64098016 20.6621435,7.39126179 20.6621435,7.08321856 L20.6621435,4.76475413 C20.6621435,4.61682656 20.603083,4.47495771 20.4979546,4.37035712 L19.0615527,2.94116672 C18.8426342,2.72334727 18.4876971,2.72334727 18.2687785,2.94116672 C18.04986,3.15898618 18.04986,3.51214129 18.2687785,3.72996074 L19.5409915,4.99578655 L19.5409915,7.08321856 Z M20.4344428,1.75835051 L18.7572184,3.42715435 C18.5382999,3.6449738 18.5382999,3.99812892 18.7572184,4.21594837 C18.9761369,4.43376782 19.331074,4.43376782 19.5499926,4.21594837 L21.227217,2.54714453 C21.4461355,2.32932508 21.4461355,1.97616996 21.227217,1.75835051 C21.0082984,1.54053106 20.6533613,1.54053106 20.4344428,1.75835051 Z M12.9782686,6.56052459 C12.75935,6.77834404 12.75935,7.13149916 12.9782686,7.34931861 C13.1971871,7.56713806 13.5521242,7.56713806 13.7710428,7.34931861 L15.6707593,5.45913962 C15.7758877,5.35453903 15.8349482,5.21267019 15.8349482,5.06474261 L15.8349482,2.03844373 C15.8349482,1.73040051 15.5839698,1.48068213 15.2743722,1.48068213 C14.9647747,1.48068213 14.7137963,1.73040051 14.7137963,2.03844373 L14.7137963,4.83371019 L12.9782686,6.56052459 Z M17.6958709,4.52254645 L15.2743722,4.52254645 C14.9647747,4.52254645 14.7137963,4.77226483 14.7137963,5.08030805 C14.7137963,5.38835128 14.9647747,5.63806965 15.2743722,5.63806965 L17.6958709,5.63806965 C18.0054684,5.63806965 18.2564469,5.38835128 18.2564469,5.08030805 C18.2564469,4.77226483 18.0054684,4.52254645 17.6958709,4.52254645 Z M16.2552815,34.9546325 L16.2552815,38.8014974 C16.2552815,39.1095406 16.5062599,39.359259 16.8158574,39.359259 C17.125455,39.359259 17.3764334,39.1095406 17.3764334,38.8014974 L17.3764334,34.9546325 C17.3764334,34.6465893 17.125455,34.3968709 16.8158574,34.3968709 C16.5062599,34.3968709 16.2552815,34.6465893 16.2552815,34.9546325 Z M18.1238681,34.9546325 L18.1238681,38.8014974 C18.1238681,39.1095406 18.3748465,39.359259 18.6844441,39.359259 C18.9940416,39.359259 19.2450201,39.1095406 19.2450201,38.8014974 L19.2450201,34.9546325 C19.2450201,34.6465893 18.9940416,34.3968709 18.6844441,34.3968709 C18.3748465,34.3968709 18.1238681,34.6465893 18.1238681,34.9546325 Z"/>
      <path fill="#60BFBF" d="M31.3148255,29.28441 L29.123562,29.28441 C28.8277485,29.28441 28.5880322,29.0458972 28.5880322,28.7517261 L28.5880322,26.5714639 C28.5880322,26.2771356 28.8277485,26.0386227 29.123562,26.0386227 L31.3148255,26.0386227 C31.6104809,26.0386227 31.8503553,26.2771356 31.8503553,26.5714639 L31.8503553,28.7517261 C31.8503553,29.0458972 31.6104809,29.28441 31.3148255,29.28441 Z M34.9232124,20.3331814 L32.0395053,20.3331814 C31.7438498,20.3331814 31.5039754,20.0946686 31.5039754,19.8003403 L31.5039754,16.9311108 C31.5039754,16.6369397 31.7438498,16.3984269 32.0395053,16.3984269 L34.9232124,16.3984269 C35.2190259,16.3984269 35.4587422,16.6369397 35.4587422,16.9311108 L35.4587422,19.8003403 C35.4587422,20.0946686 35.2190259,20.3331814 34.9232124,20.3331814 Z M33.5795683,12.3597455 L31.0414509,12.3597455 C30.7456374,12.3597455 30.5059211,12.1212326 30.5059211,11.8269043 L30.5059211,9.3015296 C30.5059211,9.00735851 30.7456374,8.76884565 31.0414509,8.76884565 L33.5795683,8.76884565 C33.8752237,8.76884565 34.1150981,9.00735851 34.1150981,9.3015296 L34.1150981,11.8269043 C34.1150981,12.1212326 33.8752237,12.3597455 33.5795683,12.3597455 Z M28.8226919,7.04768533 L25.9389847,7.04768533 C25.6431713,7.04768533 25.4034549,6.80917248 25.4034549,6.51484416 L25.4034549,3.64561472 C25.4034549,3.35144363 25.6431713,3.11293077 25.9389847,3.11293077 L28.8226919,3.11293077 C29.1183473,3.11293077 29.3582217,3.35144363 29.3582217,3.64561472 L29.3582217,6.51484416 C29.3582217,6.80917248 29.1183473,7.04768533 28.8226919,7.04768533 Z M21.6092364,3.36292117 L20.24742,3.36292117 C19.9516065,3.36292117 19.7118902,3.12440832 19.7118902,2.83023723 L19.7118902,1.47510059 C19.7118902,1.18092949 19.9516065,0.94241664 20.24742,0.94241664 L21.6092364,0.94241664 C21.9050499,0.94241664 22.1447663,1.18092949 22.1447663,1.47510059 L22.1447663,2.83023723 C22.1447663,3.12440832 21.9050499,3.36292117 21.6092364,3.36292117 Z M34.1623461,24.7586404 L32.8005296,24.7586404 C32.5047162,24.7586404 32.2649998,24.5201276 32.2649998,24.2257993 L32.2649998,22.8708198 C32.2649998,22.5764915 32.5047162,22.3379787 32.8005296,22.3379787 L34.1623461,22.3379787 C34.4580015,22.3379787 34.6978759,22.5764915 34.6978759,22.8708198 L34.6978759,24.2257993 C34.6978759,24.5201276 34.4580015,24.7586404 34.1623461,24.7586404 Z M16.8136452,4.00597824 L13.929938,4.00597824 C13.6341245,4.00597824 13.3944082,3.76730816 13.3944082,3.47313707 L13.3944082,0.603907627 C13.3944082,0.309579307 13.6341245,0.0710664533 13.929938,0.0710664533 L16.8136452,0.0710664533 C17.1094586,0.0710664533 17.349175,0.309579307 17.349175,0.603907627 L17.349175,3.47313707 C17.349175,3.76730816 17.1094586,4.00597824 16.8136452,4.00597824 Z M9.72960809,6.54235883 L7.22751924,6.54235883 C6.9318638,6.54235883 6.69198943,6.30368875 6.69198943,6.00951765 L6.69198943,3.51999061 C6.69198943,3.22566229 6.9318638,2.98714944 7.22751924,2.98714944 L9.72960809,2.98714944 C10.0254215,2.98714944 10.2651379,3.22566229 10.2651379,3.51999061 L10.2651379,6.00951765 C10.2651379,6.30368875 10.0254215,6.54235883 9.72960809,6.54235883 Z M4.8162919,11.6009696 L2.48249437,11.6009696 C2.18668091,11.6009696 1.94696455,11.3624567 1.94696455,11.0682857 L1.94696455,8.74620501 C1.94696455,8.45187669 2.18668091,8.21336384 2.48249437,8.21336384 L4.8162919,8.21336384 C5.11194734,8.21336384 5.35182172,8.45187669 5.35182172,8.74620501 L5.35182172,11.0682857 C5.35182172,11.3624567 5.11194734,11.6009696 4.8162919,11.6009696 Z M12.5327251,13.429673 L9.64901788,13.429673 C9.35336244,13.429673 9.11364609,13.1911601 9.11364609,12.8968318 L9.11364609,10.0276023 C9.11364609,9.73327403 9.35336244,9.49476117 9.64901788,9.49476117 L12.5327251,9.49476117 C12.8285385,9.49476117 13.0682549,9.73327403 13.0682549,10.0276023 L13.0682549,12.8968318 C13.0682549,13.1911601 12.8285385,13.429673 12.5327251,13.429673 Z M3.35207848,18.1640823 L0.468371311,18.1640823 C0.172557852,18.1640823 -0.0671585045,17.9255695 -0.0671585045,17.6313984 L-0.0671585045,14.762169 C-0.0671585045,14.4678406 0.172557852,14.2293278 0.468371311,14.2293278 L3.35207848,14.2293278 C3.64789194,14.2293278 3.8876083,14.4678406 3.8876083,14.762169 L3.8876083,17.6313984 C3.8876083,17.9255695 3.64789194,18.1640823 3.35207848,18.1640823 Z M4.19701148,23.9394895 L1.76065896,23.9394895 C1.4648455,23.9394895 1.22512914,23.7009766 1.22512914,23.4066483 L1.22512914,20.9823703 C1.22512914,20.6881993 1.4648455,20.4496864 1.76065896,20.4496864 L4.19701148,20.4496864 C4.49282494,20.4496864 4.7325413,20.6881993 4.7325413,20.9823703 L4.7325413,23.4066483 C4.7325413,23.7009766 4.49282494,23.9394895 4.19701148,23.9394895 Z M10.8675102,21.4122281 L8.91375077,21.4122281 C8.61793731,21.4122281 8.37822096,21.173558 8.37822096,20.8793869 L8.37822096,18.9354364 C8.37822096,18.6411081 8.61793731,18.4025952 8.91375077,18.4025952 L10.8675102,18.4025952 C11.1633236,18.4025952 11.40304,18.6411081 11.40304,18.9354364 L11.40304,20.8793869 C11.40304,21.173558 11.1633236,21.4122281 10.8675102,21.4122281 Z M29.0984368,17.6141035 L26.2147296,17.6141035 C25.9189162,17.6141035 25.6791998,17.3755906 25.6791998,17.0814195 L25.6791998,14.2120329 C25.6791998,13.9178618 25.9189162,13.6793489 26.2147296,13.6793489 L29.0984368,13.6793489 C29.3942503,13.6793489 29.6339666,13.9178618 29.6339666,14.2120329 L29.6339666,17.0814195 C29.6339666,17.3755906 29.3942503,17.6141035 29.0984368,17.6141035 Z M25.3295015,13.0172674 L23.2746093,13.0172674 C22.9789539,13.0172674 22.7392375,12.7787546 22.7392375,12.4844262 L22.7392375,10.4400079 C22.7392375,10.1456796 22.9789539,9.90716672 23.2746093,9.90716672 L25.3295015,9.90716672 C25.625315,9.90716672 25.8650314,10.1456796 25.8650314,10.4400079 L25.8650314,12.4844262 C25.8650314,12.7787546 25.625315,13.0172674 25.3295015,13.0172674 Z M18.1841527,15.6159098 L16.4680554,15.6159098 C16.1722419,15.6159098 15.9325256,15.3773969 15.9325256,15.0830686 L15.9325256,13.3754298 C15.9325256,13.0812587 16.1722419,12.8427458 16.4680554,12.8427458 L18.1841527,12.8427458 C18.4799662,12.8427458 18.7196825,13.0812587 18.7196825,13.3754298 L18.7196825,15.0830686 C18.7196825,15.3773969 18.4799662,15.6159098 18.1841527,15.6159098 Z M19.7507631,10.7362229 L16.8670559,10.7362229 C16.5714005,10.7362229 16.3315261,10.4977101 16.3315261,10.2033818 L16.3315261,7.33415232 C16.3315261,7.03998123 16.5714005,6.80131115 16.8670559,6.80131115 L19.7507631,6.80131115 C20.0465766,6.80131115 20.2862929,7.03998123 20.2862929,7.33415232 L20.2862929,10.2033818 C20.2862929,10.4977101 20.0465766,10.7362229 19.7507631,10.7362229 Z M17.7012436,23.3498895 L14.8175364,23.3498895 C14.5217229,23.3498895 14.2820066,23.1112194 14.2820066,22.8170483 L14.2820066,19.9478189 C14.2820066,19.6534906 14.5217229,19.4149777 14.8175364,19.4149777 L17.7012436,19.4149777 C17.996899,19.4149777 18.2367734,19.6534906 18.2367734,19.9478189 L18.2367734,22.8170483 C18.2367734,23.1112194 17.996899,23.3498895 17.7012436,23.3498895 Z M26.4974274,25.7463383 L23.998657,25.7463383 C23.7030016,25.7463383 23.4632852,25.5078255 23.4632852,25.2136544 L23.4632852,22.7274291 C23.4632852,22.4331008 23.7030016,22.1945879 23.998657,22.1945879 L26.4974274,22.1945879 C26.7932409,22.1945879 27.0329573,22.4331008 27.0329573,22.7274291 L27.0329573,25.2136544 C27.0329573,25.5078255 26.7932409,25.7463383 26.4974274,25.7463383 Z M23.6495908,21.0105139 L20.7657256,21.0105139 C20.4700702,21.0105139 20.2303538,20.7720011 20.2303538,20.47783 L20.2303538,17.6084433 C20.2303538,17.3142722 20.4700702,17.0757594 20.7657256,17.0757594 L23.6495908,17.0757594 C23.9452463,17.0757594 24.1849626,17.3142722 24.1849626,17.6084433 L24.1849626,20.47783 C24.1849626,20.7720011 23.9452463,21.0105139 23.6495908,21.0105139 Z M6.15661763,29.2199471 L4.09493055,29.2199471 C3.79927511,29.2199471 3.55940074,28.9814342 3.55940074,28.6871059 L3.55940074,26.6359268 C3.55940074,26.3415985 3.79927511,26.1030857 4.09493055,26.1030857 L6.15661763,26.1030857 C6.45227307,26.1030857 6.69198943,26.3415985 6.69198943,26.6359268 L6.69198943,28.6871059 C6.69198943,28.9814342 6.45227307,29.2199471 6.15661763,29.2199471 Z M14.4251727,28.0846133 L11.9384118,28.0846133 C11.6427564,28.0846133 11.40304,27.8459433 11.40304,27.5517722 L11.40304,25.0774961 C11.40304,24.7831678 11.6427564,24.5446549 11.9384118,24.5446549 L14.4251727,24.5446549 C14.7209862,24.5446549 14.9607025,24.7831678 14.9607025,25.0774961 L14.9607025,27.5517722 C14.9607025,27.8459433 14.7209862,28.0846133 14.4251727,28.0846133 Z"/>
    </g>
  </g>
</svg>
