<svg xmlns="http://www.w3.org/2000/svg" width="262" height="28" viewBox="0 0 262 28">
  <g fill="none">
    <path fill="#153455" d="M12.034 18.663C8.453 18.663 5.753 15.773 5.753 11.944 5.753 8.079 8.467 5.162 12.065 5.162 15.686 5.162 18.314 8.054 18.314 12.037 18.314 15.751 15.555 18.663 12.034 18.663M20.368 4.35C18.238 2.024 15.332.745 12.191.745 5.77.745.927 5.586.927 12.008.927 18.2 5.848 23.05 12.128 23.05 18.183 23.05 23.109 18.095 23.109 12.008 23.109 8.925 22.213 6.419 20.368 4.35M42.331 1.254L38.403 1.254C38.066 1.254 37.744 1.484 37.64 1.797L33.354 14.135C33.346 14.162 33.315 14.184 33.286 14.184 33.257 14.184 33.226 14.162 33.217 14.134L28.927 1.786C28.779 1.452 28.484 1.254 28.138 1.254L24.21 1.254C24.019 1.254 23.835 1.355 23.722 1.524 23.609 1.691 23.585 1.899 23.657 2.079L31.332 22.021C31.442 22.318 31.764 22.533 32.096 22.533L34.446 22.533C34.777 22.533 35.097 22.319 35.208 22.023L42.882 2.082C42.956 1.899 42.931 1.691 42.819 1.524 42.706 1.354 42.523 1.254 42.331 1.254"/>
    <path fill="#153455" d="M33.354 14.135L33.217 14.134C33.235 14.19 33.336 14.189 33.354 14.135M59.647 1.254L46.155 1.254C45.804 1.254 45.499 1.559 45.499 1.906L45.499 21.881C45.499 22.227 45.804 22.532 46.155 22.532L59.648 22.532C60.019 22.532 60.332 22.234 60.332 21.881L60.332 18.611C60.332 18.256 60.019 17.957 59.648 17.957L50.752 17.957C50.653 17.957 50.571 17.876 50.571 17.779L50.571 14.272C50.571 14.152 50.649 14.062 50.752 14.062L57.2 14.062C57.572 14.062 57.884 13.764 57.884 13.408L57.884 10.556C57.884 10.179 57.577 9.872 57.2 9.872L50.752 9.872C50.653 9.872 50.571 9.79 50.571 9.692L50.571 6.008C50.571 5.911 50.654 5.829 50.752 5.829L59.648 5.829C60.019 5.829 60.332 5.53 60.332 5.176L60.332 1.906C60.332 1.553 60.018 1.254 59.647 1.254M74.59 8.563C74.59 10.228 73.577 11.297 72 11.297L68.932 11.297C68.723 11.297 68.575 11.149 68.575 10.941L68.575 6.039C68.575 5.83 68.723 5.681 68.932 5.681L72 5.681C73.607 5.681 74.59 6.69 74.59 8.356L74.59 8.563zM80.915 18.254C78.829 18.074 76.346 16.732 75.804 14.794 75.755 14.622 75.861 14.538 75.963 14.494 77.875 13.606 79.92 11.504 79.92 8.265L79.92 8.058C79.92 4.37 77.015 1.253 73.578 1.253L64.347 1.253C63.976 1.253 63.663 1.552 63.663 1.905L63.663 21.879C63.663 22.25 63.957 22.53 64.347 22.53L68.069 22.53C68.435 22.53 68.723 22.243 68.723 21.879L68.723 15.28C68.723 15.153 68.805 15.071 68.932 15.071L70.629 15.071C70.762 15.071 70.882 15.194 70.902 15.308 71.736 19.561 76.024 22.767 80.873 22.767 81.264 22.767 81.528 22.415 81.528 22.085L81.528 18.936C81.528 18.574 81.277 18.293 80.915 18.254zM93.515 9.68C90.415 9.093 89.518 8.605 89.518 7.507L89.518 7.419C89.518 6.092 90.817 5.813 91.907 5.813 92.963 5.813 93.834 6.159 94.725 6.93 94.845 7.049 94.996 7.112 95.162 7.112 95.373 7.112 95.589 7.002 95.722 6.825L97.93 3.942C98.148 3.652 98.1 3.268 97.814 3.024 95.984 1.604 94.052.912 91.908.912 87.395.912 84.363 3.54 84.363 7.45L84.363 7.57C84.363 12.367 87.858 13.138 89.946 13.6L90.319 13.682C92.986 14.276 94.325 14.573 94.325 15.978L94.325 16.098C94.325 17.287 93.213 17.942 91.192 17.942 89.831 17.942 88.167 17.299 87.052 16.341 87.009 16.305 86.956 16.279 86.902 16.255 86.844 16.234 86.782 16.217 86.718 16.211 86.713 16.21 86.709 16.209 86.705 16.208 86.533 16.195 86.349 16.241 86.216 16.338 86.183 16.363 86.15 16.392 86.124 16.423L83.894 19.358C83.78 19.489 83.727 19.671 83.747 19.854 83.767 20.039 83.862 20.207 84.005 20.315 86.021 21.836 88.775 22.78 91.193 22.78 96.204 22.78 99.572 20.011 99.572 15.887L99.572 15.769C99.57 12.434 97.589 10.443 93.515 9.68M116.967 5.127L116.967 1.858C116.967 1.51 116.661 1.205 116.313 1.205L101.346 1.205C100.978 1.205 100.692 1.491 100.692 1.858L100.692 5.127C100.692 5.493 100.979 5.781 101.346 5.781L106.086 5.781C106.186 5.781 106.296 5.865 106.296 5.99L106.296 21.832C106.296 22.209 106.572 22.484 106.951 22.484L110.677 22.484C111.067 22.484 111.362 22.203 111.362 21.832L111.362 5.99C111.362 5.87 111.439 5.781 111.542 5.781L116.313 5.781C116.662 5.781 116.967 5.475 116.967 5.127M126.925 16.273L123.116 16.273C122.937 16.273 122.848 16.094 122.908 15.946L124.812 11.309C124.842 11.22 124.902 11.162 125.021 11.162 125.139 11.162 125.198 11.221 125.229 11.309L127.133 15.946C127.192 16.095 127.103 16.273 126.925 16.273zM126.138 1.709C125.998 1.394 125.714 1.206 125.379 1.206L124.664 1.206C124.329 1.206 124.045 1.394 123.904 1.712L115.422 21.663C115.354 21.851 115.379 22.052 115.492 22.214 115.609 22.381 115.806 22.484 116.006 22.484L119.874 22.484C120.233 22.484 120.521 22.301 120.666 21.976L121.348 20.288C121.447 20.066 121.634 19.929 121.838 19.929L128.206 19.929C128.409 19.929 128.597 20.066 128.694 20.282L129.381 21.982C129.523 22.301 129.811 22.484 130.169 22.484L134.038 22.484C134.239 22.484 134.434 22.381 134.552 22.214 134.666 22.052 134.692 21.851 134.62 21.656L126.138 1.709zM142.451 11.19C142.272 11.19 142.094 11.043 142.094 10.834L142.094 5.99C142.094 5.782 142.273 5.633 142.451 5.633L145.432 5.633C147.042 5.633 148.056 6.642 148.056 8.307L148.056 8.516C148.056 10.151 147.042 11.189 145.462 11.189L142.451 11.189 142.451 11.19zM153.569 8.219L153.569 8.011C153.569 4.321 150.661 1.205 147.221 1.205L137.859 1.205C137.492 1.205 137.206 1.491 137.206 1.858L137.206 21.832C137.206 22.209 137.481 22.484 137.859 22.484L141.587 22.484C141.966 22.484 142.24 22.209 142.24 21.832L142.24 15.382C142.24 15.293 142.347 15.202 142.45 15.202L146.923 15.202C150.712 15.203 153.569 12.2 153.569 8.219zM167.408 10.834C167.408 11.042 167.23 11.19 167.051 11.19L164.04 11.19C162.459 11.19 161.447 10.151 161.447 8.516L161.447 8.307C161.447 6.642 162.459 5.633 164.071 5.633L167.051 5.633C167.23 5.633 167.408 5.782 167.408 5.99L167.408 10.834zM171.642 1.206L162.281 1.206C158.84 1.206 155.932 4.321 155.932 8.011L155.932 8.219C155.932 12.2 158.789 15.203 162.58 15.203L167.051 15.203C167.155 15.203 167.261 15.294 167.261 15.384L167.261 21.834C167.261 22.211 167.536 22.485 167.915 22.485L171.643 22.485C172.022 22.485 172.297 22.211 172.297 21.834L172.297 1.858C172.296 1.492 172.009 1.206 171.642 1.206zM189.859 1.206L176.366 1.206C176.017 1.206 175.71 1.51 175.71 1.858L175.71 21.833C175.71 22.181 176.017 22.484 176.366 22.484L189.859 22.484C190.231 22.484 190.544 22.187 190.544 21.833L190.544 18.562C190.544 18.208 190.232 17.91 189.859 17.91L180.963 17.91C180.864 17.91 180.782 17.828 180.782 17.729L180.782 14.223C180.782 14.103 180.86 14.014 180.963 14.014L187.412 14.014C187.783 14.014 188.096 13.715 188.096 13.362L188.096 10.508C188.096 10.131 187.79 9.825 187.412 9.825L180.963 9.825C180.864 9.825 180.782 9.742 180.782 9.646L180.782 5.959C180.782 5.861 180.865 5.781 180.963 5.781L189.859 5.781C190.231 5.781 190.544 5.481 190.544 5.127L190.544 1.858C190.543 1.503 190.231 1.206 189.859 1.206M211.026 1.206L207.303 1.206C206.937 1.206 206.649 1.492 206.649 1.858L206.649 12.261C206.649 12.285 206.649 12.33 206.584 12.33 206.555 12.33 206.53 12.32 206.513 12.305L195.585 1.427C195.444 1.287 195.234 1.206 195.004 1.206L194.556 1.206C194.187 1.206 193.874 1.503 193.874 1.858L193.874 21.833C193.874 22.187 194.186 22.484 194.556 22.484L198.28 22.484C198.647 22.484 198.934 22.198 198.934 21.833L198.934 11.429C198.934 11.387 198.953 11.367 198.982 11.357 198.954 11.368 198.934 11.39 198.934 11.429L199.036 11.352C199.024 11.349 199.011 11.348 198.999 11.35 199.003 11.35 199.005 11.346 199.01 11.346 199.019 11.346 199.03 11.35 199.036 11.352 199.042 11.354 199.046 11.354 199.051 11.355 199.069 11.362 199.085 11.371 199.098 11.385L209.85 22.203C210.029 22.381 210.274 22.484 210.52 22.484L211.026 22.484C211.397 22.484 211.71 22.187 211.71 21.833L211.71 1.858C211.71 1.503 211.397 1.206 211.026 1.206M242.783 1.206L239.06 1.206C238.695 1.206 238.407 1.492 238.407 1.858L238.407 12.261C238.407 12.285 238.407 12.33 238.341 12.33 238.312 12.33 238.286 12.32 238.271 12.305L227.342 1.427C227.2 1.287 226.988 1.206 226.759 1.206L226.314 1.206C225.944 1.206 225.63 1.503 225.63 1.858L225.63 21.833C225.63 22.187 225.943 22.484 226.314 22.484L230.036 22.484C230.402 22.484 230.689 22.198 230.689 21.833L230.689 11.429C230.689 11.387 230.71 11.367 230.738 11.357 230.71 11.368 230.689 11.39 230.689 11.429L230.794 11.352C230.781 11.349 230.767 11.348 230.755 11.35 230.76 11.35 230.762 11.346 230.767 11.346 230.776 11.346 230.785 11.35 230.794 11.352 230.798 11.354 230.803 11.354 230.806 11.355 230.826 11.362 230.841 11.371 230.855 11.385L241.605 22.203C241.785 22.381 242.029 22.484 242.276 22.484L242.782 22.484C243.152 22.484 243.466 22.187 243.466 21.833L243.466 1.858C243.466 1.503 243.153 1.206 242.783 1.206M260.418 17.91L252.676 17.91C252.557 17.91 252.466 17.832 252.466 17.729L252.466 1.858C252.466 1.51 252.16 1.206 251.808 1.206L248.074 1.206C247.702 1.206 247.387 1.504 247.387 1.858L247.387 21.833C247.387 22.187 247.701 22.484 248.074 22.484L260.418 22.484C260.784 22.484 261.072 22.198 261.072 21.833L261.072 18.562C261.073 18.197 260.785 17.91 260.418 17.91"/>
    <path fill="#33AF82" d="M160.431 18.628C159.668 20.982 157.468 22.565 154.956 22.565 152.445 22.565 150.244 20.983 149.481 18.628L149.448 18.527 144.436 18.527 144.466 18.701C145.348 23.744 149.761 27.405 154.956 27.405 160.152 27.405 164.563 23.744 165.447 18.701L165.476 18.527 160.465 18.527 160.431 18.628zM218.497 8.265C216.501 8.265 214.878 9.871 214.878 11.846 214.878 13.821 216.502 15.425 218.497 15.425 220.492 15.425 222.117 13.82 222.117 11.846 222.117 9.872 220.492 8.265 218.497 8.265"/>
  </g>
</svg>
