<svg xmlns="http://www.w3.org/2000/svg" width="243" height="30" viewBox="0 0 243 30">
  <g fill="none" fill-rule="evenodd">
    <path fill="#EA0000" d="M44.887,27.52 L44.887,8.428 C44.887,6.38065643 45.5221603,4.66017363 46.7925,3.2665 C48.0628397,1.87282636 49.5983243,1.176 51.399,1.176 L53.582,1.176 C54.1493362,1.176 54.5933317,1.37333136 54.914,1.768 C55.2346683,2.16266864 55.395,2.63133062 55.395,3.174 C55.395,3.74133617 55.2346683,4.22233136 54.914,4.617 C54.5933317,5.01166864 54.1493362,5.209 53.582,5.209 L52.398,5.209 C51.5839959,5.209 50.9241692,5.4556642 50.4185,5.949 C49.9128308,6.4423358 49.66,7.09599593 49.66,7.91 L49.66,11.425 L54.174,11.425 C54.5440019,11.425 54.8399989,11.5976649 55.062,11.943 C55.2840011,12.2883351 55.395,12.695331 55.395,13.164 C55.395,13.632669 55.2840011,14.0396649 55.062,14.385 C54.8399989,14.7303351 54.5440019,14.903 54.174,14.903 L49.66,14.903 L49.66,27.52 C49.66,27.9640022 49.4195024,28.3216653 48.9385,28.593 C48.4574976,28.8643347 47.8840033,29 47.218,29 C46.5519967,29 45.9970022,28.8643347 45.553,28.593 C45.1089978,28.3216653 44.887,27.9640022 44.887,27.52 Z M55.794,21.748 L55.794,18.714 C55.794,16.6913232 56.5833254,14.9338408 58.162,13.4415 C59.7406745,11.9491592 61.6276557,11.203 63.823,11.203 C65.9690107,11.203 67.8436586,11.9429926 69.447,13.423 C71.0503413,14.9030074 71.852,16.6666564 71.852,18.714 L71.852,21.748 C71.852,23.74601 71.0503413,25.509659 69.447,27.039 C67.8436586,28.568341 65.9690107,29.333 63.823,29.333 C61.6769892,29.333 59.8023413,28.568341 58.199,27.039 C56.5956586,25.509659 55.794,23.74601 55.794,21.748 Z M60.567,21.748 C60.567,22.6360044 60.8876634,23.4253299 61.529,24.116 C62.1703365,24.8066701 62.9349955,25.152 63.823,25.152 C64.6863376,25.152 65.44483,24.8066701 66.0985,24.116 C66.7521699,23.4253299 67.079,22.6360044 67.079,21.748 L67.079,18.714 C67.079,17.8753291 66.7521699,17.1106701 66.0985,16.42 C65.44483,15.7293299 64.6863376,15.384 63.823,15.384 C62.9349955,15.384 62.1703365,15.7231633 61.529,16.4015 C60.8876634,17.0798367 60.567,17.8506623 60.567,18.714 L60.567,21.748 Z M73.62,21.748 L73.62,18.714 C73.62,16.6913232 74.4093254,14.9338408 75.988,13.4415 C77.5666745,11.9491592 79.4536556,11.203 81.649,11.203 C83.7950107,11.203 85.6696586,11.9429926 87.273,13.423 C88.8763413,14.9030074 89.678,16.6666564 89.678,18.714 L89.678,21.748 C89.678,23.74601 88.8763413,25.509659 87.273,27.039 C85.6696586,28.568341 83.7950107,29.333 81.649,29.333 C79.5029892,29.333 77.6283413,28.568341 76.025,27.039 C74.4216586,25.509659 73.62,23.74601 73.62,21.748 Z M78.393,21.748 C78.393,22.6360044 78.7136634,23.4253299 79.355,24.116 C79.9963365,24.8066701 80.7609955,25.152 81.649,25.152 C82.5123376,25.152 83.27083,24.8066701 83.9245,24.116 C84.5781699,23.4253299 84.905,22.6360044 84.905,21.748 L84.905,18.714 C84.905,17.8753291 84.5781699,17.1106701 83.9245,16.42 C83.27083,15.7293299 82.5123376,15.384 81.649,15.384 C80.7609955,15.384 79.9963365,15.7231633 79.355,16.4015 C78.7136634,17.0798367 78.393,17.8506623 78.393,18.714 L78.393,21.748 Z M92.0749999,23.006 L92.0749999,5.061 C92.0749999,4.64166457 92.3216641,4.29016808 92.8149999,4.0065 C93.3083357,3.72283191 93.850997,3.581 94.4429999,3.581 C95.0843365,3.581 95.6454975,3.72283191 96.1264999,4.0065 C96.6075023,4.29016808 96.8479999,4.64166457 96.8479999,5.061 L96.8479999,11.425 L101.214,11.425 C101.584002,11.425 101.879999,11.5976649 102.102,11.943 C102.324001,12.2883351 102.435,12.695331 102.435,13.164 C102.435,13.632669 102.324001,14.0396649 102.102,14.385 C101.879999,14.7303351 101.584002,14.903 101.214,14.903 L96.8479999,14.903 L96.8479999,23.006 C96.8479999,23.7213369 97.0021651,24.2269985 97.3104999,24.523 C97.6188348,24.8190015 98.1553294,24.967 98.9199999,24.967 L100.363,24.967 C101.004336,24.967 101.503831,25.1643314 101.8615,25.559 C102.219168,25.9536686 102.398,26.4223306 102.398,26.965 C102.398,27.5323362 102.219168,28.0133314 101.8615,28.408 C101.503831,28.8026686 101.004336,29 100.363,29 L98.9199999,29 C94.3566438,29 92.0749999,27.00202 92.0749999,23.006 Z M104.388,27.483 L104.388,2.656 C104.388,2.21199778 104.603831,1.85433469 105.0355,1.583 C105.467169,1.31166531 106.02833,1.176 106.719,1.176 C107.40967,1.176 107.989331,1.31166531 108.458,1.583 C108.926669,1.85433469 109.161,2.21199778 109.161,2.656 L109.161,14.015 C109.580335,13.2256627 110.203162,12.5596694 111.0295,12.017 C111.855837,11.4743306 112.811661,11.203 113.897,11.203 C115.697676,11.203 117.245493,11.9429926 118.5405,13.423 C119.835506,14.9030074 120.483,16.6666564 120.483,18.714 L120.483,21.748 C120.483,23.74601 119.82934,25.509659 118.522,27.039 C117.21466,28.568341 115.710008,29.333 114.008,29.333 C112.897994,29.333 111.862005,29.0431696 110.9,28.4635 C109.937995,27.8838304 109.259669,27.1993373 108.865,26.41 L108.865,27.483 C108.865,27.8530018 108.649169,28.1983317 108.2175,28.519 C107.785831,28.8396683 107.286336,29 106.719,29 C106.052997,29 105.498002,28.8458349 105.054,28.5375 C104.609998,28.2291651 104.388,27.8776686 104.388,27.483 Z M109.161,22.414 C109.161,22.882669 109.500163,23.4561633 110.1785,24.1345 C110.856837,24.8128367 111.627662,25.152 112.491,25.152 C113.354338,25.152 114.106663,24.8005035 114.748,24.0975 C115.389336,23.3944965 115.71,22.6113376 115.71,21.748 L115.71,18.714 C115.71,17.8506623 115.389336,17.0798367 114.748,16.4015 C114.106663,15.7231633 113.342004,15.384 112.454,15.384 C111.615329,15.384 110.856837,15.6923302 110.1785,16.309 C109.500163,16.9256697 109.161,17.7273284 109.161,18.714 L109.161,22.414 Z M121.918,24.412 C121.918,22.41399 122.657992,21.0080041 124.138,20.194 C125.618007,19.3799959 127.751653,18.973 130.539,18.973 L132.056,18.973 L132.056,18.492 C132.056,17.5793288 131.790836,16.7838367 131.2605,16.1055 C130.730164,15.4271633 129.910005,15.088 128.8,15.088 C127.689994,15.088 126.740337,15.2791648 125.951,15.6615 C125.161663,16.0438352 124.705334,16.235 124.582,16.235 C124.088664,16.235 123.694001,15.9883358 123.398,15.495 C123.101998,15.0016642 122.954,14.459003 122.954,13.867 C122.954,13.1516631 123.58916,12.528836 124.8595,11.9985 C126.12984,11.468164 127.467993,11.203 128.874,11.203 C131.56268,11.203 133.56066,11.8874932 134.868,13.2565 C136.17534,14.6255068 136.829,16.3459896 136.829,18.418 L136.829,27.483 C136.829,27.9023354 136.607002,28.2599985 136.163,28.556 C135.718998,28.8520015 135.164003,29 134.498,29 C133.88133,29 133.369502,28.8520015 132.9625,28.556 C132.555498,28.2599985 132.352,27.9023354 132.352,27.483 L132.352,26.41 C130.649991,28.3586764 128.775343,29.333 126.728,29.333 C125.321993,29.333 124.168838,28.9136709 123.2685,28.075 C122.368162,27.2363291 121.918,26.0153413 121.918,24.412 Z M126.691,23.783 C126.691,24.4490033 126.869831,24.9484983 127.2275,25.2815 C127.585168,25.6145017 128.059997,25.781 128.652,25.781 C129.441337,25.781 130.205996,25.4110037 130.946,24.671 C131.686004,23.9309963 132.056,23.1170044 132.056,22.229 L132.056,21.452 L131.501,21.452 C129.996326,21.452 128.818504,21.6061651 127.9675,21.9145 C127.116496,22.2228349 126.691,22.845662 126.691,23.783 Z M140.114,27.483 L140.114,2.656 C140.114,2.21199778 140.329831,1.85433469 140.7615,1.583 C141.193169,1.31166531 141.766663,1.176 142.482,1.176 C143.148003,1.176 143.715331,1.31166531 144.184,1.583 C144.652669,1.85433469 144.887,2.21199778 144.887,2.656 L144.887,27.483 C144.887,27.8530018 144.646502,28.1983317 144.1655,28.519 C143.684497,28.8396683 143.123336,29 142.482,29 C141.815997,29 141.254835,28.8458349 140.7985,28.5375 C140.342164,28.2291651 140.114,27.8776686 140.114,27.483 Z M148.653,27.483 L148.653,2.656 C148.653,2.21199778 148.868831,1.85433469 149.3005,1.583 C149.732169,1.31166531 150.305663,1.176 151.021,1.176 C151.687003,1.176 152.254331,1.31166531 152.723,1.583 C153.191669,1.85433469 153.426,2.21199778 153.426,2.656 L153.426,27.483 C153.426,27.8530018 153.185502,28.1983317 152.7045,28.519 C152.223497,28.8396683 151.662336,29 151.021,29 C150.354997,29 149.793835,28.8458349 149.3375,28.5375 C148.881164,28.2291651 148.653,27.8776686 148.653,27.483 Z"/>
    <path fill="#000" d="M157.109 23.413L157.109 4.358C157.109 4.06199852 157.269332 3.80916771 157.59 3.5995 157.910668 3.38983228 158.255998 3.285 158.626 3.285 159.020669 3.285 159.378332 3.38983228 159.699 3.5995 160.019668 3.80916771 160.18 4.06199852 160.18 4.358L160.18 11.462 164.842 11.462C165.113335 11.462 165.335332 11.5853321 165.508 11.832 165.680668 12.0786679 165.767 12.3623317 165.767 12.683 165.767 13.0036683 165.680668 13.2811655 165.508 13.5155 165.335332 13.7498345 165.113335 13.867 164.842 13.867L160.18 13.867 160.18 23.413C160.18 24.473672 160.408164 25.2198312 160.8645 25.6515 161.320836 26.0831688 162.116328 26.299 163.251 26.299L164.398 26.299C164.817335 26.299 165.144165 26.4284987 165.3785 26.6875 165.612835 26.9465013 165.73 27.2609981 165.73 27.631 165.73 28.0010018 165.606668 28.3216653 165.36 28.593 165.113332 28.8643347 164.792669 29 164.398 29L163.251 29C159.156313 29 157.109 27.1376853 157.109 23.413zM167.901 6.134C167.530998 5.76399815 167.346 5.34466901 167.346 4.876 167.346 4.40733099 167.530998 4.00033506 167.901 3.655 168.271002 3.30966494 168.727331 3.137 169.27 3.137 169.788003 3.137 170.231998 3.30966494 170.602 3.655 170.972002 4.00033506 171.157 4.40733099 171.157 4.876 171.157 5.34466901 170.972002 5.75783154 170.602 6.1155 170.231998 6.47316845 169.788003 6.652 169.27 6.652 168.751997 6.652 168.295669 6.47933506 167.901 6.134zM167.753 27.89L167.753 12.535C167.753 12.2143317 167.900999 11.9553343 168.197 11.758 168.493002 11.5606657 168.850665 11.462 169.27 11.462 169.714002 11.462 170.083999 11.5606657 170.38 11.758 170.676002 11.9553343 170.824 12.2143317 170.824 12.535L170.824 27.89C170.824 28.1613347 170.669835 28.4141655 170.3615 28.6485 170.053165 28.8828345 169.689335 29 169.27 29 168.850665 29 168.493002 28.8890011 168.197 28.667 167.900999 28.4449989 167.753 28.1860015 167.753 27.89zM173.661 22.118L173.661 18.418C173.661 16.2966561 174.283827 14.5700067 175.5295 13.238 176.775173 11.9059933 178.606655 11.24 181.024 11.24 182.553341 11.24 183.842161 11.5113306 184.8905 12.054 185.938839 12.5966694 186.463 13.1763302 186.463 13.793 186.463 14.1383351 186.333501 14.4774983 186.0745 14.8105 185.815499 15.1435017 185.513335 15.31 185.168 15.31 185.069333 15.31 184.643837 15.0941688 183.8915 14.6625 183.139163 14.2308312 182.257338 14.015 181.246 14.015 179.765993 14.015 178.643671 14.3973295 177.879 15.162 177.11433 15.9266705 176.732 17.011993 176.732 18.418L176.732 22.118C176.732 25.053348 178.248985 26.521 181.283 26.521 182.319005 26.521 183.21933 26.2990022 183.984 25.855 184.748671 25.4109978 185.192666 25.189 185.316 25.189 185.710669 25.189 186.037499 25.3493317 186.2965 25.67 186.555501 25.9906683 186.685 26.3236649 186.685 26.669 186.685 27.2856697 186.142339 27.8776638 185.057 28.445 183.971661 29.0123362 182.639675 29.296 181.061 29.296 178.618988 29.296 176.775173 28.6361733 175.5295 27.3165 174.283827 25.9968267 173.661 24.2640107 173.661 22.118zM188.856 27.89L188.856 1.953C188.856 1.63233173 188.997832 1.37333432 189.2815 1.176 189.565168.97866568 189.928998.88 190.373.88 190.817002.88 191.186999.97866568 191.483 1.176 191.779002 1.37333432 191.927 1.63233173 191.927 1.953L191.927 19.269 200.363 11.647C200.585001 11.4743325 200.806999 11.388 201.029 11.388 201.399002 11.388 201.750498 11.5359985 202.0835 11.832 202.416502 12.1280015 202.583 12.4609981 202.583 12.831 202.583 13.1270015 202.472001 13.3736657 202.25 13.571L197.107 18.122 203.249 27.039C203.372334 27.2363343 203.434 27.4213325 203.434 27.594 203.434 27.9640018 203.249002 28.3154983 202.879 28.6485 202.508998 28.9815017 202.126669 29.148 201.732 29.148 201.386665 29.148 201.103001 28.9876683 200.881 28.667L194.998 20.046 191.927 22.784 191.927 27.89C191.927 28.1613347 191.772835 28.4141655 191.4645 28.6485 191.156165 28.8828345 190.792336 29 190.373 29 189.953665 29 189.596002 28.8890011 189.3 28.667 189.003999 28.4449989 188.856 28.1860015 188.856 27.89zM204.051 22.118L204.051 18.233C204.051 16.3336572 204.772493 14.6933402 206.2155 13.312 207.658507 11.9306598 209.391323 11.24 211.414 11.24 213.33801 11.24 215.002993 11.8874935 216.409 13.1825 217.815007 14.4775065 218.518 16.0993236 218.518 18.048 218.518 18.7633369 218.431668 19.3368312 218.259 19.7685 218.086333 20.2001688 217.821169 20.5084991 217.4635 20.6935 217.105832 20.8785009 216.772835 20.9956664 216.4645 21.045 216.156165 21.0943336 215.743003 21.119 215.225 21.119L207.122 21.119 207.122 22.229C207.122 23.5856734 207.609162 24.6709959 208.5835 25.485 209.557838 26.2990041 210.821992 26.706 212.376 26.706 213.190004 26.706 213.899164 26.5826679 214.5035 26.336 215.107836 26.0893321 215.594998 25.8488345 215.965 25.6145 216.335002 25.3801655 216.630999 25.263 216.853 25.263 217.198335 25.263 217.494332 25.4171651 217.741 25.7255 217.987668 26.0338349 218.111 26.3483317 218.111 26.669 218.111 27.2363362 217.549839 27.815997 216.4275 28.408 215.305161 29.000003 213.917675 29.296 212.265 29.296 209.847655 29.296 207.874341 28.6361733 206.345 27.3165 204.815659 25.9968267 204.051 24.2640107 204.051 22.118zM207.122 19.047L213.967 19.047C214.608337 19.047 215.039999 18.9668341 215.262 18.8065 215.484001 18.6461659 215.595 18.331669 215.595 17.863 215.595 16.7529944 215.188004 15.7786709 214.374 14.94 213.559996 14.1013291 212.561006 13.682 211.377 13.682 210.217661 13.682 209.218671 14.0704961 208.38 14.8475 207.541329 15.6245039 207.122 16.5803277 207.122 17.715L207.122 19.047zM220.948 23.413L220.948 4.358C220.948 4.06199852 221.108332 3.80916771 221.429 3.5995 221.749668 3.38983228 222.094998 3.285 222.465 3.285 222.859669 3.285 223.217332 3.38983228 223.538 3.5995 223.858668 3.80916771 224.019 4.06199852 224.019 4.358L224.019 11.462 228.681 11.462C228.952335 11.462 229.174333 11.5853321 229.347 11.832 229.519668 12.0786679 229.606 12.3623317 229.606 12.683 229.606 13.0036683 229.519668 13.2811655 229.347 13.5155 229.174333 13.7498345 228.952335 13.867 228.681 13.867L224.019 13.867 224.019 23.413C224.019 24.473672 224.247165 25.2198312 224.7035 25.6515 225.159836 26.0831688 225.955328 26.299 227.09 26.299L228.237 26.299C228.656336 26.299 228.983166 26.4284987 229.2175 26.6875 229.451835 26.9465013 229.569 27.2609981 229.569 27.631 229.569 28.0010018 229.445668 28.3216653 229.199 28.593 228.952332 28.8643347 228.631669 29 228.237 29L227.09 29C222.995313 29 220.948 27.1376853 220.948 23.413zM230.519 26.484C230.519 26.1633317 230.623832 25.8488349 230.8335 25.5405 231.043168 25.2321651 231.295999 25.078 231.592 25.078 231.789334 25.078 232.072998 25.2259985 232.443 25.522 232.813002 25.8180015 233.34333 26.1078319 234.034 26.3915 234.72467 26.6751681 235.538662 26.817 236.476 26.817 237.70934 26.817 238.603497 26.5950022 239.1585 26.151 239.713503 25.7069978 239.991 25.1520033 239.991 24.486 239.991 23.6719959 239.68267 23.0245024 239.066 22.5435 238.44933 22.0624976 237.697005 21.6986679 236.809 21.452 235.920996 21.2053321 235.033005 20.9340015 234.145 20.638 233.256996 20.3419985 232.50467 19.8486701 231.888 19.158 231.27133 18.4673299 230.963 17.5546723 230.963 16.42 230.963 15.013993 231.462495 13.7991718 232.4615 12.7755 233.460505 11.7518282 234.983657 11.24 237.031 11.24 238.33834 11.24 239.534661 11.443498 240.62 11.8505 241.705339 12.257502 242.248 12.7199974 242.248 13.238 242.248 13.5340015 242.130835 13.8669981 241.8965 14.237 241.662166 14.6070018 241.372335 14.792 241.027 14.792 240.928333 14.792 240.453504 14.6131685 239.6025 14.2555 238.751496 13.8978315 237.906671 13.719 237.068 13.719 235.933328 13.719 235.088503 13.984164 234.5335 14.5145 233.978497 15.044836 233.701 15.6429967 233.701 16.309 233.701 16.9996701 234.00933 17.5423314 234.626 17.937 235.24267 18.3316686 236.001162 18.6399989 236.9015 18.862 237.801838 19.0840011 238.695996 19.3553317 239.584 19.676 240.472005 19.9966683 241.22433 20.5454961 241.841 21.3225 242.45767 22.0995039 242.766 23.1046605 242.766 24.338 242.766 25.867341 242.223339 27.0759956 241.138 27.964 240.052661 28.8520044 238.535677 29.296 236.587 29.296 234.909658 29.296 233.479006 28.9938364 232.295 28.3895 231.110994 27.7851636 230.519 27.1500033 230.519 26.484zM.516 27.89L.516 1.953C.516 1.63233173.657831915 1.37333432.9415 1.176 1.22516808.97866568 1.58899778.88 2.033.88 2.47700222.88 2.84699852.97866568 3.143 1.176 3.43900148 1.37333432 3.587 1.63233173 3.587 1.953L3.587 27.89C3.587 28.1613347 3.43283487 28.4141655 3.1245 28.6485 2.81616512 28.8828345 2.45233543 29 2.033 29 1.61366457 29 1.25600148 28.8890011.96 28.667.66399852 28.4449989.516 28.1860015.516 27.89zM7.13400005 6.134C6.7639982 5.76399815 6.57900005 5.34466901 6.57900005 4.876 6.57900005 4.40733099 6.7639982 4.00033506 7.13400005 3.655 7.5040019 3.30966494 7.96033067 3.137 8.50300005 3.137 9.02100264 3.137 9.4649982 3.30966494 9.83500005 3.655 10.2050019 4.00033506 10.39 4.40733099 10.39 4.876 10.39 5.34466901 10.2050019 5.75783154 9.83500005 6.1155 9.4649982 6.47316845 9.02100264 6.652 8.50300005 6.652 7.98499746 6.652 7.52866869 6.47933506 7.13400005 6.134zM6.98600005 27.89L6.98600005 12.535C6.98600005 12.2143317 7.13399857 11.9553343 7.43000005 11.758 7.72600153 11.5606657 8.08366462 11.462 8.50300005 11.462 8.94700227 11.462 9.31699857 11.5606657 9.61300005 11.758 9.90900153 11.9553343 10.057 12.2143317 10.057 12.535L10.057 27.89C10.057 28.1613347 9.90283492 28.4141655 9.59450005 28.6485 9.28616517 28.8828345 8.92233548 29 8.50300005 29 8.08366462 29 7.72600153 28.8890011 7.43000005 28.667 7.13399857 28.4449989 6.98600005 28.1860015 6.98600005 27.89zM11.3840001 12.72C11.3840001 12.3746649 11.5998313 12.0663347 12.0315001 11.795 12.4631689 11.5236653 12.9009979 11.388 13.3450001 11.388 13.8630027 11.388 14.1959994 11.5853314 14.3440001 11.98L19.0430001 24.56 23.6680001 12.128C23.8653344 11.6346642 24.1983311 11.388 24.6670001 11.388 25.0616687 11.388 25.4933311 11.5236653 25.9620001 11.795 26.4306691 12.0663347 26.6650001 12.3746649 26.6650001 12.72 26.6650001 12.9173343 26.6156673 13.1146657 26.5170001 13.312L20.4490001 28.667C20.2516658 29.1110022 19.7830038 29.333 19.0430001 29.333 18.2783296 29.333 17.7973344 29.1110022 17.6000001 28.667L11.5320001 13.312C11.4333329 13.0159985 11.3840001 12.8186672 11.3840001 12.72zM27.3260001 22.118L27.3260001 18.233C27.3260001 16.3336572 28.0474929 14.6933402 29.4905001 13.312 30.9335074 11.9306598 32.6663234 11.24 34.6890001 11.24 36.6130098 11.24 38.2779931 11.8874935 39.6840001 13.1825 41.0900072 14.4775065 41.7930001 16.0993236 41.7930001 18.048 41.7930001 18.7633369 41.7066677 19.3368312 41.5340001 19.7685 41.3613326 20.2001688 41.0961686 20.5084991 40.7385001 20.6935 40.3808317 20.8785009 40.047835 20.9956664 39.7395001 21.045 39.4311653 21.0943336 39.0180027 21.119 38.5000001 21.119L30.3970001 21.119 30.3970001 22.229C30.3970001 23.5856734 30.8841619 24.6709959 31.8585001 25.485 32.8328383 26.2990041 34.0969924 26.706 35.6510001 26.706 36.4650042 26.706 37.1741638 26.5826679 37.7785001 26.336 38.3828365 26.0893321 38.8699983 25.8488345 39.2400001 25.6145 39.610002 25.3801655 39.905999 25.263 40.1280001 25.263 40.4733352 25.263 40.7693322 25.4171651 41.0160001 25.7255 41.262668 26.0338349 41.3860001 26.3483317 41.3860001 26.669 41.3860001 27.2363362 40.8248391 27.815997 39.7025001 28.408 38.5801612 29.000003 37.1926751 29.296 35.5400001 29.296 33.1226547 29.296 31.1493411 28.6361733 29.6200001 27.3165 28.0906592 25.9968267 27.3260001 24.2640107 27.3260001 22.118zM30.3970001 19.047L37.2420001 19.047C37.8833367 19.047 38.314999 18.9668341 38.5370001 18.8065 38.7590013 18.6461659 38.8700001 18.331669 38.8700001 17.863 38.8700001 16.7529944 38.4630042 15.7786709 37.6490001 14.94 36.8349961 14.1013291 35.8360061 13.682 34.6520001 13.682 33.492661 13.682 32.493671 14.0704961 31.6550001 14.8475 30.8163293 15.6245039 30.3970001 16.5803277 30.3970001 17.715L30.3970001 19.047z"/>
  </g>
</svg>
