<svg xmlns="http://www.w3.org/2000/svg" xmlns:xlink="http://www.w3.org/1999/xlink" width="179" height="40" viewBox="0 0 179 40">
  <defs>
    <path id="client-logo-5-a" d="M0.173451814,14.5084681 C0.173451814,9.83254616 2.55841426,7.07943323 6.59116894,7.07943323 C10.4938348,7.07943323 13.052249,10.225848 12.6186195,16.2564763 L5.11682852,16.2564763 C5.5070951,17.8296837 6.54780599,18.4414866 8.28232413,18.4414866 C9.58321274,18.4414866 10.6239236,18.2666857 11.7947234,17.8296837 L11.7947234,21.1945995 C10.6672866,21.6753018 9.32303502,21.937503 7.54515392,21.937503 C2.86195493,21.937503 0.173451814,19.1843901 0.173451814,14.5084681 Z M8.28232413,13.3285626 C8.23896118,11.711655 7.80533164,10.8376509 6.7212578,10.8376509 C5.59382101,10.8376509 5.03010261,11.711655 4.90001375,13.3285626 L8.28232413,13.3285626 Z M26.8416683,21.5442011 L22.5487359,21.5442011 L22.5487359,20.2768952 C21.7248397,21.2819999 20.5974029,21.9812032 18.8195218,21.9812032 C16.781463,21.9812032 14.6566783,20.4953962 14.6566783,17.5674825 L14.6566783,7.51643528 L19.4266032,7.51643528 L19.4266032,16.3875769 C19.4266032,17.1741806 19.8168698,17.5237823 20.510677,17.5237823 C21.2478472,17.5237823 21.7248397,17.0867802 22.0717434,16.5186775 L22.0717434,7.47273508 L26.8416683,7.47273508 L26.8416683,21.5442011 Z M29.4434455,7.47273508 L33.7363779,7.47273508 L33.7363779,9.43924431 C34.4735481,7.86603693 35.9045255,6.99203282 37.9859473,7.16683364 L37.9859473,12.0612566 C36.2514292,11.8427556 34.9505406,12.3671581 34.1700074,13.9840656 L34.1700074,21.5005009 L29.4000825,21.5005009 L29.4000825,7.47273508 L29.4434455,7.47273508 Z M52.1656331,14.5084681 C52.1656331,19.0969896 49.8240336,21.937503 45.6611901,21.937503 C41.4983466,21.937503 39.1133841,19.0969896 39.1133841,14.5084681 C39.1133841,9.91994657 41.4549836,7.07943323 45.6611901,7.07943323 C49.8240336,7.07943323 52.1656331,9.87624636 52.1656331,14.5084681 Z M43.926672,14.5084681 C43.926672,16.7808788 44.4036644,17.8296837 45.6611901,17.8296837 C46.9187158,17.8296837 47.3957082,16.7808788 47.3957082,14.5084681 C47.3957082,12.2360574 46.9187158,11.1872525 45.6611901,11.1872525 C44.3603015,11.1435523 43.926672,12.2360574 43.926672,14.5084681 Z M54.3337808,1.04880492 L59.0603427,1.04880492 L59.0603427,12.4982587 L60.1444166,12.4982587 L62.2692013,7.47273508 L67.5594816,7.47273508 L64.0037195,14.4647679 L67.6895705,21.5442011 L62.3992902,21.5442011 L60.1010536,16.606078 L59.0603427,16.606078 L59.0603427,21.5442011 L54.3337808,21.5442011 L54.3337808,1.04880492 Z M69.0338221,7.47273508 L73.3267545,7.47273508 L73.3267545,8.74004103 C74.1506506,7.77863652 75.3214503,7.07943323 77.0559685,7.07943323 C79.1373902,7.07943323 81.218812,8.52154 81.218812,11.4494537 L81.218812,21.5005009 L76.4488871,21.5005009 L76.4488871,12.6730595 C76.4488871,11.8864558 76.0586205,11.5368542 75.3648133,11.5368542 C74.6276431,11.5368542 74.1506506,11.9738562 73.803747,12.5419589 L73.803747,21.5442011 L69.0338221,21.5442011 L69.0338221,7.47273508 Z M96.3091199,18.2229855 L96.3091199,21.4568007 C95.5719496,21.6753018 94.9215053,21.7627022 94.0542463,21.7627022 C92.9268095,21.7627022 91.8860986,21.4568007 91.2790172,20.7575974 C90.2816693,21.5879013 88.9807807,21.937503 87.5931662,21.937503 C85.2082037,21.937503 83.126782,20.5390964 83.126782,17.5237823 C83.126782,14.5958685 85.2515667,13.0663613 88.3303364,13.0663613 C89.0675066,13.0663613 89.5878621,13.1100615 90.4117582,13.3285626 L90.4117582,12.7167597 C90.4117582,11.711655 89.8480398,11.0124517 88.2436105,11.0124517 C86.7259071,11.0124517 85.1214778,11.4057535 83.994041,11.8427556 L83.994041,7.90973713 C85.4250185,7.42903487 87.2896255,7.07943323 88.7639659,7.07943323 C92.6666318,7.07943323 95.0949572,8.56524021 95.0949572,13.0226611 L95.0949572,17.3926816 C95.0949572,18.0481847 95.3984978,18.2666857 95.8754903,18.2666857 C96.0055792,18.2666857 96.179031,18.2666857 96.3091199,18.2229855 Z M90.4117582,18.3977864 L90.4117582,15.9505749 C90.0648545,15.8631745 89.7613139,15.8194743 89.4144102,15.8194743 C88.3303364,15.8194743 87.6798921,16.2564763 87.6798921,17.4363819 C87.6798921,18.528887 88.2869734,18.9221888 88.9807807,18.9221888 C89.5444991,18.9221888 89.9781286,18.7910882 90.4117582,18.3977864 Z M97.9569121,21.5005009 L102.726837,21.5005009 L102.726837,0.131100615 L97.9569121,0.131100615 L97.9569121,21.5005009 Z M105.371977,21.5005009 L110.141902,21.5005009 L110.141902,0.131100615 L105.371977,0.131100615 L105.371977,21.5005009 Z M112.223324,14.5084681 C112.223324,9.83254616 114.608286,7.07943323 118.641041,7.07943323 C122.543707,7.07943323 125.102121,10.225848 124.668491,16.2564763 L117.166701,16.2564763 C117.556967,17.8296837 118.597678,18.4414866 120.332196,18.4414866 C121.633085,18.4414866 122.673796,18.2666857 123.844595,17.8296837 L123.844595,21.1945995 C122.717159,21.6753018 121.372907,21.937503 119.595026,21.937503 C114.911827,21.937503 112.223324,19.1843901 112.223324,14.5084681 Z M120.332196,13.3285626 C120.288833,11.711655 119.855204,10.8376509 118.77113,10.8376509 C117.643693,10.8376509 117.079975,11.711655 116.949886,13.3285626 L120.332196,13.3285626 Z M126.749913,7.47273508 L131.042846,7.47273508 L131.042846,9.43924431 C131.780016,7.86603693 133.210993,6.99203282 135.335778,7.16683364 L135.335778,12.0612566 C133.60126,11.8427556 132.300371,12.3671581 131.519838,13.9840656 L131.519838,21.5005009 L126.749913,21.5005009 L126.749913,7.47273508 Z"/>
    <path id="client-logo-5-c" d="M13.6593304,20.4953962 C14.1363229,20.9760985 14.1363229,21.8064024 13.6593304,22.2871046 L3.46903628,32.6440532 C2.9920438,33.1247555 2.16814768,33.1247555 1.69115519,32.6440532 C1.2141627,32.163351 1.2141627,31.3330471 1.69115519,30.8523448 L3.72921401,28.754735 C1.56106633,25.783121 0.303540675,22.156004 0.260177721,18.2229855 C0.173451814,8.30303898 8.15223527,0.131100615 18.0389887,0.0874004103 C20.55404,0.0874004103 22.8522765,0.524402462 25.0204242,1.44210677 L25.1071501,1.48580697 C25.6275056,1.704308 25.4974167,2.01020944 25.1505131,2.27241067 L23.5460838,3.14641477 C23.0257283,3.32121559 22.9390024,3.53971662 22.1151063,3.27751539 L21.9416545,3.23381518 C20.6841288,2.92791374 19.3832402,2.75311292 18.0389887,2.75311292 C9.58321274,2.79681313 2.77522903,9.74514575 2.81859198,18.2666857 C2.86195493,21.4568007 3.85930287,24.4721149 5.55045806,26.9193264 L11.8814493,20.4953962 C12.3584418,20.014694 13.1823379,20.014694 13.6593304,20.4953962 Z"/>
    <path id="client-logo-5-e" d="M31.3080525,0.655503077 C32.2186745,2.84051333 32.695667,5.15662421 32.652304,7.69123611 C32.7390299,17.6111827 24.7602465,25.783121 14.8734931,25.8268212 C11.0141902,25.8705214 7.45842801,24.6469157 4.50974717,22.5493059 L2.21151063,24.8654167 C1.73451814,25.346119 0.910622025,25.346119 0.433629536,24.8654167 C-0.0433629536,24.3847145 -0.0433629536,23.5544106 0.433629536,23.0737083 L10.6672866,12.7604599 C11.1442791,12.2797576 11.9681752,12.2797576 12.4451677,12.7604599 C12.9221602,13.2411622 12.9221602,14.0714661 12.4451677,14.5521683 L6.41771713,20.670197 C8.84604253,22.2871046 11.7947234,23.2048089 14.916856,23.2048089 C23.329269,23.1611087 30.1372527,16.1690759 30.0938898,7.69123611 C30.0938898,6.33652975 29.920438,5.02552359 29.5735343,3.75821764 L29.5301714,3.58341682 C29.2699937,2.75311292 29.4868084,2.70941272 29.6602602,2.14131005 L30.4841564,0.524402462 C30.7443341,0.174800821 31.0478747,0.0437002051 31.2646895,0.568102667 L31.3080525,0.655503077 Z"/>
    <path id="client-logo-5-g" d="M24.6301576,0.437002051 C24.7168835,1.13620533 24.8036094,1.83540862 24.8036094,2.5783121 C24.7168835,4.80702257 24.0664392,6.90463241 23.1558172,8.91484185 C21.4212991,12.6730595 19.0363366,15.9068747 16.0009299,18.6599876 C15.827478,18.8347884 15.6973892,19.0532894 15.6540262,19.2717905 C15.3938485,20.5390964 15.1336708,21.8501026 14.8734931,23.1174085 C14.8301301,23.3359095 14.7000413,23.5981108 14.5265894,23.7729116 C13.8327822,24.4284147 13.1389749,25.127618 12.4451677,25.783121 C12.4451677,25.5209198 12.4451677,25.3024188 12.4018047,25.0839178 C12.0549011,21.9812032 10.6672866,19.2717905 8.5858648,17.261581 C6.46108008,15.338772 3.72921401,14.1588665 0.693807257,14.0277659 L0,14.0277659 C0.60708135,13.2848624 1.2141627,12.5419589 1.864607,11.7990554 C1.99469586,11.6242546 2.25487359,11.493154 2.47168835,11.4057535 C3.72921401,11.0124517 4.98673966,10.7065503 6.24426531,10.3569486 C6.46108008,10.3132484 6.67789485,10.1384476 6.80798371,9.96364677 C9.36639797,6.72983159 12.4018047,4.10781928 16.0009299,2.14131005 C17.9088998,1.09250513 19.9469586,0.349601641 22.1584693,0.0874004103 C22.8522765,-1.1379786e-15 23.5460838,-1.1379786e-15 24.283254,0.0437002051 C24.3699799,0.0437002051 24.4567058,0.0874004103 24.5000688,0.0874004103 L24.5434317,0.131100615 C24.5434317,0.174800821 24.5867947,0.174800821 24.5867947,0.218501026 C24.5867947,0.305901436 24.6301576,0.349601641 24.6301576,0.437002051 Z M14.3097747,13.8092648 C15.827478,13.8092648 17.0850037,12.5856591 17.0850037,11.0561519 C17.0850037,9.52664472 15.870841,8.25933877 14.3531376,8.25933877 C12.8354343,8.25933877 11.5779086,9.48294452 11.5779086,11.0124517 C11.5779086,12.5419589 12.7920713,13.8092648 14.3097747,13.8092648 Z"/>
  </defs>
  <g fill="none" fill-rule="evenodd" transform="translate(.778 .784)">
    <g transform="translate(42.496 5.244)">
      <mask id="client-logo-5-b" fill="#fff">
        <use xlink:href="#client-logo-5-a"/>
      </mask>
      <polygon fill="#004FB2" points=".147 21.99 135.336 21.99 135.336 .122 .147 .122" mask="url(#client-logo-5-b)"/>
    </g>
    <mask id="client-logo-5-d" fill="#fff">
      <use xlink:href="#client-logo-5-c"/>
    </mask>
    <polygon fill="#FBD900" points=".234 33.055 25.471 33.055 25.471 .07 .234 .07" mask="url(#client-logo-5-d)"/>
    <path stroke="#FBD900" d="M13.6593304,20.4953962 C13.1823379,20.014694 12.3584418,20.014694 11.8814493,20.4953962 L5.55045806,26.9193264 C3.85930287,24.4721149 2.86195493,21.4568007 2.81859198,18.2666857 C2.77522903,9.74514575 9.58321274,2.79681313 18.0389887,2.75311292 C19.3832402,2.75311292 20.6841288,2.92791374 21.9416545,3.23381518 L22.1151063,3.27751539 C22.9390024,3.53971662 23.0257283,3.32121559 23.5460838,3.14641477 L25.1505131,2.27241067 C25.4974167,2.01020944 25.6275056,1.704308 25.1071501,1.48580697 L25.0204242,1.44210677 C22.8522765,0.524402462 20.55404,0.0874004103 18.0389887,0.0874004103 C8.15223527,0.131100615 0.173451814,8.30303898 0.260177721,18.2229855 C0.303540675,22.156004 1.56106633,25.783121 3.72921401,28.754735 L1.69115519,30.8523448 C1.2141627,31.3330471 1.2141627,32.163351 1.69115519,32.6440532 C2.16814768,33.1247555 2.9920438,33.1247555 3.46903628,32.6440532 L13.6593304,22.2871046 C14.1363229,21.8064024 14.1363229,20.9760985 13.6593304,20.4953962 Z"/>
    <g transform="translate(5.637 12.236)">
      <mask id="client-logo-5-f" fill="#fff">
        <use xlink:href="#client-logo-5-e"/>
      </mask>
      <polygon fill="#FBD900" points=".061 25.853 32.687 25.853 32.687 .21 .061 .21" mask="url(#client-logo-5-f)"/>
    </g>
    <path stroke="#FBD900" d="M36.9452364,12.8915605 L36.9018735,12.8041601 C36.6850587,12.2797576 36.381518,12.4108583 36.1213403,12.7604599 L35.2974442,14.3773675 C35.1239924,14.9454702 34.9071776,14.9891704 35.1673553,15.8194743 L35.2107183,15.9942751 C35.5576219,17.261581 35.7310737,18.5725872 35.7310737,19.9272935 C35.7744367,28.4051333 28.966453,35.3971662 20.55404,35.4408664 C17.4319073,35.4408664 14.4832265,34.5231621 12.0549011,32.9062545 L18.0823516,26.7882258 C18.5593441,26.3075235 18.5593441,25.4772196 18.0823516,24.9965173 C17.6053591,24.5158151 16.781463,24.5158151 16.3044705,24.9965173 L6.0708135,35.3097658 C5.59382101,35.790468 5.59382101,36.6207719 6.0708135,37.1014742 C6.54780599,37.5821764 7.37170211,37.5821764 7.84869459,37.1014742 L10.1469311,34.7853633 C13.095612,36.8829731 16.6513742,38.1065789 20.510677,38.0628787 C30.3974304,38.0191785 38.3762139,29.8472401 38.289488,19.9272935 C38.3328509,17.3926816 37.8558585,15.0765708 36.9452364,12.8915605 Z"/>
    <g transform="translate(11.708 1.311)">
      <mask id="client-logo-5-h" fill="#fff">
        <use xlink:href="#client-logo-5-g"/>
      </mask>
      <polygon fill="#004FB2" points="-.026 25.818 24.847 25.818 24.847 -.035 -.026 -.035" mask="url(#client-logo-5-h)"/>
    </g>
  </g>
</svg>
